<svg id="Layer_1" data-name="Layer 1" xmlns="http://www.w3.org/2000/svg" viewBox="0 0 437.35 12.99"><defs><style>.cls-1{fill:#f47e4c;}</style></defs><title>Artboard 1</title><path class="cls-1" d="M105.81,3.73c-2.12-.28-4.65,0-7.13-.2a27.09,27.09,0,0,0-4.15,0c-4.78.39-9.59.55-14.42.66-2.44.05-4.83.1-7.29-.06a82.47,82.47,0,0,0-8.51.06c-2.3.09-4.63,0-6.94.08-4.42.1-8.84-.19-13.27.09-1.56.1-3.17,0-4.76,0-4.11,0-8.19.17-12.28.35-3.89.18-7.8,0-11.69.08-3.44.11-6.87-.14-10.3,0a4.75,4.75,0,0,1-.6,0c-.77-.07-2-.67-1.88-1S3.41,3.13,4.12,3a75.63,75.63,0,0,1,8.56-.89c4-.25,8-.42,12-.62a4.33,4.33,0,0,1,1.56,0,8.64,8.64,0,0,0,3.65.12c2.43-.18,4.85-.38,7.29-.53a16,16,0,0,1,3.93.09A15.76,15.76,0,0,0,45.28,1a27.7,27.7,0,0,0,4.58-.7c1.66-.43,2.41-.25,3,.69.22.34.44.48,1.1.45a24.37,24.37,0,0,0,3.15-.19C58.9,1,60.8,1,62.53.58a2.18,2.18,0,0,1,1.32.1,6.73,6.73,0,0,0,3.79.14c1.14-.2,2.28-.37,3.42-.58a3.62,3.62,0,0,1,2.4.23,4.47,4.47,0,0,0,2.77.3C78,.55,79.73.38,81.45.12c1.35-.2,2.49-.22,3.2.58a1.74,1.74,0,0,0,1.69.3c.75-.14,1.5-.29,2.24-.44a3,3,0,0,1,2.64.38,3.09,3.09,0,0,0,2.58.45c.51-.07,1-.11,1.55-.19a7.52,7.52,0,0,1,4.46.3,6.31,6.31,0,0,0,2.91.13,10.93,10.93,0,0,1,3.89,0,3.51,3.51,0,0,0,1,0c2.93-.21,5.75.32,8.63.42a2.31,2.31,0,0,1,.9.2c.52.24.47.55-.19.66a12.26,12.26,0,0,1-1.57.12,30.63,30.63,0,0,0-4.87.38A36.86,36.86,0,0,1,105.81,3.73Z"/><path class="cls-1" d="M107.31,3.73c2.12-.28,4.65,0,7.13-.2a27.09,27.09,0,0,1,4.15,0c4.78.39,9.59.55,14.42.66,2.44.05,4.83.1,7.29-.06a82.47,82.47,0,0,1,8.51.06c2.3.09,4.63,0,6.94.08,4.42.1,8.84-.19,13.27.09,1.56.1,3.17,0,4.76,0,4.11,0,8.19.17,12.28.35,3.89.18,7.8,0,11.69.08,3.44.11,6.87-.14,10.3,0a4.75,4.75,0,0,0,.6,0c.77-.07,2-.67,1.88-1S209.72,3.13,209,3a75.63,75.63,0,0,0-8.56-.89c-4-.25-8-.42-12-.62a4.33,4.33,0,0,0-1.56,0,8.64,8.64,0,0,1-3.65.12c-2.43-.18-4.85-.38-7.29-.53a16,16,0,0,0-3.93.09A15.76,15.76,0,0,1,167.85,1a27.7,27.7,0,0,1-4.58-.7c-1.66-.43-2.41-.25-3,.69-.22.34-.44.48-1.1.45A24.37,24.37,0,0,1,156,1.27c-1.76-.32-3.67-.3-5.4-.69a2.18,2.18,0,0,0-1.32.1,6.73,6.73,0,0,1-3.79.14c-1.14-.2-2.28-.37-3.42-.58a3.62,3.62,0,0,0-2.4.23,4.47,4.47,0,0,1-2.77.3l-.82-.11c-1.47-.18-2.95-.34-4.4-.56s-2.49-.22-3.2.58a1.74,1.74,0,0,1-1.69.3c-.75-.14-1.5-.29-2.24-.44a3,3,0,0,0-2.64.38,3.09,3.09,0,0,1-2.58.45c-.51-.07-1-.11-1.55-.19a7.52,7.52,0,0,0-4.46.3,6.31,6.31,0,0,1-2.91.13,10.93,10.93,0,0,0-3.89,0,3.51,3.51,0,0,1-1,0c-2.93-.21-5.75.32-8.63.42a2.31,2.31,0,0,0-.9.2c-.52.24-.47.55.19.66a12.26,12.26,0,0,0,1.57.12,30.63,30.63,0,0,1,4.87.38A36.86,36.86,0,0,0,107.31,3.73Z"/><path class="cls-1" d="M60.19,12.59c-8.94-.1-21.56-.16-34.11-.42-6.65-.14-13.22-.14-19.84,0-.95,0-1.9,0-2.85,0-2.22,0-3.24-.25-3.37-.72s.9-1,2.69-1.09c1-.07,2.15-.08,3.23-.07,7.17,0,14.33-.06,21.51.09,10.82.21,21.68.25,32.52.38,3.92,0,7.83.19,11.76.23q25.41.24,50.82,0c13.94-.12,27.91-.07,41.84-.26,10.84-.15,21.66,0,32.48-.16,3.64,0,7.31,0,10.94-.14a21.08,21.08,0,0,1,4,.15c1.45.22,2.8.43,2.54,1s-1,.81-2.78,1a36.67,36.67,0,0,1-4.81.15c-6.87-.32-13.79-.17-20.69-.16-9.88,0-19.75.11-29.62.17-9.32.06-18.65.18-28,.17-12.33,0-24.64.21-37,.08C82.25,12.85,73,12.87,60.19,12.59Z"/><path class="cls-1" d="M312.6,3.73c-2.44-.28-5.34,0-8.2-.2a35.77,35.77,0,0,0-4.77,0c-5.5.39-11,.55-16.57.66-2.81.05-5.55.1-8.38-.06-3.22-.18-6.52-.06-9.79.06-2.65.09-5.32,0-8,.08-5.08.1-10.16-.19-15.25.09-1.79.1-3.64,0-5.47,0-4.72,0-9.42.17-14.11.35-4.47.18-9,0-13.43.08-4,.11-7.89-.14-11.84,0a6.27,6.27,0,0,1-.68,0c-.88-.07-2.27-.67-2.16-1s.93-.63,1.75-.76c3.2-.5,6.52-.71,9.83-.89,4.6-.25,9.22-.42,13.84-.62a5.71,5.71,0,0,1,1.8,0,11.38,11.38,0,0,0,4.2.12c2.79-.18,5.58-.38,8.37-.53a21.13,21.13,0,0,1,4.52.09A20.79,20.79,0,0,0,243,1a36.27,36.27,0,0,0,5.26-.7c1.91-.43,2.77-.25,3.48.69.25.34.5.48,1.26.45a32.14,32.14,0,0,0,3.62-.19c2-.32,4.21-.3,6.21-.69a2.86,2.86,0,0,1,1.51.1,8.84,8.84,0,0,0,4.36.14c1.31-.2,2.63-.37,3.93-.58a4.74,4.74,0,0,1,2.76.23,5.84,5.84,0,0,0,3.18.3c2-.24,4-.4,6-.66,1.55-.2,2.86-.22,3.68.58a2.23,2.23,0,0,0,1.94.3c.86-.14,1.73-.29,2.58-.44a3.92,3.92,0,0,1,3,.38,4,4,0,0,0,3,.45c.59-.07,1.2-.11,1.78-.19a9.87,9.87,0,0,1,5.12.3,8.29,8.29,0,0,0,3.34.13,14.41,14.41,0,0,1,4.47,0,4.63,4.63,0,0,0,1.13,0c3.37-.21,6.6.32,9.91.42a3,3,0,0,1,1,.2c.6.24.53.55-.22.66a16.16,16.16,0,0,1-1.8.12,40.36,40.36,0,0,0-5.6.38A48.62,48.62,0,0,1,312.6,3.73Z"/><path class="cls-1" d="M314.33,3.73c2.44-.28,5.34,0,8.2-.2a35.77,35.77,0,0,1,4.77,0c5.5.39,11,.55,16.57.66,2.81.05,5.55.1,8.38-.06,3.22-.18,6.52-.06,9.79.06,2.65.09,5.32,0,8,.08,5.08.1,10.16-.19,15.25.09,1.79.1,3.64,0,5.47,0,4.72,0,9.42.17,14.11.35,4.47.18,9,0,13.43.08,4,.11,7.89-.14,11.84,0a6.27,6.27,0,0,0,.68,0c.88-.07,2.27-.67,2.16-1S432,3.13,431.2,3c-3.2-.5-6.52-.71-9.83-.89-4.6-.25-9.22-.42-13.84-.62a5.71,5.71,0,0,0-1.8,0,11.38,11.38,0,0,1-4.2.12c-2.79-.18-5.58-.38-8.37-.53a21.13,21.13,0,0,0-4.52.09A20.79,20.79,0,0,1,383.9,1a36.27,36.27,0,0,1-5.26-.7c-1.91-.43-2.77-.25-3.48.69-.25.34-.5.48-1.26.45a32.14,32.14,0,0,1-3.62-.19c-2-.32-4.21-.3-6.21-.69a2.86,2.86,0,0,0-1.51.1,8.84,8.84,0,0,1-4.36.14c-1.31-.2-2.63-.37-3.93-.58a4.74,4.74,0,0,0-2.76.23,5.84,5.84,0,0,1-3.18.3l-.95-.11C345.7.49,344,.34,342.33.12s-2.86-.22-3.68.58a2.23,2.23,0,0,1-1.94.3c-.86-.14-1.73-.29-2.58-.44a3.92,3.92,0,0,0-3,.38,4,4,0,0,1-3,.45c-.59-.07-1.2-.11-1.78-.19a9.87,9.87,0,0,0-5.12.3,8.29,8.29,0,0,1-3.34.13,14.41,14.41,0,0,0-4.47,0,4.63,4.63,0,0,1-1.13,0c-3.37-.21-6.6.32-9.91.42a3,3,0,0,0-1,.2c-.6.24-.53.55.22.66a16.16,16.16,0,0,0,1.8.12,40.36,40.36,0,0,1,5.6.38A48.61,48.61,0,0,0,314.33,3.73Z"/><path class="cls-1" d="M260.17,12.59c-10.28-.1-24.78-.16-39.21-.42-7.65-.14-15.19-.14-22.8,0-1.09,0-2.18,0-3.27,0-2.56,0-3.72-.25-3.88-.72s1-1,3.09-1.09c1.19-.07,2.48-.08,3.72-.07,8.24,0,16.47-.06,24.73.09,12.43.21,24.91.25,37.37.38,4.51,0,9,.19,13.51.23q29.2.24,58.41,0c16-.12,32.08-.07,48.08-.26,12.45-.15,24.9,0,37.33-.16,4.19,0,8.4,0,12.58-.14a27.82,27.82,0,0,1,4.56.15c1.66.22,3.22.43,2.92,1s-1.14.81-3.2,1a48.4,48.4,0,0,1-5.52.15c-7.9-.32-15.85-.17-23.78-.16-11.35,0-22.7.11-34,.17-10.71.06-21.43.18-32.15.17-14.17,0-28.32.21-42.5.08C285.53,12.85,274.92,12.87,260.17,12.59Z"/></svg>
