<svg id="Layer_1" data-name="Layer 1" xmlns="http://www.w3.org/2000/svg" xmlns:xlink="http://www.w3.org/1999/xlink" viewBox="0 0 454.5 268.53"><defs><style>.cls-1{fill:none;stroke:#f47e4c;stroke-linecap:round;stroke-miterlimit:10;stroke-width:4px;}.cls-1,.cls-2,.cls-3,.cls-4,.cls-5,.cls-6,.cls-7{opacity:0.8;}.cls-2{fill:url(#linear-gradient);}.cls-3{fill:url(#linear-gradient-2);}.cls-4{fill:url(#linear-gradient-3);}.cls-5{fill:#2a544b;}.cls-6{fill:url(#linear-gradient-4);}.cls-7{fill:url(#linear-gradient-5);}.cls-10,.cls-11,.cls-8,.cls-9{opacity:0.41;}.cls-8{fill:url(#linear-gradient-6);}.cls-9{fill:url(#linear-gradient-7);}.cls-10{fill:url(#linear-gradient-8);}.cls-11{fill:url(#linear-gradient-9);}.cls-12{fill:#f47e4c;}.cls-13{fill:#231f20;}</style><linearGradient id="linear-gradient" x1="162.96" x2="162.96" y2="173" gradientUnits="userSpaceOnUse"><stop offset="0" stop-color="#2a544b"/><stop offset="0.43" stop-color="#2c564b"/><stop offset="0.58" stop-color="#325d4a"/><stop offset="0.69" stop-color="#3e6849"/><stop offset="0.78" stop-color="#4e7947"/><stop offset="0.86" stop-color="#648f44"/><stop offset="0.93" stop-color="#7daa41"/><stop offset="0.96" stop-color="#8dba3f"/></linearGradient><linearGradient id="linear-gradient-2" x1="78.96" x2="78.96" xlink:href="#linear-gradient"/><linearGradient id="linear-gradient-3" x1="31.98" y1="181" x2="31.98" y2="8" gradientUnits="userSpaceOnUse"><stop offset="0" stop-color="#2a544b"/><stop offset="0.02" stop-color="#2e584b"/><stop offset="0.2" stop-color="#507b46"/><stop offset="0.39" stop-color="#6b9743"/><stop offset="0.58" stop-color="#7eaa41"/><stop offset="0.76" stop-color="#89b63f"/><stop offset="0.96" stop-color="#8dba3f"/></linearGradient><linearGradient id="linear-gradient-4" x1="120.5" x2="120.5" xlink:href="#linear-gradient-3"/><linearGradient id="linear-gradient-5" x1="210.72" x2="210.72" xlink:href="#linear-gradient-3"/><linearGradient id="linear-gradient-6" x1="58" y1="170.07" x2="58" y2="65.87" xlink:href="#linear-gradient-3"/><linearGradient id="linear-gradient-7" x1="141.5" y1="169.76" x2="141.5" y2="67.58" xlink:href="#linear-gradient-3"/><linearGradient id="linear-gradient-8" x1="99.5" y1="169.76" x2="99.5" y2="67.68" xlink:href="#linear-gradient-3"/><linearGradient id="linear-gradient-9" x1="184" y1="169.45" x2="184" y2="69.4" xlink:href="#linear-gradient-3"/></defs><title>Artboard 1</title><line class="cls-1" x1="38" y1="10.91" x2="38" y2="256"/><line class="cls-1" x1="79" y1="3.5" x2="79" y2="256"/><line class="cls-1" x1="163" y1="3.5" x2="163" y2="256"/><line class="cls-1" x1="121" y1="12.39" x2="121" y2="256"/><line class="cls-1" x1="206" y1="12.5" x2="206" y2="256"/><path class="cls-2" d="M185.37,69.4C177.34,41,168,12.06,163,0c-4.94,11.36-14.27,39.51-22.45,67.58C149.67,98.87,158,132,158,143.5a37.37,37.37,0,0,1-10.74,26.26,37.5,37.5,0,0,0,31.18-.32A37.36,37.36,0,0,1,168,143.5C168,132.27,176.24,100.13,185.37,69.4Z"/><path class="cls-3" d="M100.88,67.68C93,39.82,83.92,11.82,79,0,74.16,11.13,65.11,38.37,57,65.87c9.31,31.79,18,65.92,18,77.63a37.38,37.38,0,0,1-11,26.57,37.54,37.54,0,0,0,29.78-.31A37.37,37.37,0,0,1,83,143.5C83,132.06,91.55,98.93,100.88,67.68Z"/><path class="cls-4" d="M41,135.5c0-10.69,7.46-40.31,16-69.63C49.9,41.46,42.34,18.43,38,8,28,31,0,122.79,0,143.5a37.5,37.5,0,0,0,64,26.57A37.51,37.51,0,0,1,41,135.5Z"/><path class="cls-5" d="M75,143.5c0-11.71-8.64-45.84-18-77.63-8.59,29.32-16,58.94-16,69.63a37.51,37.51,0,0,0,23,34.57A37.38,37.38,0,0,0,75,143.5Z"/><path class="cls-6" d="M125,135.5c0-10.48,7.17-39.16,15.55-67.92-7.3-25-15.1-48.91-19.55-59.58-4.48,10.29-12.56,34.37-20.12,59.68C109,96.41,116,125,116,135.5a37.5,37.5,0,0,1-22.26,34.26,37.48,37.48,0,0,0,53.52,0A37.5,37.5,0,0,1,125,135.5Z"/><path class="cls-5" d="M140.55,67.58C132.17,96.34,125,125,125,135.5a37.5,37.5,0,0,0,22.26,34.26A37.37,37.37,0,0,0,158,143.5C158,132,149.67,98.87,140.55,67.58Z"/><path class="cls-5" d="M116,135.5c0-10.51-7-39.09-15.12-67.82C91.55,98.93,83,132.06,83,143.5a37.37,37.37,0,0,0,10.74,26.26A37.5,37.5,0,0,0,116,135.5Z"/><path class="cls-7" d="M206,8c-4.58,10.53-12.92,35.47-20.63,61.4C193.32,97.54,200,125.2,200,135.5a37.5,37.5,0,0,1-21.56,33.95A37.49,37.49,0,0,0,243,143.5C243,122.79,216,32,206,8Z"/><path class="cls-5" d="M200,135.5c0-10.3-6.68-38-14.63-66.1C176.24,100.13,168,132.27,168,143.5a37.36,37.36,0,0,0,10.44,25.95A37.5,37.5,0,0,0,200,135.5Z"/><path class="cls-8" d="M75,143.5c0-11.71-8.64-45.84-18-77.63-8.59,29.32-16,58.94-16,69.63a37.51,37.51,0,0,0,23,34.57A37.38,37.38,0,0,0,75,143.5Z"/><path class="cls-9" d="M140.55,67.58C132.17,96.34,125,125,125,135.5a37.5,37.5,0,0,0,22.26,34.26A37.37,37.37,0,0,0,158,143.5C158,132,149.67,98.87,140.55,67.58Z"/><path class="cls-10" d="M116,135.5c0-10.51-7-39.09-15.12-67.82C91.55,98.93,83,132.06,83,143.5a37.37,37.37,0,0,0,10.74,26.26A37.5,37.5,0,0,0,116,135.5Z"/><path class="cls-11" d="M200,135.5c0-10.3-6.68-38-14.63-66.1C176.24,100.13,168,132.27,168,143.5a37.36,37.36,0,0,0,10.44,25.95A37.5,37.5,0,0,0,200,135.5Z"/><path class="cls-12" d="M123,259.27c-2.12-.28-4.65,0-7.13-.2a27.09,27.09,0,0,0-4.15,0c-4.78.39-9.59.55-14.42.66-2.44.05-4.83.1-7.29-.06a82.47,82.47,0,0,0-8.51.06c-2.3.09-4.63,0-6.94.08-4.42.1-8.84-.19-13.27.09-1.56.1-3.17,0-4.76,0-4.11,0-8.19.17-12.28.35-3.89.18-7.8,0-11.69.08-3.44.11-6.87-.14-10.3,0a4.75,4.75,0,0,1-.6,0c-.77-.07-2-.67-1.88-1s.81-.63,1.53-.76a75.63,75.63,0,0,1,8.56-.89c4-.25,8-.42,12-.62a4.33,4.33,0,0,1,1.56,0,8.64,8.64,0,0,0,3.65.12c2.43-.18,4.85-.38,7.29-.53a16,16,0,0,1,3.93.09,15.76,15.76,0,0,0,4.12-.15,27.7,27.7,0,0,0,4.58-.7c1.66-.43,2.41-.25,3,.69.22.34.44.48,1.1.45a24.37,24.37,0,0,0,3.15-.19c1.76-.32,3.67-.3,5.4-.69a2.18,2.18,0,0,1,1.32.1,6.73,6.73,0,0,0,3.79.14c1.14-.2,2.28-.37,3.42-.58a3.62,3.62,0,0,1,2.4.23,4.47,4.47,0,0,0,2.77.3c1.73-.24,3.5-.4,5.22-.66,1.35-.2,2.49-.22,3.2.58a1.74,1.74,0,0,0,1.69.3c.75-.14,1.5-.29,2.24-.44a3,3,0,0,1,2.64.38,3.09,3.09,0,0,0,2.58.45c.51-.07,1-.11,1.55-.19a7.52,7.52,0,0,1,4.46.3,6.31,6.31,0,0,0,2.91.13,10.93,10.93,0,0,1,3.89,0,3.51,3.51,0,0,0,1,0c2.93-.21,5.75.32,8.63.42a2.31,2.31,0,0,1,.9.2c.52.24.47.55-.19.66a12.26,12.26,0,0,1-1.57.12,30.63,30.63,0,0,0-4.87.38A36.86,36.86,0,0,1,123,259.27Z"/><path class="cls-12" d="M124.46,259.27c2.12-.28,4.65,0,7.13-.2a27.09,27.09,0,0,1,4.15,0c4.78.39,9.59.55,14.42.66,2.44.05,4.83.1,7.29-.06a82.47,82.47,0,0,1,8.51.06c2.3.09,4.63,0,6.94.08,4.42.1,8.84-.19,13.27.09,1.56.1,3.17,0,4.76,0,4.11,0,8.19.17,12.28.35,3.89.18,7.8,0,11.69.08,3.44.11,6.87-.14,10.3,0a4.75,4.75,0,0,0,.6,0c.77-.07,2-.67,1.88-1s-.81-.63-1.53-.76a75.63,75.63,0,0,0-8.56-.89c-4-.25-8-.42-12-.62a4.33,4.33,0,0,0-1.56,0,8.64,8.64,0,0,1-3.65.12c-2.43-.18-4.85-.38-7.29-.53a16,16,0,0,0-3.93.09,15.76,15.76,0,0,1-4.12-.15,27.7,27.7,0,0,1-4.58-.7c-1.66-.43-2.41-.25-3,.69-.22.34-.44.48-1.1.45a24.37,24.37,0,0,1-3.15-.19c-1.76-.32-3.67-.3-5.4-.69a2.18,2.18,0,0,0-1.32.1,6.73,6.73,0,0,1-3.79.14c-1.14-.2-2.28-.37-3.42-.58a3.62,3.62,0,0,0-2.4.23,4.47,4.47,0,0,1-2.77.3l-.82-.11c-1.47-.18-2.95-.34-4.4-.56s-2.49-.22-3.2.58a1.74,1.74,0,0,1-1.69.3c-.75-.14-1.5-.29-2.24-.44a3,3,0,0,0-2.64.38,3.09,3.09,0,0,1-2.58.45c-.51-.07-1-.11-1.55-.19a7.52,7.52,0,0,0-4.46.3,6.31,6.31,0,0,1-2.91.13,10.93,10.93,0,0,0-3.89,0,3.51,3.51,0,0,1-1,0c-2.93-.21-5.75.32-8.63.42a2.31,2.31,0,0,0-.9.2c-.52.24-.47.55.19.66a12.26,12.26,0,0,0,1.57.12,30.63,30.63,0,0,1,4.87.38A36.86,36.86,0,0,0,124.46,259.27Z"/><path class="cls-12" d="M77.34,268.13c-8.94-.1-21.56-.16-34.11-.42-6.65-.14-13.22-.14-19.84,0-.95,0-1.9,0-2.85,0-2.22,0-3.24-.25-3.37-.72s.9-1,2.69-1.09c1-.07,2.15-.08,3.23-.07,7.17,0,14.33-.06,21.51.09,10.82.21,21.68.25,32.52.38,3.92,0,7.83.19,11.76.23q25.41.24,50.82,0c13.94-.12,27.91-.07,41.84-.26,10.84-.15,21.66,0,32.48-.16,3.64,0,7.31,0,10.94-.14a21.08,21.08,0,0,1,4,.15c1.45.22,2.8.43,2.54,1s-1,.81-2.78,1a36.67,36.67,0,0,1-4.81.15c-6.87-.32-13.79-.17-20.69-.16-9.88,0-19.75.11-29.62.17-9.32.06-18.65.18-28,.17-12.33,0-24.64.21-37,.08C99.4,268.38,90.17,268.41,77.34,268.13Z"/><path class="cls-12" d="M329.75,259.27c-2.44-.28-5.34,0-8.2-.2a35.77,35.77,0,0,0-4.77,0c-5.5.39-11,.55-16.57.66-2.81.05-5.55.1-8.38-.06-3.22-.18-6.52-.06-9.79.06-2.65.09-5.32,0-8,.08-5.08.1-10.16-.19-15.25.09-1.79.1-3.64,0-5.47,0-4.72,0-9.42.17-14.11.35-4.47.18-9,0-13.43.08-4,.11-7.89-.14-11.84,0a6.27,6.27,0,0,1-.68,0c-.88-.07-2.27-.67-2.16-1s.93-.63,1.75-.76c3.2-.5,6.52-.71,9.83-.89,4.6-.25,9.22-.42,13.84-.62a5.71,5.71,0,0,1,1.8,0,11.38,11.38,0,0,0,4.2.12c2.79-.18,5.58-.38,8.37-.53a21.13,21.13,0,0,1,4.52.09,20.79,20.79,0,0,0,4.74-.15,36.27,36.27,0,0,0,5.26-.7c1.91-.43,2.77-.25,3.48.69.25.34.5.48,1.26.45a32.14,32.14,0,0,0,3.62-.19c2-.32,4.21-.3,6.21-.69a2.86,2.86,0,0,1,1.51.1,8.84,8.84,0,0,0,4.36.14c1.31-.2,2.63-.37,3.93-.58a4.74,4.74,0,0,1,2.76.23,5.84,5.84,0,0,0,3.18.3c2-.24,4-.4,6-.66,1.55-.2,2.86-.22,3.68.58a2.23,2.23,0,0,0,1.94.3c.86-.14,1.73-.29,2.58-.44a3.92,3.92,0,0,1,3,.38,4,4,0,0,0,3,.45c.59-.07,1.2-.11,1.78-.19a9.87,9.87,0,0,1,5.12.3,8.29,8.29,0,0,0,3.34.13,14.41,14.41,0,0,1,4.47,0,4.63,4.63,0,0,0,1.13,0c3.37-.21,6.6.32,9.91.42a3,3,0,0,1,1,.2c.6.24.53.55-.22.66a16.16,16.16,0,0,1-1.8.12,40.36,40.36,0,0,0-5.6.38A48.62,48.62,0,0,1,329.75,259.27Z"/><path class="cls-12" d="M331.48,259.27c2.44-.28,5.34,0,8.2-.2a35.77,35.77,0,0,1,4.77,0c5.5.39,11,.55,16.57.66,2.81.05,5.55.1,8.38-.06,3.22-.18,6.52-.06,9.79.06,2.65.09,5.32,0,8,.08,5.08.1,10.16-.19,15.25.09,1.79.1,3.64,0,5.47,0,4.72,0,9.42.17,14.11.35,4.47.18,9,0,13.43.08,4,.11,7.89-.14,11.84,0a6.27,6.27,0,0,0,.68,0c.88-.07,2.27-.67,2.16-1s-.93-.63-1.75-.76c-3.2-.5-6.52-.71-9.83-.89-4.6-.25-9.22-.42-13.84-.62a5.71,5.71,0,0,0-1.8,0,11.38,11.38,0,0,1-4.2.12c-2.79-.18-5.58-.38-8.37-.53a21.13,21.13,0,0,0-4.52.09,20.79,20.79,0,0,1-4.74-.15,36.27,36.27,0,0,1-5.26-.7c-1.91-.43-2.77-.25-3.48.69-.25.34-.5.48-1.26.45a32.14,32.14,0,0,1-3.62-.19c-2-.32-4.21-.3-6.21-.69a2.86,2.86,0,0,0-1.51.1,8.84,8.84,0,0,1-4.36.14c-1.31-.2-2.63-.37-3.93-.58a4.74,4.74,0,0,0-2.76.23,5.84,5.84,0,0,1-3.18.3l-.95-.11c-1.69-.18-3.39-.34-5.05-.56s-2.86-.22-3.68.58a2.23,2.23,0,0,1-1.94.3c-.86-.14-1.73-.29-2.58-.44a3.92,3.92,0,0,0-3,.38,4,4,0,0,1-3,.45c-.59-.07-1.2-.11-1.78-.19a9.87,9.87,0,0,0-5.12.3,8.29,8.29,0,0,1-3.34.13,14.41,14.41,0,0,0-4.47,0,4.63,4.63,0,0,1-1.13,0c-3.37-.21-6.6.32-9.91.42a3,3,0,0,0-1,.2c-.6.24-.53.55.22.66a16.16,16.16,0,0,0,1.8.12,40.36,40.36,0,0,1,5.6.38A48.61,48.61,0,0,0,331.48,259.27Z"/><path class="cls-12" d="M277.32,268.13c-10.28-.1-24.78-.16-39.21-.42-7.65-.14-15.19-.14-22.8,0-1.09,0-2.18,0-3.27,0-2.56,0-3.72-.25-3.88-.72s1-1,3.09-1.09c1.19-.07,2.48-.08,3.72-.07,8.24,0,16.47-.06,24.73.09,12.43.21,24.91.25,37.37.38,4.51,0,9,.19,13.51.23q29.2.24,58.41,0c16-.12,32.08-.07,48.08-.26,12.45-.15,24.9,0,37.33-.16,4.19,0,8.4,0,12.58-.14a27.82,27.82,0,0,1,4.56.15c1.66.22,3.22.43,2.92,1s-1.14.81-3.2,1a48.4,48.4,0,0,1-5.52.15c-7.9-.32-15.85-.17-23.78-.16-11.35,0-22.7.11-34,.17-10.71.06-21.43.18-32.15.17-14.17,0-28.32.21-42.5.08C302.68,268.38,292.07,268.41,277.32,268.13Z"/><path class="cls-13" d="M270,248.7c0,2.87-10.94,2.44-15.08,1.81-1,0-1.81-.32-1.81-1.17-3-23.78-.64-48.1-.64-71.88a2.62,2.62,0,0,1,2.44-2.34c5.84,0,10.72-.21,16.25,1.17a1.27,1.27,0,0,1,1.27,1.17C271.76,200.5,273.46,224.92,270,248.7Zm-13.27-70.08c0,22.62-2.12,45.76.42,68.27a48.61,48.61,0,0,0,6.9.32h2.12c3.08-22.62,1.06-44.59,1.7-67.64A43.21,43.21,0,0,0,256.68,178.62Z"/><path class="cls-13" d="M296.46,181.38c1.49,1.49,1.17,3.08,1.17,5.1-.32,3.4-.32,6.37-.53,9.66-.32,4.57-.32,9.13-.32,13.91a2.08,2.08,0,0,1-1.27,2.12c-1.06.53-2.44,1.49-3.82,2.12l4.46,5.1c2,2.44,1.17,22.72,1.17,29.73,0,2.76-3.29,3.29-3.29.32-.32-6.58.11-23.36-.53-25.48-1.59-5.52-2.12-5.31-6.37-8.81H281.7c.32,11.57.53,22.09.53,33.66,0,2-3.29,2-3.29,0,0-10-.32-19.11-.64-29.09,0-15.72,1.27-28.14,1.27-39.82,0-2.12,1.81-3.19,3.61-4.14.85-.53,5.84-.53,6.9,0A65.22,65.22,0,0,1,296.46,181.38Zm-13.59-.21c-.11,9.87-1,19.64-1.17,29.52h6.9c.74,0,3.19-1.38,4.88-2.34,0-7.86.21-15.82.74-23.57-.32-2-4.25-5-7.11-5.2C284.67,179.37,282.87,179.58,282.87,181.17Z"/><path class="cls-13" d="M322.48,174.59c3,0,1.27,3.61-1.17,3.61l-11.47.85a70.6,70.6,0,0,0-2.23,16.25c0,9.87-.32,20-.64,30.16,0,6.05-.21,12,.11,18.05l.21,2.44c1,.32,1.49.53,6.26.53h9.56c3,0,1.49,3.61-.85,3.61-6.26,0-12.85,1.17-18.58-1.27a1.43,1.43,0,0,1-1-1.17c-.32-12,0-23.89,0-35.68.32-7.43.32-14.55.64-21.87,0-4.46,1.06-10.19,2.44-12.74a2.53,2.53,0,0,1,2.65-1.8Z"/><path class="cls-13" d="M347.81,212.07c.32,12.1,0,24.1,0,36.42,0,2.44-3.61,3.29-3.61.32V216.32c-3.29.32-7,.74-10.51.85.32,10.41.85,20.92,1.81,31.32.32,2.44-3.19,3.72-3.4,1.59-2.23-24-3.19-49.37-3.19-73.48,0-2.44,3.61-3,3.61-.85.42,12.53.64,25.06,1.06,37.59,3.4,0,7.11-.32,10.62-.64-.21-11.68.32-23.15,0-34.3-.21-2.12,3.61-4.25,3.61-1.49C348.45,189.56,347.81,200.07,347.81,212.07Z"/><path class="cls-13" d="M372.83,249.23c0,2.65-3.29,3.29-3.61.21l-.42-34.19a1.21,1.21,0,0,1-.85.32c-3,0-5.95.11-8.81.21-.42,10.94-1,22-1.49,32.81,0,2.65-3.72,3.29-3.72.32.74-11.15,1.27-22.51,1.81-33.66a2.27,2.27,0,0,1,.11-2c.42-11.68,1-23.25,1.17-34.83,0-1,1-2.66,1.81-2.66,3.72-.32,7.54-1,11-1.17a2,2,0,0,1,1.81,2.12C372.19,200.71,372.51,225.13,372.83,249.23Zm-13.48-37.8c3-.21,6.26-.21,9.45-.53-.11-10.4-.42-20.92-.74-31.53-2.44.32-5.1.74-7.54,1Z"/><path class="cls-13" d="M396,181.38c1.49,1.49,1.17,3.08,1.17,5.1-.32,3.4-.32,6.37-.53,9.66-.32,4.57-.32,9.13-.32,13.91a2.08,2.08,0,0,1-1.27,2.12c-1.06.53-2.44,1.49-3.82,2.12l4.46,5.1c2,2.44,1.17,22.72,1.17,29.73,0,2.76-3.29,3.29-3.29.32-.32-6.58.11-23.36-.53-25.48-1.59-5.52-2.12-5.31-6.37-8.81h-5.42c.32,11.57.53,22.09.53,33.66,0,2-3.29,2-3.29,0,0-10-.32-19.11-.64-29.09,0-15.72,1.27-28.14,1.27-39.82,0-2.12,1.81-3.19,3.61-4.14.85-.53,5.84-.53,6.9,0A65.17,65.17,0,0,1,396,181.38Zm-13.59-.21c-.11,9.87-1,19.64-1.17,29.52h6.9c.74,0,3.19-1.38,4.88-2.34,0-7.86.21-15.82.74-23.57-.32-2-4.25-5-7.11-5.2C384.2,179.37,382.39,179.58,382.39,181.17Z"/><path class="cls-13" d="M417.82,178.73c1.59.74,2.55,6.9,2.87,8.71,1.27,8.07,2.55,15.82,2.76,23.47.32,5.42.74,10.62.74,15.82.32,2.87-6.26,15.5-8.81,20.28-.85,2.12-6.16,2.66-8.07,3.4-2.12,1.06-4.25,1-4.25-1.06V212.92c0-12.74.32-25.48.32-38.22.32-1.59,2.87-1.59,3.93-1.27C411.13,175.65,414,176.92,417.82,178.73Zm-10.19,35v32.7l3.82-1.17.53-1.49c2.12-4.35,4.14-8.49,6.26-12.64l1.27-3.08v-3.5c-.53-17.41-1.06-19.22-3.08-35.57-.21-2.12-.74-4.14-1.06-6.26a31.23,31.23,0,0,0-7.54-4.46C407.09,189.88,407.31,201.45,407.62,213.77Z"/></svg>