<?xml version="1.0" encoding="UTF-8"?>
<svg width="242px" height="269px" viewBox="0 0 242 269" version="1.1" xmlns="http://www.w3.org/2000/svg" xmlns:xlink="http://www.w3.org/1999/xlink">
    <!-- Generator: Sketch 42 (36781) - http://www.bohemiancoding.com/sketch -->
    <title>LOGO-VERTICAL</title>
    <desc>Created with Sketch.</desc>
    <defs>
        <linearGradient x1="50%" y1="0%" x2="50%" y2="100.000443%" id="linearGradient-1">
            <stop stop-color="#2A544B" offset="0%"></stop>
            <stop stop-color="#2C564B" offset="43%"></stop>
            <stop stop-color="#325D4A" offset="58%"></stop>
            <stop stop-color="#3E6849" offset="69%"></stop>
            <stop stop-color="#4E7947" offset="78%"></stop>
            <stop stop-color="#648F44" offset="86%"></stop>
            <stop stop-color="#7DAA41" offset="93%"></stop>
            <stop stop-color="#8DBA3F" offset="96%"></stop>
        </linearGradient>
        <linearGradient x1="7998%" y1="0%" x2="7998%" y2="0%" id="linearGradient-2">
            <stop stop-color="#2A544B" offset="0%"></stop>
            <stop stop-color="#2C564B" offset="43%"></stop>
            <stop stop-color="#325D4A" offset="58%"></stop>
            <stop stop-color="#3E6849" offset="69%"></stop>
            <stop stop-color="#4E7947" offset="78%"></stop>
            <stop stop-color="#648F44" offset="86%"></stop>
            <stop stop-color="#7DAA41" offset="93%"></stop>
            <stop stop-color="#8DBA3F" offset="96%"></stop>
        </linearGradient>
        <linearGradient x1="50.0007989%" y1="100.002836%" x2="50.0007989%" y2="0%" id="linearGradient-3">
            <stop stop-color="#2A544B" offset="0%"></stop>
            <stop stop-color="#2E584B" offset="2%"></stop>
            <stop stop-color="#507B46" offset="20%"></stop>
            <stop stop-color="#6B9743" offset="39%"></stop>
            <stop stop-color="#7EAA41" offset="58%"></stop>
            <stop stop-color="#89B63F" offset="76%"></stop>
            <stop stop-color="#8DBA3F" offset="96%"></stop>
        </linearGradient>
        <linearGradient x1="12126%" y1="0%" x2="12126%" y2="0%" id="linearGradient-4">
            <stop stop-color="#2A544B" offset="0%"></stop>
            <stop stop-color="#2E584B" offset="2%"></stop>
            <stop stop-color="#507B46" offset="20%"></stop>
            <stop stop-color="#6B9743" offset="39%"></stop>
            <stop stop-color="#7EAA41" offset="58%"></stop>
            <stop stop-color="#89B63F" offset="76%"></stop>
            <stop stop-color="#8DBA3F" offset="96%"></stop>
        </linearGradient>
        <linearGradient x1="21092%" y1="0%" x2="21092%" y2="0%" id="linearGradient-5">
            <stop stop-color="#2A544B" offset="0%"></stop>
            <stop stop-color="#2E584B" offset="2%"></stop>
            <stop stop-color="#507B46" offset="20%"></stop>
            <stop stop-color="#6B9743" offset="39%"></stop>
            <stop stop-color="#7EAA41" offset="58%"></stop>
            <stop stop-color="#89B63F" offset="76%"></stop>
            <stop stop-color="#8DBA3F" offset="96%"></stop>
        </linearGradient>
        <linearGradient x1="5914%" y1="17007%" x2="5914%" y2="6587%" id="linearGradient-6">
            <stop stop-color="#2A544B" offset="0%"></stop>
            <stop stop-color="#2E584B" offset="2%"></stop>
            <stop stop-color="#507B46" offset="20%"></stop>
            <stop stop-color="#6B9743" offset="39%"></stop>
            <stop stop-color="#7EAA41" offset="58%"></stop>
            <stop stop-color="#89B63F" offset="76%"></stop>
            <stop stop-color="#8DBA3F" offset="96%"></stop>
        </linearGradient>
        <linearGradient x1="14213%" y1="16976%" x2="14213%" y2="6758%" id="linearGradient-7">
            <stop stop-color="#2A544B" offset="0%"></stop>
            <stop stop-color="#2E584B" offset="2%"></stop>
            <stop stop-color="#507B46" offset="20%"></stop>
            <stop stop-color="#6B9743" offset="39%"></stop>
            <stop stop-color="#7EAA41" offset="58%"></stop>
            <stop stop-color="#89B63F" offset="76%"></stop>
            <stop stop-color="#8DBA3F" offset="96%"></stop>
        </linearGradient>
        <linearGradient x1="10039%" y1="16976%" x2="10039%" y2="6768%" id="linearGradient-8">
            <stop stop-color="#2A544B" offset="0%"></stop>
            <stop stop-color="#2E584B" offset="2%"></stop>
            <stop stop-color="#507B46" offset="20%"></stop>
            <stop stop-color="#6B9743" offset="39%"></stop>
            <stop stop-color="#7EAA41" offset="58%"></stop>
            <stop stop-color="#89B63F" offset="76%"></stop>
            <stop stop-color="#8DBA3F" offset="96%"></stop>
        </linearGradient>
        <linearGradient x1="18436%" y1="16945%" x2="18436%" y2="6940%" id="linearGradient-9">
            <stop stop-color="#2A544B" offset="0%"></stop>
            <stop stop-color="#2E584B" offset="2%"></stop>
            <stop stop-color="#507B46" offset="20%"></stop>
            <stop stop-color="#6B9743" offset="39%"></stop>
            <stop stop-color="#7EAA41" offset="58%"></stop>
            <stop stop-color="#89B63F" offset="76%"></stop>
            <stop stop-color="#8DBA3F" offset="96%"></stop>
        </linearGradient>
    </defs>
    <g id="Page-1" stroke="none" stroke-width="1" fill="none" fill-rule="evenodd">
        <g id="LOGO-VERTICAL">
            <g id="Layer_1">
                <path d="M38.27,10.91 L38.27,256" id="Shape" stroke="#F47E4C" stroke-width="4" stroke-linecap="round" opacity="0.8"></path>
                <path d="M79.01,3.5 L79.01,256" id="Shape" stroke="#F47E4C" stroke-width="4" stroke-linecap="round" opacity="0.8"></path>
                <path d="M162.49,3.5 L162.49,256" id="Shape" stroke="#F47E4C" stroke-width="4" stroke-linecap="round" opacity="0.8"></path>
                <path d="M120.75,12.39 L120.75,256" id="Shape" stroke="#F47E4C" stroke-width="4" stroke-linecap="round" opacity="0.8"></path>
                <path d="M205.23,12.5 L205.23,256" id="Shape" stroke="#F47E4C" stroke-width="4" stroke-linecap="round" opacity="0.8"></path>
                <path d="M184.72,69.4 C176.75,41 167.49,12.06 162.49,0 C157.58,11.36 148.31,39.51 140.18,67.58 C149.24,98.87 157.52,131.99 157.52,143.5 C157.536949,153.312384 153.706179,162.740316 146.85,169.76 C156.733689,174.188135 168.059827,174.07122 177.85,169.44 C171.173611,162.451859 167.454781,153.154784 167.47,143.49 C167.46,132.27 175.65,100.13 184.72,69.4 Z" id="Shape" fill="url(#linearGradient-1)" fill-rule="nonzero" opacity="0.8"></path>
                <path d="M100.76,67.68 C92.89,39.82 83.91,11.82 79,0 C74.2,11.13 65.2,38.37 57.2,65.87 C66.45,97.66 75,131.79 75,143.5 C75.0098292,153.466525 71.0517895,163.02699 64,170.07 C73.482349,174.077866 84.2036702,173.965582 93.6,169.76 C86.7694236,162.729091 82.9643296,153.302509 83,143.5 C83,132.06 91.48,98.93 100.76,67.68 Z" id="Shape" fill="url(#linearGradient-2)" fill-rule="nonzero" opacity="0.8"></path>
                <path d="M41.25,135.5 C41.25,124.81 48.66,95.19 57.25,65.87 C50.09,41.46 42.58,18.43 38.27,8 C28.33,31 0.5,122.79 0.5,143.5 C0.388767864,158.609354 9.42300282,172.286634 23.3637188,178.114275 C37.3044348,183.941915 53.3849232,180.763348 64.06,170.07 C50.2073744,164.169236 41.225749,150.557014 41.25,135.5 L41.25,135.5 Z" id="Shape" fill="url(#linearGradient-3)" fill-rule="nonzero" opacity="0.8"></path>
                <path d="M75,143.5 C75,131.79 66.42,97.66 57.16,65.87 C48.62,95.19 41.16,124.81 41.16,135.5 C41.135749,150.557014 50.1173744,164.169236 63.97,170.07 C71.0327932,163.031915 75.0018804,153.470841 75,143.5 L75,143.5 Z" id="Shape" fill="#2A544B" fill-rule="nonzero" opacity="0.8"></path>
                <path d="M124.73,135.5 C124.73,125.02 131.86,96.34 140.18,67.58 C132.93,42.58 125.18,18.67 120.75,8 C116.3,18.29 108.27,42.37 100.75,67.68 C108.86,96.41 115.75,124.98 115.75,135.5 C115.77071,150.280732 107.109379,163.695614 93.63,169.76 C100.613457,176.943907 110.206158,180.997068 120.225,180.997068 C130.243842,180.997068 139.836543,176.943907 146.82,169.76 C133.352343,163.686687 124.703981,150.273701 124.73,135.5 L124.73,135.5 Z" id="Shape" fill="url(#linearGradient-4)" fill-rule="nonzero" opacity="0.8"></path>
                <path d="M140.18,67.58 C131.85,96.34 124.73,125.02 124.73,135.5 C124.70929,150.280732 133.370621,163.695614 146.85,169.76 C153.706179,162.740316 157.536949,153.312384 157.52,143.5 C157.52,132 149.25,98.87 140.18,67.58 Z" id="Shape" fill="#2A544B" fill-rule="nonzero" opacity="0.8"></path>
                <path d="M115.78,135.5 C115.78,124.99 108.86,96.41 100.78,67.68 C91.48,98.93 83,132.06 83,143.5 C82.9830506,153.312384 86.8138211,162.740316 93.67,169.76 C107.145472,163.692637 115.802479,150.278387 115.78,135.5 L115.78,135.5 Z" id="Shape" fill="#2A544B" fill-rule="nonzero" opacity="0.8"></path>
                <path d="M205.23,8 C200.68,18.53 192.39,43.47 184.73,69.4 C192.63,97.54 199.27,125.19 199.27,135.5 C199.29376,150.008839 190.948091,163.23028 177.84,169.45 C188.36886,180.510473 204.586543,184.015277 218.743066,178.289563 C232.899589,172.56385 242.120746,158.770114 242,143.5 C242,122.79 215.17,32 205.23,8 Z" id="Shape" fill="url(#linearGradient-5)" fill-rule="nonzero" opacity="0.8"></path>
                <path d="M199.27,135.5 C199.27,125.2 192.63,97.5 184.73,69.4 C175.65,100.13 167.47,132.27 167.47,143.5 C167.454781,153.164784 171.173611,162.461859 177.85,169.45 C190.954194,163.227394 199.295591,150.006553 199.27,135.5 L199.27,135.5 Z" id="Shape" fill="#2A544B" fill-rule="nonzero" opacity="0.8"></path>
                <path d="M75,143.5 C75,131.79 66.42,97.66 57.16,65.87 C48.62,95.19 41.16,124.81 41.16,135.5 C41.135749,150.557014 50.1173744,164.169236 63.97,170.07 C71.0327932,163.031915 75.0018804,153.470841 75,143.5 L75,143.5 Z" id="Shape" fill="url(#linearGradient-6)" fill-rule="nonzero" opacity="0.41"></path>
                <path d="M140.18,67.58 C131.85,96.34 124.73,125.02 124.73,135.5 C124.70929,150.280732 133.370621,163.695614 146.85,169.76 C153.706179,162.740316 157.536949,153.312384 157.52,143.5 C157.52,132 149.25,98.87 140.18,67.58 Z" id="Shape" fill="url(#linearGradient-7)" fill-rule="nonzero" opacity="0.41"></path>
                <path d="M115.78,135.5 C115.78,124.99 108.86,96.41 100.78,67.68 C91.48,98.93 83,132.06 83,143.5 C82.9830506,153.312384 86.8138211,162.740316 93.67,169.76 C107.145472,163.692637 115.802479,150.278387 115.78,135.5 L115.78,135.5 Z" id="Shape" fill="url(#linearGradient-8)" fill-rule="nonzero" opacity="0.41"></path>
                <path d="M199.27,135.5 C199.27,125.2 192.63,97.5 184.73,69.4 C175.65,100.13 167.47,132.27 167.47,143.5 C167.454781,153.164784 171.173611,162.461859 177.85,169.45 C190.954194,163.227394 199.295591,150.006553 199.27,135.5 L199.27,135.5 Z" id="Shape" fill="url(#linearGradient-9)" fill-rule="nonzero" opacity="0.41"></path>
                <path d="M122.7,259.27 C120.59,258.99 118.08,259.27 115.61,259.07 C114.235389,258.963608 112.854611,258.963608 111.48,259.07 C106.73,259.46 101.95,259.62 97.15,259.73 C94.72,259.78 92.35,259.83 89.91,259.67 C87.0908647,259.543431 84.2670565,259.563458 81.45,259.73 C79.16,259.82 76.85,259.73 74.56,259.81 C70.17,259.91 65.77,259.62 61.37,259.9 C59.82,260 58.22,259.9 56.64,259.9 C52.56,259.9 48.5,260.07 44.44,260.25 C40.57,260.43 36.69,260.25 32.82,260.33 C29.4,260.44 26,260.19 22.58,260.33 C22.3835282,260.342383 22.1864718,260.342383 21.99,260.33 C21.23,260.26 19.99,259.66 20.12,259.33 C20.25,259 20.93,258.7 21.64,258.57 C24.4540296,258.111384 27.2920053,257.814231 30.14,257.68 C34.14,257.43 38.14,257.26 42.14,257.06 C42.6523607,256.965665 43.1776393,256.965665 43.69,257.06 C44.8773551,257.360126 46.1154158,257.401053 47.32,257.18 C49.73,257 52.14,256.8 54.56,256.65 C55.8620389,256.518159 57.1754062,256.54839 58.47,256.74 C59.8373002,256.871068 61.2159326,256.82063 62.57,256.59 C64.1036332,256.484856 65.6256822,256.250694 67.12,255.89 C68.77,255.46 69.52,255.64 70.12,256.58 C70.34,256.92 70.56,257.06 71.21,257.03 C72.2563541,257.034767 73.3019056,256.971299 74.34,256.84 C76.09,256.52 77.98,256.54 79.71,256.15 C80.1464043,256.045831 80.6044638,256.080797 81.02,256.25 C82.2368031,256.659621 83.5461674,256.708244 84.79,256.39 C85.92,256.19 87.06,256.02 88.19,255.81 C88.9862474,255.611637 89.8264716,255.692835 90.57,256.04 C91.430955,256.431667 92.3948465,256.536819 93.32,256.34 C95.04,256.1 96.8,255.94 98.51,255.68 C99.85,255.48 100.99,255.46 101.69,256.26 C102.157406,256.650352 102.796378,256.764455 103.37,256.56 C104.12,256.42 104.86,256.27 105.6,256.12 C106.485017,255.833632 107.452808,255.973998 108.22,256.5 C108.96351,257.024302 109.90226,257.189317 110.78,256.95 C111.29,256.88 111.78,256.84 112.32,256.76 C113.792727,256.406123 115.33843,256.510798 116.75,257.06 C117.689788,257.329495 118.679811,257.374029 119.64,257.19 C120.919478,256.95699 122.230522,256.95699 123.51,257.19 C123.841585,257.238283 124.178415,257.238283 124.51,257.19 C127.43,256.98 130.22,257.51 133.08,257.61 C133.390456,257.614963 133.696661,257.683008 133.98,257.81 C134.5,258.05 134.44,258.36 133.79,258.47 C133.27313,258.543585 132.752043,258.583669 132.23,258.59 C130.609093,258.586832 128.990552,258.713908 127.39,258.97 C125.834758,259.170894 124.268163,259.271102 122.7,259.27 L122.7,259.27 Z" id="Shape" fill="#F47E4C" fill-rule="nonzero"></path>
                <path d="M124.19,259.27 C126.3,258.99 128.81,259.27 131.28,259.07 C132.654611,258.963608 134.035389,258.963608 135.41,259.07 C140.16,259.46 144.94,259.62 149.74,259.73 C152.17,259.78 154.54,259.83 156.98,259.67 C159.799135,259.543431 162.622944,259.563458 165.44,259.73 C167.73,259.82 170.04,259.73 172.33,259.81 C176.72,259.91 181.12,259.62 185.52,259.9 C187.07,260 188.67,259.9 190.25,259.9 C194.33,259.9 198.39,260.07 202.45,260.25 C206.32,260.43 210.2,260.25 214.07,260.33 C217.49,260.44 220.89,260.19 224.31,260.33 C224.506472,260.342383 224.703528,260.342383 224.9,260.33 C225.66,260.26 226.9,259.66 226.77,259.33 C226.64,259 225.96,258.7 225.25,258.57 C222.43597,258.111384 219.597995,257.814231 216.75,257.68 C212.75,257.43 208.75,257.26 204.75,257.06 C204.237639,256.965665 203.712361,256.965665 203.2,257.06 C202.012645,257.360126 200.774584,257.401053 199.57,257.18 C197.16,257 194.75,256.8 192.33,256.65 C191.027961,256.518159 189.714594,256.54839 188.42,256.74 C187.0527,256.871068 185.674067,256.82063 184.32,256.59 C182.786367,256.484856 181.264318,256.250694 179.77,255.89 C178.12,255.46 177.37,255.64 176.77,256.58 C176.55,256.92 176.33,257.06 175.68,257.03 C174.633646,257.034767 173.588094,256.971299 172.55,256.84 C170.8,256.52 168.91,256.54 167.18,256.15 C166.743596,256.045831 166.285536,256.080797 165.87,256.25 C164.653197,256.659621 163.343833,256.708244 162.1,256.39 C160.97,256.19 159.83,256.02 158.7,255.81 C157.903753,255.611637 157.063528,255.692835 156.32,256.04 C155.459045,256.431667 154.495153,256.536819 153.57,256.34 L152.75,256.23 C151.29,256.05 149.82,255.89 148.38,255.67 C146.94,255.45 145.9,255.45 145.2,256.25 C144.732594,256.640352 144.093622,256.754455 143.52,256.55 C142.77,256.41 142.03,256.26 141.29,256.11 C140.404983,255.823632 139.437192,255.963998 138.67,256.49 C137.92649,257.014302 136.98774,257.179317 136.11,256.94 C135.6,256.87 135.11,256.83 134.57,256.75 C133.097273,256.396123 131.55157,256.500798 130.14,257.05 C129.200212,257.319495 128.210189,257.364029 127.25,257.18 C125.970542,256.94677 124.659458,256.94677 123.38,257.18 C123.048415,257.228283 122.711585,257.228283 122.38,257.18 C119.46,256.97 116.67,257.5 113.81,257.6 C113.499544,257.604963 113.193339,257.673008 112.91,257.8 C112.39,258.04 112.45,258.35 113.1,258.46 C113.61687,258.533585 114.137957,258.573669 114.66,258.58 C116.280907,258.576832 117.899448,258.703908 119.5,258.96 C121.055025,259.164238 122.621622,259.267787 124.19,259.27 L124.19,259.27 Z" id="Shape" fill="#F47E4C" fill-rule="nonzero"></path>
                <path d="M77.36,268.13 C68.47,268.03 55.93,267.97 43.46,267.71 C36.85,267.57 30.32,267.57 23.75,267.71 L20.92,267.71 C18.71,267.71 17.7,267.46 17.57,266.99 C17.44,266.52 18.46,265.99 20.25,265.9 C21.25,265.83 22.39,265.82 23.46,265.83 C30.59,265.83 37.7,265.77 44.84,265.92 C55.59,266.13 66.38,266.17 77.16,266.3 C81.06,266.3 84.95,266.49 88.85,266.53 C105.683333,266.69 122.52,266.69 139.36,266.53 C153.22,266.41 167.1,266.46 180.94,266.27 C191.71,266.12 202.47,266.27 213.22,266.11 C216.84,266.11 220.49,266.11 224.09,265.97 C225.405122,265.895309 226.724364,265.945534 228.03,266.12 C229.47,266.34 230.81,266.55 230.55,267.12 C230.29,267.69 229.55,267.93 227.78,268.12 C226.191711,268.275249 224.594898,268.325358 223,268.27 C216.17,267.95 209.29,268.1 202.43,268.11 C192.61,268.11 182.8,268.22 172.99,268.28 C163.73,268.34 154.46,268.46 145.19,268.45 C132.94,268.45 120.7,268.66 108.44,268.53 C99.28,268.38 90.11,268.41 77.36,268.13 Z" id="Shape" fill="#F47E4C" fill-rule="nonzero"></path>
            </g>
        </g>
    </g>
</svg>