<?xml version="1.0" encoding="UTF-8"?>
<svg width="400px" height="130px" viewBox="0 0 400 130" version="1.1" xmlns="http://www.w3.org/2000/svg" xmlns:xlink="http://www.w3.org/1999/xlink">
    <!-- Generator: Sketch 42 (36781) - http://www.bohemiancoding.com/sketch -->
    <title>Group</title>
    <desc>Created with Sketch.</desc>
    <defs></defs>
    <g id="Page-1" stroke="none" stroke-width="1" fill="none" fill-rule="evenodd">
        <g id="Processicon1">
            <g id="Group">
                <path d="M269.121336,3.63585124 C269.038144,3.6609041 268.94724,3.67829891 268.852639,3.68726732 L268.329387,3.68726732 L267.297024,3.73133825 L265.232299,3.81213494 L261.10285,3.95169287 L252.858092,4.19408295 L236.368576,4.57603096 C225.375566,4.79148881 214.38727,4.98001443 203.403688,5.14160782 L170.438799,5.53824614 L137.47391,5.79532653 C126.485614,5.89081353 115.497317,5.89815868 104.509021,5.94222961 C93.5207249,5.98630053 82.5324286,6.03771661 71.5441324,6.01568115 C49.5675398,6.00833599 27.6050892,6.05975207 5.65678058,5.87612322 L11.3135612,2.93806161 L11.3135612,4.17939264 L9.55995918,2.03460767 C19.8694418,7.05869302 29.9526532,12.2223363 40.1490001,17.312528 C50.3453471,22.4027198 60.3437068,27.5957437 70.3703504,32.7961127 L100.407855,48.3311135 C110.491067,53.4727213 120.531852,58.6657452 130.714057,63.755937 L130.714057,63.755937 C131.1424,63.9778042 131.383139,64.2790862 131.383139,64.5932845 C131.383139,64.9074828 131.1424,65.2087648 130.714057,65.4306321 L130.615064,65.474703 C120.206587,70.4767529 109.939531,75.5595995 99.6441899,80.6204106 C89.3488492,85.6812217 79.1949281,90.8228296 68.9420133,95.9056761 L38.451966,111.3305 L23.3907877,119.086982 C18.2855432,121.657786 13.2510085,124.22859 7.93363476,126.770013 L9.12155868,125.418505 L9.12155868,126.35134 L5.65678058,124.537087 L71.4168548,123.802571 C93.3368795,123.574871 115.256904,123.457349 137.176929,123.332481 L202.937003,123.01664 C224.857028,122.950533 246.777053,122.80363 268.697077,122.825666 L275.485214,126.336649 C276.899409,124.581157 269.121336,122.171947 269.14962,122.847701 C268.45598,122.82226 267.758968,122.854495 267.084895,122.943188 C266.711876,122.993357 266.347621,123.059696 265.995965,123.141507 L265.74141,123.200269 L265.500996,123.266375 L265.359577,123.310446 L265.274725,123.310446 L265.189873,123.310446 L265.189873,123.310446 L265.515138,123.178233 L266.420223,122.781595 L268.357671,121.892831 L272.303275,120.034507 L280.194484,116.237062 L295.96276,108.568722 L327.555879,93.2834562 L359.205567,77.9467745 L390.883538,62.6321284 L390.883538,66.6719631 C380.772043,61.5303553 370.589838,56.3887475 360.506626,51.1957236 C350.423415,46.0026997 340.24121,40.8170209 330.129714,35.5505455 L314.927117,27.6691952 L299.710377,19.7070483 C289.542314,14.3818116 279.331825,9.06392007 269.121336,3.63585124 Z M269.517311,3.01151315 C280.180342,7.80789873 290.843373,12.7071165 301.548831,17.6063342 L317.642371,24.9514882 L333.750054,32.4068196 C344.526221,37.3647985 355.231678,42.4109194 366.007845,47.4276596 C376.784012,52.4443998 387.48947,57.5419367 398.265637,62.6174381 C399.303031,63.1053233 399.924625,63.7873267 399.993586,64.5133194 C400.062547,65.239312 399.573222,65.9497821 398.633327,66.4883343 L398.463624,66.5764761 L398.308062,66.6572728 C388.097573,71.960474 377.788091,77.1975688 367.49275,82.4566991 C357.19741,87.7158294 346.902069,92.9676145 336.493593,98.1606384 L305.282306,113.7544 C300.078068,116.354585 294.788978,118.896008 289.485746,121.474157 L281.424834,125.308328 L277.351952,127.225413 L275.230659,128.194973 L274.056877,128.709134 L273.321496,129.010285 L273.052798,129.113117 L272.685108,129.24533 L272.458837,129.326127 L272.232565,129.392233 L271.921442,129.480375 L271.596177,129.561172 C271.21914,129.651774 270.826028,129.723113 270.422396,129.774181 C269.720962,129.867868 268.99598,129.905027 268.272819,129.884359 C268.272819,130.560113 260.537171,128.128867 261.880657,126.36603 L268.668794,129.877014 C246.748769,129.877014 224.828744,129.759491 202.908719,129.68604 L137.176929,129.370198 C115.256904,129.252675 93.3368795,129.127808 71.4168548,128.900108 L5.65678058,128.165593 L5.51536106,128.165593 C4.60503536,128.156077 3.74024408,127.956989 3.11530075,127.613064 C2.49035742,127.269139 2.15767399,126.809221 2.19200247,126.336649 L2.19200247,125.403815 L2.19200247,125.352399 C2.21387722,124.850998 2.6459088,124.378172 3.37992639,124.052306 C14.0288158,119.336717 24.5928536,114.349358 35.0296137,109.406069 C45.4663739,104.462781 55.8607082,99.4166598 66.2550425,94.4072647 C76.6493768,89.3978697 86.8881497,84.3076779 97.0703547,79.1881056 C107.25256,74.0685332 117.477191,68.9636512 127.517976,63.7632821 L127.517976,65.5114288 C117.18021,60.5461047 106.644456,55.6468869 96.1652698,50.7256337 L64.5297244,36.0353257 C53.9232609,31.1434531 43.4582168,26.2001644 32.9507469,21.3009467 C22.4432769,16.4017289 12.0630846,11.3702984 1.78188588,6.32417762 C0.649722856,5.76534422 0.00607019036,4.99060518 0,4.17939264 L0,2.93806161 C-3.82598476e-16,1.31541499 2.53262693,2.98075349e-16 5.65678058,0 L5.65678058,0 C27.6333731,0 49.5958237,0.242390083 71.5582743,0.374602855 C82.5465706,0.433364088 93.5207249,0.572922014 104.509021,0.675754171 C115.497317,0.778586327 126.471472,0.866728175 137.459768,1.02097641 L170.410515,1.43965019 L203.361262,1.93177551 L236.312009,2.48266206 L252.787382,2.77646822 L261.017998,2.9233713 L265.133306,2.98213254 L269.517311,3.01151315 Z" id="Shape" fill="#000000" fill-rule="nonzero"></path>
                <path d="M269.049891,4.3775752 C267.751855,4.45744688 249.762764,5.03107075 6,4 L6,5.22711941 L129.242909,64.9929174 C129.242909,64.9929174 23.1989818,117.425043 6,125.078202 L6,125.985835 L268.429091,125.985835 C268.429091,127.074994 394,64.9929174 394,64.9929174 L269.049891,4.3775752 Z" id="Shape" fill="#D3BB72" fill-rule="nonzero"></path>
                <text id="GENERAL" font-family="Courier" font-size="35" font-weight="bold" letter-spacing="6" fill="#FFFFFF">
                    <tspan x="151" y="75">GENERAL</tspan>
                </text>
            </g>
        </g>
    </g>
</svg>
