<?xml version="1.0" standalone="no"?>
<!DOCTYPE svg PUBLIC "-//W3C//DTD SVG 1.1//EN" "http://www.w3.org/Graphics/SVG/1.1/DTD/svg11.dtd" >
<svg xmlns="http://www.w3.org/2000/svg">
<metadata></metadata>
<defs>
<font id="versiontype_proregular" horiz-adv-x="485" >
<font-face units-per-em="2048" ascent="1638" descent="-410" />
<missing-glyph horiz-adv-x="204" />
<glyph horiz-adv-x="0" />
<glyph horiz-adv-x="682" />
<glyph unicode=" "  horiz-adv-x="204" />
<glyph unicode="&#x09;" horiz-adv-x="204" />
<glyph unicode="&#xa0;" horiz-adv-x="204" />
<glyph unicode="!" horiz-adv-x="215" d="M31 1413q0 29 30 42q30 14 44 -7q6 -9 6 -23q0 -193 2 -546.5t2 -544.5q0 -30 -29 -43q-26 -12 -38 9q-5 9 -5 22q-3 192 -6 545.5t-6 545.5zM37 -2v156q0 23 22.5 32.5t45 0t22.5 -32.5q0 -27 3 -79.5t3 -76.5q0 -22 -22.5 -31t-46.5 0t-27 31z" />
<glyph unicode="&#x22;" horiz-adv-x="352" d="M31 1200v166q0 20 23.5 27t47 -3.5t23.5 -35.5q0 -97 4 -154q0 -21 -24.5 -29t-49 1t-24.5 28zM193 1397q0 22 24.5 31t49 -1t24.5 -34v-156q2 -19 -20.5 -27t-46 0t-23.5 27q0 111 -8 160z" />
<glyph unicode="#" horiz-adv-x="536" d="M39 498q7 14 23.5 21t31.5 5q9 -1 26.5 -2t26.5 -2q10 236 13 406q-14 -1 -42 -2t-42 -2q-11 -4 -25.5 1t-11.5 17q3 13 18.5 21t30.5 8q46 4 72 4q0 111 -6 219q0 11 14 17.5t27.5 3.5t13.5 -17q6 -111 6 -221q146 6 152 6q0 31 -5 211q-1 11 12 17.5t27.5 3.5t16.5 -17 q4 -74 4 -215h59q12 0 21.5 -9t3.5 -20q-16 -22 -55 -22h-29q0 -93 -14 -408q6 0 17.5 1t16.5 1q17 0 28.5 -6t10.5 -22q-1 -13 -16 -23t-29 -10q-5 0 -15.5 -1t-14.5 -1q-1 -41 -5.5 -121.5t-5.5 -120.5q0 -12 -13.5 -19t-26.5 -4t-13 17q4 160 8 246q-24 0 -75.5 -2 t-75.5 -2q-2 -39 -5.5 -117t-5.5 -117q0 -13 -13 -19.5t-26.5 -3t-13.5 16.5q4 160 8 244q-13 1 -38.5 2t-38.5 2q-13 2 -22 12t-5 23zM201 520q77 -3 151 0q15 257 15 410q-49 -2 -152 -2q0 -172 -14 -408z" />
<glyph unicode="$" horiz-adv-x="481" d="M35.5 91q8.5 21 32.5 18h125q-2 92 -6.5 281t-6.5 286q-47 0 -61 2q-19 -11 -35 -2.5t-16 35.5v710q0 22 13 33.5t52 11.5q21 -8 78 -8l4 84q0 20 29 28q32 9 41 -9q3 -5 2 -13l-2 -90q15 -1 44 -2.5t51.5 -2.5t39.5 -1q25 0 27 -28q3 -31 -22 -47q-11 -7 -24 -7h-120 q-4 -135 -27 -612q105 0 121 -8q26 -15 26 -33q0 -66 -4.5 -297.5t-1.5 -349.5q0 -21 -10 -36.5t-29 -15.5h-12h-6l-68 2q0 -12 1 -35t1 -36q0 -16 -19 -25t-37.5 -4t-18.5 23l-2 80q-29 0 -73.5 1t-53.5 1q-20 0 -30.5 22.5t-2 43.5zM145 762q16 -4 35 -4q4 46 4 67 q0 81 13 289l10 258q-13 1 -35.5 -0.5t-26.5 -1.5v-608zM252 674q0 -48 4 -143t4 -140q4 -94 8 -282h43q0 96 6.5 289.5t6.5 273.5q-18 2 -72 2z" />
<glyph unicode="%" horiz-adv-x="542" d="M63 1143v252v6q0 12 19.5 20t36.5 2h92q25 0 25 -18v-250q0 -16 -17.5 -23.5t-32.5 -7.5h-96q-27 0 -27 19zM137 1176h33v206h-33v-206zM143 -23q52 387 86 707q15 131 49 394.5t50 394.5q0 20 27 28q28 9 38 -8q3 -6 2 -14q-16 -132 -44 -385.5t-42 -372.5 q-15 -122 -45.5 -369.5t-46.5 -369.5q-4 -21 -35 -28q-33 -7 -39 13q-1 4 0 10zM309 12v252q0 12 18 20.5t38 8.5h90q10 0 17 -5t7 -14v-256q0 -12 -16.5 -18t-30.5 -6h-98q-25 0 -25 18zM383 35h29v211h-29v-211z" />
<glyph unicode="&#x26;" horiz-adv-x="464" d="M33 -2q-11 270 26 461q6 30 17 66.5t18 56.5t26 67.5l23 57.5q-60 206 -84 305q-26 119 -26 172q1 26 5 82t5 84q0 20 49 28q94 8 279 8q26 0 26 -6q-1 -26 -2 -86.5t-3 -95t-11.5 -83.5t-26.5 -87q-19 -40 -52.5 -117.5t-49.5 -111.5q-29 -66 -33 -76q5 -20 16 -53.5 t15 -46.5q67 -234 106 -408q16 -91 17 -104v448q0 17 31 25q29 7 30 -6v-543q0 -23 -28 -29h-11q4 -17 8 -47q3 -15 -33 -24t-40 6l-11 59q-25 -1 -80.5 -1t-97 -1.5t-80.5 -5.5q-1 0 -4.5 -0.5t-7 -0.5t-7.5 0.5t-6.5 2t-2.5 4.5zM104 59q35 4 211 9q-5 22 -15.5 63 t-16.5 72q-34 159 -109 407q0 1 -1 3t-1 3q-5 -15 -14 -43.5t-16 -51.5t-11 -44q-33 -184 -27 -418zM106 1198q2 -71 27 -174q27 -105 57 -213q15 34 45 100.5t46 100.5q13 30 22 61t12.5 67t5 59t2 69.5t1.5 66.5q-35 -1 -105.5 -2t-105.5 -2q0 -26 -3.5 -68t-3.5 -65z" />
<glyph unicode="'" horiz-adv-x="143" d="M25 1487q0 22 24.5 31t49 -1t24.5 -34v-156q2 -19 -20.5 -27t-46 0t-23.5 27q0 111 -8 160z" />
<glyph unicode="(" horiz-adv-x="301" d="M32.5 855.5q2.5 60.5 9.5 150t9 118.5q0 9 3 19t9 24.5t7 16.5q21 70 45 141l67 213q8 26 44 29q35 2 43 -20q2 -8 -1 -19l-127 -395v-3v-10q-1 -7 -2 -22.5t-2 -22.5q-4 -94 -8 -141q-1 -16 -3.5 -50t-3 -51t0.5 -51l24 -540q1 -19 3.5 -52.5t3.5 -48.5v-16q2 -2 2 -4 q54 -109 110 -217q11 -20 -6.5 -38t-40.5 -18.5t-35 15.5q-20 42 -58.5 118t-47.5 93q-15 30 -17 47q0 13 -1 38t-1 38q-10 180 -26 540q-3 58 -0.5 118.5z" />
<glyph unicode=")" horiz-adv-x="415" d="M114 -32q-2 7 1 16q78 246 118 366v15q1 8 2.5 24.5t2.5 24.5q2 43 10 129q3 49 0 98q-4 90 -11.5 270.5t-11.5 270.5q-1 14 -2 42.5t-2 43.5v10q0 1 -1 3t-1 3l-102 201q-9 18 7 34.5t37 17t32 -14.5l98 -195q14 -25 14 -43q2 -20 2 -63q4 -86 11.5 -258t11.5 -258 q5 -100 4 -123q-15 -194 -17 -226q-1 -10 -18 -55q-6 -21 -41 -129q-11 -37 -32.5 -103.5t-30.5 -95.5q-8 -24 -42 -26q-33 -2 -39 21z" />
<glyph unicode="*" horiz-adv-x="206" d="M43.5 1442q-0.5 8 11.5 8h33l-29 29q-8 6 0 13q4 4 9 -1q25 -20 34 -29v35q0 15 7.5 15t7.5 -15v-41q21 21 33 35q3 3 7.5 2.5t5.5 -4t-3 -10.5q-27 -27 -27 -29h39q12 0 12 -9q1 -7 -6 -7h-49q3 -2 10.5 -6.5t14 -9.5t10.5 -9q9 -9 2 -15q-5 -4 -10 1q-33 22 -37 24v-43 q0 -5 -8.5 -6t-8.5 6v39q-20 -25 -26 -33q-5 -3 -11 1.5t-2 11.5q8 11 16 20t11 12.5t4 6.5h-43q-7 0 -7.5 8z" />
<glyph unicode="+" horiz-adv-x="786" d="M52 614q0 32 30 51q17 11 37 11q38 0 112 -1t111 -1v250q0 24 20.5 35.5t42 0t23.5 -44.5q3 -39 -0.5 -121.5t-1.5 -119.5q45 0 134.5 -1t133.5 -1q50 0 33 -45q-14 -39 -74 -39q-147 0 -223 2v-281q1 -23 -23 -29q-30 -7 -50 24q-11 18 -13 44q-1 42 0.5 128.5 t1.5 113.5q-44 0 -134.5 -1t-135.5 -1q-24 0 -24 26z" />
<glyph unicode="," horiz-adv-x="227" d="M32 -80q-2 5 1 12q39 109 45 127q5 21 36 22q29 2 32 -16q2 -5 -1 -12q-6 -16 -14 -41t-15.5 -45.5t-15.5 -40.5q-5 -21 -36 -22q-29 -2 -32 16z" />
<glyph unicode="-" horiz-adv-x="462" d="M103.5 542.5q-10.5 9.5 0.5 28.5q7 14 20 25.5t21 11.5h230q9 0 19 -13.5t3 -23.5q-8 -14 -20 -23.5t-22 -14t-27.5 -7t-26 -3t-29.5 0t-26 0.5q-68 0 -105 4q-27 5 -37.5 14.5z" />
<glyph unicode="." horiz-adv-x="278" d="M27 100q0 25 25 49.5t57 24.5h22q20 0 45 -22q23 -23 23 -52q0 -44 -23 -67q-9 -11 -37 -23h-45q-7 2 -13 5t-10 5.5t-9 7t-7 7l-6 7.5t-6 7q-16 24 -16 51z" />
<glyph unicode="/" horiz-adv-x="454" d="M123 -131l98 821q65 532 109 912q4 23 38 30q36 8 44 -12q3 -5 2 -12q-19 -145 -53.5 -436.5t-53.5 -436.5l-51 -429l-51 -429q-2 -23 -36 -31q-33 -8 -44 10q-3 5 -2 13z" />
<glyph unicode="0" horiz-adv-x="428" d="M29 -37l10 47q-2 6 -2 19q0 113 3 341.5t3 344.5q0 113 -3 341t-3 341q0 29 8.5 36.5t50.5 4.5h111q4 0 24 1t38.5 1.5t43.5 -0.5l4 22q4 16 25 23.5t39.5 1t15.5 -24.5l-10 -51v-14q-3 -24 -3 -51.5t1.5 -59.5t1.5 -47v-1210q-2 -16 -7.5 -26t-17 -13t-20 -4t-25.5 0.5 t-24 1.5h-182l-5 -23q-2 -23 -35 -28q-32 -5 -41 13q-3 6 -1 13zM119 1350l6 -512q3 -62 3 -130.5t-1.5 -151.5t-1.5 -128l53 258q23 109 42 214t42 243t35 207h-178zM129 76h43q16 0 59.5 3t67.5 3q17 361 10 885q-21 -116 -47 -244q-25 -137 -74.5 -371t-58.5 -276z" />
<glyph unicode="1" horiz-adv-x="499" d="M35.5 7.5q-9.5 23.5 0 47t32.5 23.5h168q0 218 -3.5 653.5t-3.5 652.5q-8 -6 -127 -100q-25 -20 -43 2q-19 25 -1 58q6 10 14 18q10 8 33.5 30t40.5 36.5t46 30.5t60 22q19 5 39 -9.5t20 -33.5q0 -226 3 -679t3 -681h121q20 0 27.5 -22.5t-2 -45t-31.5 -22.5 q-311 0 -364 -4q-23 0 -32.5 23.5z" />
<glyph unicode="2" horiz-adv-x="448" d="M26.5 1415.5q4.5 21.5 26.5 24.5q47 6 154 6l110 2q39 0 48.5 -7t9.5 -30q3 -123 6 -365.5t6 -365.5q0 -8 -2 -14t-4.5 -9t-8 -4.5t-8.5 -1.5h-10h-8q-27 -7 -89.5 -8.5t-78.5 -3.5v-549q70 6 209 6q21 0 28.5 -21.5t-1 -43t-27.5 -21.5q-53 -6 -264 -6q-41 0 -17 82v600 q0 18 23 29q19 10 95 11.5t98 6.5q-2 131 -17 627h-63q-32 0 -91 -3t-79 -3q-22 0 -36 20t-9.5 41.5z" />
<glyph unicode="3" horiz-adv-x="503" d="M28 27q-16 36 3 49q5 4 14 4q217 0 315 -6q0 160 13 567q-39 3 -84.5 3t-104 -1.5t-92.5 -1.5q-31 0 -44 35q-13 33 5 48q7 5 17 5q199 0 303 -6v47q11 199 0 590h-297q-27 0 -45 31q-19 30 2 41q7 4 18 4q227 0 350 6q20 0 37 -15t17 -36q11 -426 0 -639 q-13 -533 -13 -732q0 -12 -1.5 -15.5t-12.5 -12.5q-25 -6 -37 -6q-29 0 -145 4.5t-176 1.5q-26 0 -42 35z" />
<glyph unicode="4" horiz-adv-x="468" d="M31 698q0 113 3 341t3 345q0 24 22 30t44 -7t22 -35q-12 -430 -12 -627q9 0 110.5 -3t132.5 -3q0 120 -3 353.5t-3 349.5q0 26 29 29q31 3 47 -20q6 -10 6 -21q1 -95 5.5 -340.5t5.5 -375t-1 -327t-10 -360.5q-3 -22 -25 -28.5t-42.5 5.5t-20.5 33q12 209 12 620h-161 h-111q-21 -11 -37 3.5t-16 37.5z" />
<glyph unicode="5" horiz-adv-x="428" d="M27 9q-9 23 0 44.5t30 18.5h222q-15 463 -19 571q-21 3 -81 3t-81 3q-12 -10 -29.5 -2.5t-17.5 31.5v729q0 21 12 32.5t48 8.5q29 -6 108 -6q105 0 152 -6q21 0 26 -21.5t-7.5 -43t-31.5 -21.5q-51 4 -174 4h-63v-617q22 -8 98 -7t92 -11q19 -9 19 -29q10 -348 16 -653 v-6q0 -20 -9 -34.5t-26 -10.5h-10h-6h-238q-21 0 -30 23z" />
<glyph unicode="6" horiz-adv-x="409" d="M25.5 730.5q-1.5 136.5 2 331.5t13.5 359q0 20 20 24t37 -5q130 9 244 -6q24 -4 34 -34q11 -32 -10 -43q-8 -4 -20 -3q-80 4 -223 4q-12 -213 -12 -645q41 6 114 6q57 0 88 6h17h6q25 11 40.5 -6t10.5 -41q0 -121 -3 -319.5t-3 -319.5v-29q0 -6 -6 -6v-12q0 -4 -4 -4 q-6 -6 -25 -6q-33 4 -65 5.5t-52.5 1.5t-63 -0.5t-67.5 -0.5q-20 -5 -41.5 5t-21.5 34q-1 109 -4.5 338t-5 365.5zM111 627q0 -91 3 -277t3 -282q92 8 184 0q0 107 3 284t3 281h-53q-18 0 -68 -3t-75 -3z" />
<glyph unicode="7" horiz-adv-x="481" d="M34 1402q-17 31 2 42q7 4 17 4h344q18 4 33.5 -10t20.5 -37q12 -451 0 -676q-13 -537 -13 -741q0 -31 -31 -28q-29 2 -45 26q-6 10 -6 20q0 470 13 741q12 213 0 627h-291q-27 0 -44 32z" />
<glyph unicode="8" horiz-adv-x="413" d="M23 29l12 731v10q6 209 6 621q-23 59 16 59q27 0 70.5 0.5t68 1t60.5 -1.5t70 -6q24 5 45.5 -5t17.5 -30q-12 -238 -12 -709v-28q0 -110 3 -330.5t3 -331.5q0 -2 -0.5 -4t-1 -3.5t-2.5 -3t-3 -2.5t-3.5 -2.5t-3.5 -2t-4.5 -2t-4.5 -2.5h-6h-161h-31h-17h-63q-41 0 -53 10 q-6 12 -6 31zM104 80h54h145q-6 186 -6 551q-31 -3 -69.5 -3t-72.5 1.5t-38 1.5q-3 -92 -6.5 -275t-6.5 -276zM117 725q8 0 25.5 -3t25.5 -3q20 3 65 6t58 4q0 424 12 633q-59 6 -176 6q-1 -69 -4 -295t-6 -348z" />
<glyph unicode="9" horiz-adv-x="409" d="M25 682q3 121 6 360.5t6 360.5q-13 19 -11 36t23 17q27 0 68.5 0.5t64.5 1t57.5 -1.5t69.5 -6q19 5 41.5 -5t22.5 -30q0 -122 3 -361.5t3 -361.5q7 -10 0 -10q6 -335 -12 -672q0 -20 -21 -23.5t-43 7.5q-23 0 -60 -0.5t-58.5 -1t-54 1.5t-64.5 6q-25 2 -35 35 q-11 33 8 43q8 5 20 2q82 -6 226 -6q12 190 12 573q-18 0 -54 -3t-50 -3h-87h-22q-24 -12 -41.5 3.5t-17.5 37.5zM106 733h52q92 0 139 6q-3 103 -6 314.5t-6 314.5q-57 6 -166 6q-3 -108 -6.5 -320.5t-6.5 -320.5z" />
<glyph unicode=":" horiz-adv-x="253" d="M41 391q0 25 25 49.5t57 24.5h22q19 0 45 -23q23 -23 23 -51q0 -44 -23 -67q-10 -11 -36 -23h-45q-7 2 -13.5 5t-10 5.5t-9 7t-7 6.5t-6.5 8t-6 7q-16 24 -16 51zM41 698q0 25 25 49.5t57 24.5h22q20 0 45 -22q23 -23 23 -52q0 -44 -23 -67q-10 -11 -36 -23h-45 q-7 2 -13.5 5t-10 5.5t-9 7t-7 6.5t-6.5 8t-6 7q-16 24 -16 51z" />
<glyph unicode=";" horiz-adv-x="227" d="M27 608q0 25 25 49.5t57 24.5h22q19 0 45 -23q23 -23 23 -51q0 -44 -23 -67q-9 -11 -37 -23h-45q-7 2 -13 5t-10 5.5t-9 7t-7 7l-6 7.5t-6 7q-16 24 -16 51zM32 -80q-2 5 1 12q39 109 45 127q5 21 36 22q29 2 32 -16q2 -5 -1 -12q-6 -16 -14 -41t-15.5 -45.5t-15.5 -40.5 q-5 -21 -36 -22q-29 -2 -32 16z" />
<glyph unicode="&#x3c;" horiz-adv-x="870" d="M51.5 569.5q-5.5 25.5 14.5 34.5q50 24 161 70q160 71 269 110q57 19 147.5 48.5t147.5 48.5q19 7 27 -18q9 -28 -8 -45q-4 -3 -9 -5q-82 -23 -105 -35q-8 -3 -209 -69q-8 -3 -24.5 -8.5t-24.5 -8.5h-2q-3 -1 -10 -4t-10 -4q-153 -67 -238 -102q10 -3 30 -9.5t30 -9.5 q175 -46 303 -86q192 -57 250 -76q23 -7 24 -37q1 -27 -17 -31q-4 -1 -10 1q-117 37 -114 37q-50 15 -149.5 43t-149.5 43q-181 53 -299 82q-19 5 -24.5 30.5z" />
<glyph unicode="=" horiz-adv-x="557" d="M27 500q0 18 16 28.5t29 10.5h426q9 0 19 -15.5t5 -27.5q0 -61 -153 -50l-207 13q-3 0 -22.5 -1.5t-40 -1.5t-36.5 3q-20 3 -28 12t-8 29zM31 684q0 60 153 49l207 -12q3 0 22 1.5t39.5 1.5t36.5 -3q20 -3 28.5 -12t8.5 -29q0 -18 -16 -28.5t-29 -10.5h-426 q-9 0 -19 15.5t-5 27.5z" />
<glyph unicode="&#x3e;" horiz-adv-x="878" d="M52.5 341q3.5 19 19.5 24q93 26 106 32q89 30 211 64q8 3 24.5 8t24.5 8h2q3 1 10.5 4t10.5 4q176 72 239 97q-10 3 -29.5 9t-29.5 9q-267 83 -301 94q-158 51 -248 82q-22 7 -23 37q-2 28 17 32q5 1 10 -1q24 -8 54 -18.5t46 -15.5t15 -5q72 -24 297 -94 q147 -47 297 -90q18 -5 22.5 -31t-14.5 -35q-28 -12 -82.5 -33.5t-81.5 -32.5q-176 -72 -270 -102q-75 -22 -297 -90q-16 -5 -24.5 10t-5 34z" />
<glyph unicode="?" horiz-adv-x="374" d="M14 1378q-11 35 7 49q6 5 14 5h155q78 0 103 4q36 0 46.5 -10.5t10.5 -34.5q0 -116 -3 -354.5t-3 -358.5q0 -23 -16.5 -30.5t-28.5 1.5q-21 -2 -81 -2t-81 -2q-2 -73 -8 -188.5t-8 -223.5q-3 -27 -21 -34t-34 6t-13 35q2 108 8 235.5t9 214.5q0 21 16 27q22 13 96.5 13 t91.5 5q7 239 7 608h-64h-164q-28 0 -39 35zM57 10q0 17 3 51t3 48q0 20 31 20t31 -20v-99q0 -14 -17 -19.5t-34 0t-17 19.5z" />
<glyph unicode="@" horiz-adv-x="612" d="M51 1421q0 8 15.5 16.5t25.5 8.5q143 4 434 4q35 0 35 -16v-463v-856q0 -16 -22 -25t-37 -4q-9 5 -40 21t-48 26q-132 -12 -203 -12q-35 0 -35 18v291q-3 148 -6 442.5t-6 442.5q0 8 14 15t27 7h203q14 5 24 0.5t10 -16.5q7 -112 7 -281q12 -582 12 -866q24 -12 28 -12 v409v832q-61 0 -182 -3t-184 -3q0 -92 3 -275.5t3 -275.5q0 -70 -2.5 -261t-1 -320t9.5 -226q207 0 307 4q31 0 31 -21q0 -19 -25 -29q-6 -2 -12 -3q-225 0 -338 -4q-35 0 -35 22v576q-3 140 -6 419t-6 418zM236 1030q3 -144 6 -430.5t6 -431.5q24 3 72.5 6t74.5 6 q-6 84 -6 250q-12 570 -12 860h-141v-260z" />
<glyph unicode="A" horiz-adv-x="423" d="M29 23q13 205 34 649q-9 15 3 39q20 566 22 671q0 14 12 33t23 19q31 3 103.5 11.5t109.5 10.5q16 0 25.5 -13t9.5 -28q10 -454 22 -1399q0 -24 -16 -36q-10 -7 -19 -8q-7 0 -14 4q-17 8 -20 36l-9 660q-6 -6 -16 -6q-60 0 -170 -4q-5 -130 -29 -633q0 -24 -18 -36.5 t-35.5 -4.5t-17.5 35zM133 745q18 1 82.5 4.5t99.5 6.5q-2 196 -14 608q-133 -17 -145 -18z" />
<glyph unicode="B" horiz-adv-x="505" d="M41 1430q0 23 33 32q50 6 114 6q2 0 4 -1q61 1 130 -11q71 -12 104 -37q12 -8 20 -24.5t13.5 -51t8 -59t7.5 -82.5q0 -46 -10 -203q-2 -18 -5 -35.5t-9 -36t-10.5 -31.5t-14 -33t-14 -29.5t-17.5 -31t-17 -28.5t-19.5 -31.5t-18.5 -29.5q1 -1 12 -8.5t14 -9.5t12.5 -8.5 t13 -10l10.5 -10.5t10 -11.5t7 -11.5t5.5 -13.5t1.5 -13.5q9 -63 27 -243q1 -14 5 -58t4 -63.5t-5 -56.5q-10 -29 -26.5 -90t-31.5 -95q-10 -17 -24.5 -27t-24.5 -10l-258 37q-13 4 -18 6t-11 8t-6 13q-25 414 -25 855q0 264 9 538zM125 1399q-6 -228 -6 -449 q0 -453 26 -876q30 -4 92.5 -10.5t92.5 -10.5l45 156q3 11 3 25q0 21 -6 51q-10 50 -10 59l-18 246l-2 18q-68 44 -86 60q-15 15 -16.5 20.5t4.5 20.5q16 23 41 65t28 47q7 20 18.5 50t19.5 50t17 47t14.5 50t9.5 49q4 23 4 47v6q0 27 -5 54q-3 28 -29 149l-6 37 q-21 14 -109 28q-77 12 -112 11h-10z" />
<glyph unicode="C" horiz-adv-x="489" d="M30 265q0 115 1.5 255t1.5 215q3 71 6 211t6 211q0 66 13.5 138t33.5 108q8 35 51 35l271 18q31 0 30 -23q-1 -25 -27 -40q-13 -7 -26 -7l-221 -16q-21 -80 -29.5 -146t-13.5 -167q0 -188 -12 -582q0 -31 -1 -108q-1 -51 -1 -93q1 -21 1 -39q0 -55 3 -108l4 -47 q30 -10 121 -10h184q32 0 32 -25q0 -24 -25 -39q-11 -6 -23 -6q-29 0 -89 -2q-61 -4 -97 -4h-4q-35 0 -81 8q-49 8 -88 23q-18 6 -18 22q-3 103 -3 218z" />
<glyph unicode="D" horiz-adv-x="468" d="M31 14v703q0 123 3 368.5t3 368.5q5 20 33 26q13 2 22 3q13 0 21 -4q69 -40 202 -103q29 -13 56 -168q49 -306 53 -452q14 -243 14 -305q7 -60 -170 -392q-7 -18 -35.5 -30.5t-69.5 -22t-50 -12.5q-25 -13 -46 -13q-5 0 -11 1q-26 4 -25 32zM119 70l74 22l10 29 q81 166 121 244l24 59v68q-3 85 -6 149.5t-5 104t-8 100.5t-9 85t-14.5 114t-16.5 133q-2 23 -10.5 63.5t-10.5 56.5q-39 30 -62 44t-83 42q-9 -139 -9 -345q0 -151 5 -339v-630z" />
<glyph unicode="E" horiz-adv-x="516" d="M33 719q-2 73 -2 173q0 199 8 501q0 15 17.5 29t33.5 14q125 -6 369 -6q26 0 26 -21q0 -26 -26 -43q-12 -8 -23 -8q-209 0 -315 6q-6 -210 -6 -367t6 -262q35 4 71 6t59.5 1.5t65.5 -1t68 -0.5q27 0 23 -30t-27 -44q-11 -6 -21 -5q-136 0 -239 -7q10 -317 10 -583 q230 0 318 6q30 4 31.5 -26t-21.5 -48q-8 -7 -17 -8q-98 -10 -321 -10q-18 0 -41 -1q-10 0 -16 -0.5t-8 0.5q-5 1 -5 7q0 358 -18 727z" />
<glyph unicode="F" horiz-adv-x="518" d="M31 924v209q0 110 4 167q0 30 22 103q8 31 54 31q64 0 182 -8.5t164 -10.5q10 0 21 -9t11 -20v-75q0 -19 -21.5 -30t-43 -5.5t-21.5 24.5v43q-178 13 -270 13q-13 -26 -14.5 -32t-1.5 -36v-207v-284q28 0 75.5 2t77.5 2q23 0 35.5 -18.5t5 -38t-34.5 -21.5l-159 -10 q5 -143 6 -176v-519q0 -19 -22 -29q-13 -6 -27 -6l-17 2q-22 6 -22 27v330q0 88 -2 284.5t-2 297.5z" />
<glyph unicode="G" horiz-adv-x="440" d="M20 918q-1 26 -1 86.5t1 155.5v220q0 25 14 42.5t32 17.5h270q18 0 24.5 -21.5t-2.5 -43t-28 -21.5h-236v-129v-185v-190v-144q1 -122 12.5 -299t34.5 -327q34 -2 100.5 -4t100.5 -4q-7 96 -15 277t-16 300q-14 1 -38.5 2.5t-44.5 2.5t-38 1q-22 0 -29.5 22.5t3 44 t31.5 19.5q104 0 155 -6q29 0 29 -47q10 -215 20 -354q11 -112 11 -309q0 -13 -11 -26t-24 -13q-90 4 -262 4q-12 4 -20.5 15t-8.5 20q-18 111 -31 236t-19.5 209t-10 240.5t-3.5 207.5z" />
<glyph unicode="H" horiz-adv-x="432" d="M31 1417q0 30 29 40q9 3 16 3q15 0 21 -13l3 -13q4 -121 11 -362.5t10 -362.5q69 0 205 12q-1 46 -1 117q-1 89 1 217q1 105 2 182q0 92 -2 145q-3 26 26 46q27 18 39 0q4 -6 4 -17q5 -108 5 -220t-2.5 -246t-2.5 -212q3 -104 3 -220t-1.5 -259t-1.5 -223 q0 -22 -17.5 -35t-34.5 -5.5t-17 34.5v626q-152 -15 -203 -16q10 -320 35 -604q4 -31 -25 -46q-11 -6 -20 -6q-10 0 -17 9l-4 12q-61 657 -61 1417z" />
<glyph unicode="I" horiz-adv-x="428" d="M43 44q4 34 26 48q7 4 13 4q19 0 55.5 3t44.5 3q6 96 6 414v172q-2 466 -12 653v17h-104q-20 0 -21.5 21.5t8.5 43t17 21.5h272q16 -2 23 -17t4.5 -31.5t-11 -30t-20.5 -13.5h-98q8 -275 11 -655q1 -104 0 -195q0 -244 -5 -400q12 0 51 3.5t64 3.5q20 0 20 -26v-7 q-4 -37 -28 -51q-7 -5 -15 -5q-45 -4 -127 -4q-17 -10 -33 0q-12 0 -53 -3t-65 -3t-24 26q0 4 1 8z" />
<glyph unicode="J" horiz-adv-x="468" d="M31 129q0 41 32 47q15 3 25 -5.5t10 -23.5v-71q6 -3 80 -4h9q66 0 81 8q3 2 5 11t3 26.5t2 34.5t1 43.5v45.5v49.5v45.5q4 166 8 502q0 170 4 510h-58q-17 3 -22 22t6 37.5t33 19.5q82 0 162 3q20 0 26 -19q1 -7 1 -13q0 -13 -7 -26q-10 -20 -29 -22q-9 0 -24 -1t-21 -1 q0 -43 -1 -131t-1 -132q-4 -454 -8 -679q-5 -258 -8 -308q0 -27 -37 -80q-6 -9 -15 -13.5t-15.5 -5t-20 -1t-19.5 -0.5q-28 0 -87 -1t-89 -1q-10 0 -17 10t-7 21q0 65 -2 102z" />
<glyph unicode="K" horiz-adv-x="405" d="M31 659v764q0 20 20.5 32t41 6t20.5 -31v-717q33 15 141 65q12 441 41 656q4 28 25 32q4 1 7 1q17 1 33 -13t15 -31v-6q-37 -520 -41 -684l-17 -18l-61 -35l43 -21l14 -20l4 -10q5 -110 20.5 -310.5t20.5 -289.5q3 -31 -25 -50q-13 -9 -22 -9q-10 0 -18 10q-5 7 -6 20 q-4 88 -17.5 281t-17.5 303q-12 5 -37.5 17.5t-44 21t-23.5 8.5q-4 0 -34 -15q1 -43 6 -128.5t6 -108.5q10 -276 16 -340q7 -25 -25 -43t-49 -2q-7 6 -8 16q-7 52 -11 114.5t-6.5 145.5t-4.5 115q0 46 -3 136.5t-3 137.5z" />
<glyph unicode="L" horiz-adv-x="348" d="M31 758q1 186 18 676q1 28 21 38q10 5 19 5t19 -5q19 -10 19 -34q-11 -225 -23 -748q0 -222 5 -334l12 -270q106 -4 158 -4q19 0 31 -22q7 -14 8 -27q0 -8 -3 -17q-7 -22 -30 -22q-125 0 -191 6q-18 0 -34.5 10.5t-16.5 22.5q-12 500 -12 697v28z" />
<glyph unicode="M" horiz-adv-x="507" d="M30 451q-1 96 0 209q0 151 1 331q2 315 2 428v13q1 18 19 32q17 12 34 12h4q20 -2 23 -20q10 -10 34 -133l54 -231q7 -26 26 -99t29 -108q15 37 35 114.5t24 90.5l91 346q7 21 23.5 30t31 0t14.5 -34q-5 -127 -5 -327q0 -167 4 -385q3 -184 3 -332q0 -237 -8 -380 q0 -27 -29 -37q-11 -4 -19 -4q-15 0 -23 13q-5 8 -5 18q8 184 8 405q-1 14 -1 28q0 238 -5.5 437.5t-9.5 204.5q-10 -18 -72 -260q-18 -70 -32 -96q-7 -13 -36.5 -9.5t-37.5 27.5q-15 47 -28 97t-28.5 114t-25.5 101q-9 -9 -12 -390q-1 -95 -1 -182q0 -261 7 -448 q0 -26 -31 -38q-32 -13 -45 6q-4 7 -4 17q-7 214 -9 439z" />
<glyph unicode="N" horiz-adv-x="464" d="M31 8q17 842 17 1244q0 96 -1 167q0 13 12 25q6 10 33 10q25 0 31 -16q23 -101 41 -203q68 -301 153 -703q10 -49 31 -122q4 0 4 6v547q0 79 2 237t2 238q0 17 15.5 29t34.5 12q9 0 18.5 -6.5t9.5 -18.5q0 -81 -3 -241t-3 -236q0 -640 6 -957q0 -12 -17.5 -26t-35.5 -14 q-25 0 -25 16q-176 794 -204 924l-17 98h-12q0 -196 -9 -566.5t-10 -424.5q0 -17 -15.5 -26t-35.5 -9q-10 0 -13.5 0.5t-6 4t-2.5 11.5z" />
<glyph unicode="O" horiz-adv-x="462" d="M31 446q-1 55 -1 114q0 184 8 408q10 294 9 433q0 17 15 31t32 14h46h48t42.5 -0.5t46 -2t41.5 -4t46.5 -6.5t43.5 -10q9 0 16.5 -6.5t7.5 -15.5q-4 -150 -4 -285q0 -86 2 -166q1 -66 1 -137q-1 -151 -7 -325q-10 -256 -39 -461q0 -25 -58 -35q-49 -9 -102 -9h-20 q-64 2 -111 9q-35 0 -35 22q-25 204 -28 432zM113 472q2 -217 24 -411q41 -6 133 -6h41q26 193 32 433q3 120 3 228t-3 205q-3 89 -3 189q0 117 4 250q-74 18 -215 18q0 -135 -9 -412q-7 -227 -8 -413q1 -42 1 -81z" />
<glyph unicode="P" horiz-adv-x="417" d="M31 1389q-1 4 -1 8q0 17 10 31q12 18 34 22h68.5t73.5 2h12q24 0 56 -2q39 -2 72 -6q31 -10 31 -37q-5 -173 -31 -668q-9 -39 -48 -51q-28 -9 -62 -8q-14 0 -28 1q-23 2 -49 2q-30 0 -63 -3q-1 -111 -1 -223q0 -223 4 -447q0 -27 -27 -43q-11 -6 -20 -6q-13 0 -20 14 q-4 8 -5 19q-4 181 -4.5 364.5t4.5 368.5q4 142 4 273q0 209 -10 389zM106 1360q7 -168 7 -337q0 -127 -4 -255l6 2q28 2 86.5 4t87.5 4q23 460 26 580q-43 4 -109 4q-45 0 -100 -2z" />
<glyph unicode="Q" horiz-adv-x="468" d="M30 737q0 120 4.5 318.5t14.5 361.5q5 14 20 24.5t33 10.5h273q35 0 35 -29q25 -204 28 -433v-94q0 -194 -8 -430q-10 -296 -10 -439q0 -21 -13.5 -33t-31.5 -12q-52 -3 -101 -3q-73 0 -140 7q-110 10 -103 41q0 78 -1 334q-1 171 -1 281q0 55 1 95zM115 66 q72 -19 157 -19h23q-8 9 -52 57t-67 74q-22 24 5 42q27 17 54 5q6 -3 11 -8q2 -2 94 -106q1 98 7 308t7 335q1 28 1 60q0 105 -4 242q-5 178 -21 326h-201q-14 -23 -14 -1316z" />
<glyph unicode="R" horiz-adv-x="434" d="M31 586q0 161 12 413t12 355q0 28 18.5 45.5t51.5 34.5q12 8 65 8t68 -8q66 -52 123 -109q8 -8 13 -16.5t7 -20.5q3 -12 3 -18v-8.5v-13.5q0 -16 -1 -21q-3 -38 -6 -102t-4 -85q-6 -88 -6 -268q0 -33 -25 -41q-7 -4 -32.5 -19t-40.5 -22l86 -98q11 -13 17 -62.5t8 -123.5 q1 -55 0 -106v-33q0 -66 -1.5 -144t-1.5 -105q0 -33 -25 -43q-6 -2 -11 -2q-14 0 -22 16q-5 10 -5 23q-2 49 -2 168.5t-1.5 212.5t-6.5 111q-7 24 -12 39t-12.5 29.5t-10.5 21t-15.5 19t-17.5 16.5l-25 20t-30 25h-105q10 -372 10 -649q0 -18 -16 -26t-31.5 0t-15.5 26 q0 175 -12 561zM96 760h133q13 0 95 45q0 245 14 455q-5 30 -50.5 63.5t-86.5 36.5q-13 1 -24 1q-58 0 -58 -32q-1 -101 -11 -291.5t-12 -277.5z" />
<glyph unicode="S" horiz-adv-x="415" d="M31 715q18 225 18 678q0 17 13.5 27t31.5 10q69 4 234 16q24 0 34 -16t0 -33.5t-34 -20.5q-9 -1 -82.5 -6t-110.5 -6q0 -411 -14 -616q156 -10 184 -13q13 0 26 -7.5t13 -18.5q5 -94 20.5 -321t20.5 -351q0 -31 -47 -31q-123 -10 -232 -10q-5 -1 -9 -1q-27 0 -33 22 t17 34q11 6 25 6q86 6 185 9l-31 606q-20 1 -57.5 2.5t-68 2.5t-56.5 1q-15 0 -31 10t-16 27z" />
<glyph unicode="T" horiz-adv-x="473" d="M30 1395q0 21 14 41q13 18 28 18h4q52 0 173 -3t173 -3q20 0 20 -22q0 -5 -1 -12q-5 -35 -29 -49q-8 -5 -15 -5q-79 0 -118 2q-3 -60 -3.5 -172.5t-3.5 -171.5q-3 -36 -3 -199q0 -98 1 -241q3 -382 11 -539q0 -26 -34 -45q-18 -10 -30.5 -10t-20.5 10q-5 6 -6 16 q-8 176 -8 502v41q0 356 6 453q3 61 3.5 176.5t3.5 177.5v4q-41 2 -142 2q-23 3 -23 29z" />
<glyph unicode="U" horiz-adv-x="423" d="M31 1448q0 27 27 30q29 3 44 -20q7 -10 7 -22q4 -166 8.5 -638.5t13.5 -729.5h12h166q1 31 4 127.5t6 150.5q3 29 3 172q0 115 -2 303q-4 423 -11 609q0 35 27 49q9 4 16 4q14 0 22 -16q4 -8 5 -19q7 -145 8.5 -405.5t3.5 -344.5q1 -46 1 -101q0 -220 -19 -577 q-15 -40 -41 -40h-195q-52 0 -69.5 9t-12.5 31q-7 252 -12.5 731t-11.5 697z" />
<glyph unicode="V" horiz-adv-x="503" d="M31 1403v5q-1 18 17 32q20 14 43 10t26 -25q53 -412 153 -1003q3 128 19 278q29 360 104 732q6 25 38 34q10 3 17 3q18 0 23 -17q1 -4 1 -9t-1 -11q-10 -65 -39 -189q-2 -11 -8 -43.5t-10 -55.5t-4 -28q-6 -84 -22.5 -239t-20.5 -193q-10 -96 -14.5 -200t-5.5 -245 t-3 -202q0 -17 -14 -31q-16 -20 -45 -21h-2q-27 0 -31 23q-140 792 -221 1395z" />
<glyph unicode="W" horiz-adv-x="692" d="M31 1407q-1 3 -1 7q0 16 13 28q10 14 29 14q17 0 20 -26q68 -613 76 -685q8 -52 20 -153t15 -127l12 -123q1 -5 4 -33.5t4 -34.5h8q4 12 29 189q6 31 14 90l13 84l12 78l2 8q2 12 14.5 16t25.5 1t21 -9q8 -5 13 -11.5t8.5 -17t4.5 -17t3 -20t2 -16.5l19 -123 q2 -20 18 -119t19 -100h8q1 1 18.5 145.5t40.5 342t37 321.5l31 314q2 18 26 18q28 0 43 -18q9 -9 9 -23q-16 -141 -33 -315q-71 -716 -137 -1069q-10 -37 -48 -37q-22 0 -26 20l-6 33q-25 174 -64 403h-8q-4 0 -15 -89t-23.5 -191.5t-20.5 -124.5q-5 -16 -24 -31.5 t-44 -15.5q-17 0 -20 26q-63 518 -66 549q-65 541 -96 842z" />
<glyph unicode="X" horiz-adv-x="499" d="M33 2q27 113 80.5 340.5t79.5 341.5q-26 139 -67 393.5t-58 349.5q-2 19 20 33q18 11 37 12q5 0 9 -1q24 -3 26 -25q18 -103 50 -304.5t36 -226.5q14 60 112 500q8 26 42 39q33 12 42 -8q3 -8 0 -19q-47 -205 -163 -698q79 -437 188 -733q2 -6 2 -11q0 -13 -13 -23 q-16 -12 -37 -13q-3 1 -7 1q-26 2 -35 21q-85 232 -150 539l-116 -496q-4 -30 -36 -42q-31 -11 -41 9q-2 5 -2 11q0 4 1 10z" />
<glyph unicode="Y" d="M32 18q7 28 34 42q10 6 20 6q149 0 223 2q26 527 29 589q-33 -2 -100 -2h-88q-76 0 -76 41q0 123 4 365.5t4 365.5q0 34 25 34q24 0 37 -24q6 -10 6 -22q-3 -131 -6.5 -371.5t-4.5 -298.5q13 1 37.5 -0.5t32.5 -1.5q23 0 70.5 3t62.5 4q4 110 12.5 332t12.5 333 q4 26 36 38q35 13 48 -9q4 -7 4 -17q-11 -228 -32.5 -689t-33.5 -695q0 -22 -16 -34.5t-35 -12.5q-47 0 -141.5 -3t-141.5 -3q-24 0 -24 19q0 4 1 9z" />
<glyph unicode="Z" horiz-adv-x="493" d="M33 33l346 1319q-51 6 -143 20t-132 19q-30 5 -20 39q10 30 36 43q8 4 16 4h3q125 -25 305 -43q12 -4 17 -18q2 -7 2.5 -13.5t-2.5 -11.5q-63 -261 -194 -761t-146 -558q21 -1 109.5 -4.5t136.5 -6.5q28 0 26 -29q-3 -30 -28 -46q-10 -6 -21 -6q-48 3 -141.5 6t-141.5 6 q-17 0 -25 11q-5 7 -4 18q0 5 1 12z" />
<glyph unicode="[" horiz-adv-x="370" d="M35 18q-9 201 0 707q1 75 4 223t4 223q3 113 37 261q4 16 20 25t33 9q41 3 71 6t81 5q32 2 32 -22q-1 -25 -27 -42q-13 -7 -26 -8q-41 -2 -65.5 -4.5t-40.5 -3.5q-24 -116 -27 -260q-2 -113 -8.5 -402t-7.5 -448q0 -13 1 -40t1 -42l6 -123q0 -33 2 -39q2 -12 76 -6 q46 4 108 4q33 0 32.5 -25.5t-27.5 -41.5q-12 -7 -25 -7q-34 0 -72.5 -2.5t-53.5 -2t-43 7.5t-71 26q-14 7 -14 22z" />
<glyph unicode="\" horiz-adv-x="450" d="M29 1589q-3 23 28 41t45 0q3 -4 4 -10q26 -144 79 -431.5t79 -432.5q18 -96 49.5 -268.5t58 -314t50.5 -267.5q4 -24 -28 -42q-31 -17 -44 -2q-3 4 -4 11l-151 813q-63 356 -166 903z" />
<glyph unicode="]" horiz-adv-x="370" d="M35 -7q-16 27 4 39q9 5 22 5q63 0 109 -4q73 -6 76 6q2 6 2 39l6 125q0 13 1 40t1 42q-2 126 -5 267t-7 313.5t-6 267.5q-3 142 -25 260q-16 1 -41 3.5t-66 4.5q-30 1 -46 31q-16 29 6 40q8 3 20 3q47 -3 76 -6.5t76 -6.5q17 0 33 -9t20 -26q35 -148 37 -258 q4 -296 8 -448q9 -505 0 -707q0 -7 -10.5 -21.5t-20.5 -15.5q-38 -9 -62.5 -12t-37.5 -3.5t-51.5 0.5t-71.5 1q-30 0 -47 30z" />
<glyph unicode="^" horiz-adv-x="477" d="M31 875q-1 7 0 14q17 46 40 132.5t31 111.5q3 9 45 163q6 37 15 60q4 -3 4 10q0 28 22 38.5t37 -13.5q39 -84 110 -250t107 -246q14 -27 -7 -49q-19 -21 -37 -3q-5 5 -9 13q-98 224 -182 406q-4 -19 -12 -42.5t-18 -52.5t-15 -43q-68 -259 -68 -260q-10 -35 -36 -26 q-22 8 -27 37z" />
<glyph unicode="_" horiz-adv-x="393" d="M4 35q9 16 22.5 25t31 12t31 3t36 -1.5t33.5 -1.5h100q3 0 22 1.5t39.5 1.5t36.5 -3q20 -3 28.5 -12t8.5 -29q0 -18 -16 -28.5t-29 -10.5h-319q-9 0 -19.5 15.5t-5.5 27.5z" />
<glyph unicode="`" horiz-adv-x="235" d="M53 1475q-11 18 11 42q21 23 36 10q4 -3 6 -9q4 -9 33.5 -79t40.5 -96q11 -18 -11 -42q-20 -23 -34 -10l-6 9q-50 121 -76 175z" />
<glyph unicode="a" horiz-adv-x="432" d="M32 1390q4 26 30 40q11 7 22 6q17 -1 38 -1q34 0 76 3t77 3q21 0 38 -1q24 -4 27 -21q42 -179 53 -340q3 -59 8 -358v-73v-78t-0.5 -72t-1 -78t-1.5 -72t-3 -78t-5 -72t-6.5 -78t-8.5 -73q-2 -16 -14 -29t-29 -14q-5 0 -23.5 -2.5t-33.5 -4t-37 -3t-40 -1.5t-35 1.5 t-29 6t-17 11.5q-4 6 -13.5 20.5t-12 18.5t-9.5 16.5t-8.5 20.5t-6 23t-6.5 32.5t-4.5 41.5t-5.5 55q-6 75 -6 144q0 171 37 306q3 11 15.5 21.5t25.5 13.5q76 16 196 27q-1 26 -1.5 90.5t-1.5 110.5t-5 91q-7 134 -47 322h-14q-31 0 -82 -3q-36 -2 -66 -2q-23 0 -43 1 q-27 1 -27 22v6zM129 297q1 -14 4 -49.5t4 -47t4 -33t7.5 -35t11.5 -26.5l24 -32l58 -2q44 0 57 10q20 197 20 588q-34 -2 -167 -17q-28 -107 -28 -241q0 -55 5 -115z" />
<glyph unicode="b" horiz-adv-x="518" d="M32 748q6 17 25 20q49 7 224 35q7 1 22.5 3.5t24.5 4t22 1t23 -4.5q17 -6 49.5 -19.5t48.5 -19.5q5 -2 10.5 -8t5.5 -12q-2 -29 -2 -89q-2 -100 -5 -300t-5 -300q0 -15 -11 -25.5t-26 -10.5q-50 -6 -98 -9q-6 -1 -18.5 -2t-18.5 -2q-14 -1 -57 -6q-36 -4 -58 -4h-8 q-23 2 -69.5 31.5t-47.5 44.5v12q0 27 3 86q0 383 10 578q27 505 39 665q2 19 24 27q10 4 20 4q11 0 23 -5q20 -9 19 -30q-3 -44 -9.5 -126t-9.5 -118q-3 -59 -18 -352q-6 -109 -6 -110v-4v8v-13v-59q-8 -368 -8 -557q4 -2 12.5 -4.5t15.5 -5.5q19 -6 55 -2q13 1 40 3t40 3 l84 6q1 40 2.5 106t5.5 206t7.5 231.5t5.5 89.5q-3 1 -9.5 3t-9.5 3q-9 3 -26.5 10.5t-27.5 11t-13 2.5q-47 -7 -136 -20.5t-130 -19.5q-20 -3 -30 11q-7 9 -6 20q0 6 2 12z" />
<glyph unicode="c" horiz-adv-x="487" d="M31 289q6 209 14 651l6 258q0 45 10 127t11 96q2 12 10 23q7 10 16 10h2q51 -4 156.5 -11t159.5 -11q20 -1 29.5 -17t7.5 -35q-6 -44 -9 -92q-4 -40 -38 -33q-14 3 -21.5 19t-5.5 31q4 28 4 41l-252 22q-8 -90 -14 -133q0 -4 -1 -25t-1 -26q-9 -334 -15 -680 q-3 -185 -3 -308q0 -62 1 -108h17q48 0 138 -2t138 -2q0 25 2 45q-3 44 27 47q32 0 35 -43q2 -35 2 -90q0 -16 -7 -30.5t-22 -14.5q-239 0 -358 2q-14 1 -24.5 14t-10.5 27q-5 98 -5 180q0 36 1 68z" />
<glyph unicode="d" horiz-adv-x="497" d="M31 43v102l6 387v89q1 12 10 36t10 27q15 45 23 68q6 14 20.5 22t30.5 6q147 -8 229 -14v53v355q0 23 -12 251q-2 21 20 33q15 8 30 8q7 0 14 -2q23 -6 24 -26q15 -215 15 -285q-2 -131 -2 -395q19 -10 19 -26q0 -3 -1 -7q-3 -17 -18 -23q0 -75 2 -114q0 -91 -5 -561 q0 -19 -15 -29t-36 -10q-155 0 -186 2q-103 8 -154 26q-8 2 -16 9.5t-8 17.5zM119 76l43 -8q66 -12 145 -12q25 0 51 1q4 156 4 238q0 66 -1 200.5t-1 202.5l-204 13l-15 -45q-2 -5 -6.5 -18t-7.5 -21l-2 -9q-3 -81 -4 -171.5t-1 -200.5t-1 -170z" />
<glyph unicode="e" horiz-adv-x="477" d="M31 721v100q0 364 26 565q3 16 14.5 28.5t28.5 15.5q24 4 66 6l36 2q25 0 52 -2q46 -4 57 -15q17 -15 36 -45.5t20 -52.5q2 -21 5 -63t5 -62q6 -75 6 -145q0 -169 -35 -301q-4 -12 -17.5 -21.5t-25.5 -11.5q-87 -8 -192 -21q0 -199 6 -297q8 -124 47 -317h2 q168 -12 250 -16q31 -2 28 -30q-4 -25 -29 -39q-10 -5 -21 -5h-3q-46 3 -137.5 8t-136.5 8q-23 4 -29 21q-42 195 -49 336q-10 119 -10 354zM113 770q49 4 163 16q28 109 28 242q0 54 -5 113q-8 92 -10 131q-5 49 -27 76l-14 12q-9 4 -56.5 4t-58.5 -4q-21 -174 -21 -483 q0 -52 1 -107z" />
<glyph unicode="f" d="M37 731q-6 112 -6 278t6 386q5 18 20 31.5t33 13.5q119 -6 334 -6q30 0 30 -24q-1 -25 -28 -42q-13 -8 -27 -8q-176 0 -276 2q-1 -24 -4 -117t-3.5 -131.5t-1.5 -111.5v-56v-76q2 -58 5 -116v-4q73 7 156 7q55 0 114 -3q27 0 24 -28q-4 -30 -31 -46q-11 -6 -22 -6 q-26 0 -78 1q-36 1 -62 1h-25q-34 -1 -72 -6q6 -211 6 -637q0 -25 -31 -40q-14 -6 -24 -6q-14 0 -21 11q-4 7 -4 18q0 239 -12 715z" />
<glyph unicode="g" horiz-adv-x="454" d="M31 1405q0 12 11 20.5t24 8.5h280q34 0 43 -35q6 -25 6 -64q2 -21 -18.5 -30t-42 0t-21.5 30v37l-16 2l-184 -2q0 -46 1 -97t2.5 -113t2.5 -97q10 -471 10 -793v-206h213v127q0 161 -6 280t-6 160l-103 12q-17 2 -32 11t-15 24q0 31 35 31l156 -6q15 0 31 -10t16 -21 q0 -26 -3 -78t-3 -76l10 -260q3 -33 3 -70t-1.5 -83.5t-1.5 -71.5q0 -16 -10 -24.5t-23 -8.5h-293q-16 0 -31.5 8.5t-15.5 24.5q-6 156 -9 278t-4 179v78v120q1 141 1 215q0 83 -3 250t-3 250z" />
<glyph unicode="h" horiz-adv-x="403" d="M31 588v52q1 46 1 108q2 104 1 137v518q1 19 21 30q13 7 26 7l14 -2q20 -6 21 -27q1 -3 1 -156v-85q0 -69 -1 -72q0 -61 -2 -184.5t-2 -186.5q60 15 213 49q14 3 22 -9.5t8 -25.5v-137q-3 -146 -3 -232q1 -43 1 -70l21 -307q1 -19 -13 -30q-10 -8 -21 -8q-6 0 -12 2 q-17 7 -18 33l-12 170q-7 106 -7 329q0 89 1 197q-71 -19 -178 -41v-53q2 -132 28 -555q6 -19 -12 -34t-40 -13.5t-26 20.5q-7 28 -18.5 256t-13.5 320z" />
<glyph unicode="i" horiz-adv-x="176" d="M41 1411q0 21 22 30q11 4 21 4l23 -5q22 -10 22 -31q1 -25 2 -76t2 -76q0 -21 -22 -30t-44.5 0t-23.5 30q0 27 -1 78.5t-1 75.5zM55 1147q0 30 29 43q9 4 17 4q13 0 21 -13q5 -9 5 -22q4 -752 8 -1130q0 -30 -29 -44q-10 -6 -19 -6q-12 0 -19 13q-5 9 -5 22 q-4 379 -8 1133z" />
<glyph unicode="j" horiz-adv-x="380" d="M57 63q9 5 17 5h194q4 45 6.5 93.5t4 84t2 93.5t0.5 85.5v98v95.5q2 63 2 171q0 89 -1 209q-2 147 -2 249q0 81 1 133q0 30 28 46q10 6 18 6q12 0 19 -13q4 -8 4 -20v-1071q0 -150 -16 -301q-5 -17 -17.5 -28t-29.5 -11h-232q-24 0 -24 26q0 34 26 49z" />
<glyph unicode="k" horiz-adv-x="362" d="M31 586v52q1 44 1 105q2 102 1 134v520q1 19 21 29q13 6 26 6l14 -2q20 -6 21 -25v-318q0 -55 -2 -161.5t-2 -163.5q6 5 17 20t15 19q109 140 111 143q2 4 2 76q0 114 4 344q0 21 20 28.5t40 -1t20 -27.5q0 -105 -2 -156v-213q0 -4 0.5 -18.5t0 -20.5t-1.5 -16.5 t-4.5 -18.5t-8.5 -16q-45 -56 -148 -188l4 -8l82 -142q4 -9 41 -75q15 -24 16 -33q13 -57 25 -152q29 -197 29 -282q0 -10 -8 -19q-10 -11 -23 -12q-3 -1 -6 -1q-10 0 -16 9q-8 11 -11 25q-2 33 -16 153q-4 56 -8 84q-4 37 -17 107q-6 26 -28 94q-4 6 -21.5 34t-25.5 44 q-11 22 -33 60.5t-29 51.5l-20 -24v-41q2 -47 7 -145t7 -148q14 -206 14 -254q2 -20 -15.5 -33.5t-37.5 -11t-25 21.5q-3 10 -8 101q-2 34 -5 103t-5 104z" />
<glyph unicode="l" horiz-adv-x="380" d="M23 848l4 559q0 13 15 24t28 11q10 0 16.5 -3t8.5 -10t3 -10t0 -13v-11q0 -174 -2 -254q0 -52 -1 -110.5t-2.5 -129.5t-2.5 -110q6 -426 21 -711q59 -2 178 -2q2 47 7.5 59.5t27.5 12.5q10 -1 15.5 -6t7 -13.5t2.5 -13.5t1 -15l-2 -73q0 -10 -7 -21.5t-17 -11.5 q-40 0 -118 1t-118 1q-14 0 -27.5 12t-15.5 25q-8 190 -10 278q-2 50 -5 149.5t-5 149.5q-2 78 -2 236z" />
<glyph unicode="m" horiz-adv-x="567" d="M31 1386q-1 18 15 30t34 7.5t20 -28.5q2 -37 4 -147t5 -165v-18l16 276q1 14 7 28t12 21.5t19 23t17 20.5q11 13 25 13q3 -1 6 -1q18 -4 22 -27q6 -34 15 -135q25 -221 63 -600q1 -16 11 -88q24 210 32 311q7 79 19.5 237.5t19.5 237.5q2 15 17.5 30t31.5 11q23 -6 32 -9 t24 -9t20.5 -13t5.5 -16q0 -39 1 -115.5t1 -115.5q1 -105 4.5 -312.5t4.5 -310.5q0 -79 1 -237t1 -236q0 -49 -33 -51q-14 -5 -26.5 3.5t-12.5 23.5q0 211 -2 317q0 296 -2 446l-6 408q0 15 -5 14.5t-6 -26.5q-2 -28 -8.5 -131.5t-12 -170t-13.5 -130.5q-3 -27 -60 -453 q-3 -26 -29 -38q-27 -14 -36 11q-1 5 -2 11q-10 56 -17 139q-39 395 -63 600q-6 74 -15 145q-8 0 -14.5 -44t-10.5 -126t-6.5 -157t-5.5 -180t-4 -152q-1 -50 -1 -136v-95v-95q0 -86 -1 -137q0 -3 -0.5 -10t-1 -11t-2 -9.5t-5 -8.5t-9.5 -6t-14 -4q-4 -1 -9 -1q-8 1 -16 5 q-12 6 -12 20q-8 413 -25 773q-7 132 -12 326z" />
<glyph unicode="n" horiz-adv-x="489" d="M41 1418q1 20 15 28q8 4 16 4t16 -4q18 -8 23 -29q13 -49 15.5 -75.5t2.5 -77.5q0 23 1 35.5t6.5 20t10 9.5t18 7t23.5 10q31 14 90.5 38t96.5 41q13 8 38 1t29 -27q4 -21 4 -76q0 -18 1 -39q0 -42 -1 -94v-68.5v-48.5q2 -116 2 -232.5t-2 -232.5q0 -98 -1 -290.5 t-1 -290.5q0 -20 -21 -27.5t-42 0t-21 25.5q0 40 1 120t1 119q0 108 1.5 318.5t1.5 314.5q0 31 1 96t1 107t-1 90t-5.5 74.5t-12.5 29.5q-10 10 -48 -3.5t-71 -37.5q-77 -61 -77 -125q0 -691 -19 -1114q-1 -16 -19 -22q-7 -2 -14 -3q-12 -1 -22 5q-18 8 -17 26q1 54 2.5 161 t2.5 159q0 58 2 238q1 108 0 187v91q-1 98 -13 286q-14 220 -14 276z" />
<glyph unicode="o" d="M31 1051v186q0 106 39 152q21 25 88 37q52 10 104 10h29q66 -4 88 -19q16 -11 26.5 -32t13 -32.5t7.5 -39.5q10 -87 22 -518v-19q5 -90 5.5 -191.5t-5.5 -213.5q0 -31 -2 -64.5t-7.5 -78t-6.5 -60.5q-4 -33 -7 -50t-13.5 -43.5t-26.5 -45.5q-19 -23 -71 -31 q-31 -4 -61 -5q-19 0 -39 2q-48 5 -85 15q-19 6 -34 18.5t-24.5 25t-16.5 35t-10 35.5t-5 41.5t-2.5 38.5t0 40.5t0.5 34.5q0 516 -6 772zM100 725q0 -51 3 -157t3 -162v-152q0 -6 -0.5 -24.5t0 -29t1.5 -26t5 -28.5t11 -25q6 -9 13.5 -16t18 -11.5t19.5 -8t23.5 -6 t23.5 -3.5t26.5 -1.5t25 -0.5h26h23.5q22 9 30.5 27t16.5 67q1 17 4 69t6 82q2 35 3 73t1.5 69t0.5 75v69.5t-1.5 75t-2 69.5t-2.5 75t-2.5 69.5t-3.5 75t-3 70.5q0 48 -4.5 145.5t-8.5 121.5q-2 9 -4.5 15.5t-7 11.5t-7.5 8.5t-9.5 6t-10 3.5t-12.5 1.5t-12.5 0.5h-14 h-14.5q-36 0 -87 -5.5t-58 -13.5q-19 -16 -19 -63v-225v-322z" />
<glyph unicode="p" horiz-adv-x="458" d="M31 1401q0 31 35 31q104 4 315 4q15 0 30 -9t15 -26v-158q2 -29 2 -67q0 -78 -8 -195q0 -38 3 -113.5t3 -113.5q0 -29 -35 -29q-184 -12 -274 -12v-209q0 -164 12 -504q0 -21 -21 -29q-9 -4 -19 -4l-21 5q-21 9 -21 28q-3 58 -6 173.5t-6 172.5q-2 1 -2 120q0 59 1 148 q1 267 1 269q0 87 -2 259t-2 259zM111 1366q0 -49 3 -148.5t3 -148.5v-293q38 0 113.5 3t113.5 3q-4 47 -4 129q-2 13 -2 45.5t2 85.5q4 107 4 132q3 0 3 43q0 22 -1 55q-2 97 -2 100q-38 0 -116.5 -3t-116.5 -3z" />
<glyph unicode="q" horiz-adv-x="512" d="M29 199v225q0 426 6 639q0 18 -1 67q-1 33 -1 59q0 13 1 25q0 34 5 68q6 26 12 45t17.5 41.5t30 37t44.5 19.5q48 11 105 11q103 -3 125.5 -8t29.5 -31q27 -94 33 -191q11 -124 11 -327q0 -136 -5 -306q-3 -64 -8 -186.5t-8 -181.5q0 -37 -6 -82t-12 -57q13 -11 69 -68 q4 -6 4 -14q0 -6 -3 -13q-7 -15 -20 -19q-3 -1 -7 -1q-8 0 -15 6q-8 8 -20 20.5t-22 22.5t-21 20q-5 -5 -11 -8.5t-10.5 -5.5t-12 -4t-11 -2.5t-13 -1t-13 -0.5h-16h-16.5q-158 0 -196 29q-45 30 -45 172zM94 1203q0 -33 0.5 -60t2 -61t1.5 -54v-432q0 -18 -1.5 -101.5 t-1.5 -154t3 -100.5q0 -64 4 -99q3 -22 4 -31.5t6.5 -19t10 -11t20 -4.5t30 -1.5t46 0.5t62.5 -2q41 0 41 6l-29 28q-8 8 -0.5 23t19.5 21t22 -3l22 -24l4 63v7v6q13 275 13 385q6 190 6 333t-6 238q-4 29 -7 61.5t-4.5 47.5t-5 36t-8.5 43q-4 18 -54 19h-42q-13 0 -28 -1 t-34.5 -2.5t-29.5 -2.5q-19 -2 -32 -14t-20 -34.5t-10.5 -47t-3.5 -57.5z" />
<glyph unicode="r" horiz-adv-x="450" d="M31 834q0 180 4 536q0 19 10.5 34.5t28.5 18.5l317 41q3 1 6 1q11 0 17 -9q7 -9 6 -20v-6q-4 -78 -8 -113q-1 -22 -9 -115t-10 -143l-6 -250q0 -14 -12 -28t-27 -15l-104 -12l123 -49q7 -3 12.5 -14t5.5 -21q1 -24 2 -72t2 -72q4 -165 8 -495q-1 -13 -11 -25 q-8 -9 -18 -9q-3 0 -6 1q-26 5 -26 47q0 21 -1 60.5t-1 58.5q-4 122 -4 231v15l-6 227l-224 92q2 -63 2 -188q6 -246 9 -492q0 -16 -8.5 -30.5t-22.5 -18.5q-5 -2 -11 -2q-7 0 -14 4q-12 7 -12 21l-6 331zM100 831q15 0 43 -0.5t50.5 -0.5t42.5 1q21 0 86 9q0 18 1 52t1 50 q3 104 26 440q-176 -21 -248 -32q0 -43 -1 -131t-1 -132v-256z" />
<glyph unicode="s" horiz-adv-x="397" d="M31 29l2 90q0 49 33 49q17 0 25.5 -9.5t6.5 -21.5q0 -10 -1 -29.5t-1 -29.5q30 0 88 1t88 1v39q-2 193 -2 575l-200 25q-11 1 -18 10.5t-7 20.5v159q0 74 2.5 153t7 188.5t6.5 152.5q2 18 13 34q10 15 26 15h2q120 -15 240 -27q11 -2 18 -11t7 -21q-2 -34 -5.5 -100.5 t-5.5 -100.5q0 -15 -9 -29.5t-23 -17.5q-13 -3 -23 7t-10 24q1 28 4 86t4 86l-174 18l-3 -59q-9 -255 -11 -510l200 -25q11 -1 18 -10.5t7 -20.5v-88q2 -201 2 -596q0 -24 -11.5 -40.5t-29.5 -16.5q-40 0 -121 -1t-121 -1q-11 0 -17.5 9.5t-6.5 21.5z" />
<glyph unicode="t" horiz-adv-x="507" d="M21 1344v7q0 27 19 44q8 7 17 8l389 35h4q26 0 27 -28v-5q0 -27 -19 -44q-8 -7 -18 -7l-145 -17q0 -56 4 -200q2 -215 10 -650q0 -98 -2 -147q0 -30 -1 -91t-1 -91q0 -9 0.5 -29t0.5 -36.5v-35t-1.5 -31t-3.5 -16.5q-6 -9 -28 -12q-8 -1 -14 -1q-10 0 -15 3 q-6 4 -10 10.5t-4.5 11.5t-1.5 16.5t-1 14.5v84q0 139 2 209v34q0 105 -4 417q-2 91 -5 267.5t-5 268.5l-162 -16q-29 -3 -32 27z" />
<glyph unicode="u" horiz-adv-x="452" d="M32 778q0 44 0.5 144.5t0.5 207.5q0 51 3.5 146t4.5 125q1 27 28 39q10 5 17 5q13 0 20 -14q3 -7 3 -18q-2 -53 -5.5 -158.5t-5.5 -158.5q-1 -63 -1 -131q0 -176 9 -383q10 -240 15 -285q25 -218 43 -225q4 -2 14 -2h10h11t11 0.5t11.5 1t10 1.5t10 3t8 5t7.5 6.5t5 8.5 q3 3 14 125l25 318q6 59 6 264q0 48 -0.5 142.5t-0.5 153.5q0 13 -1 25q0 52 2 116q2 82 6 149q1 15 6.5 24.5t11 13t15.5 5.5q13 3 24 -3.5t11 -19.5q1 -46 4 -144t4 -147q8 -317 14 -481l19 -598q0 -39 -29 -51q-6 -2 -12 -2q-7 0 -13 2q-12 6 -12 20q-2 45 -5 135.5 t-5 135.5q0 17 -1 49t-1 49q-3 -35 -8 -104.5t-8 -104.5q-5 -100 -23 -131q-17 -27 -43 -33q-20 -5 -48 -4h-19q-52 0 -71 4.5t-26 24.5q-55 147 -63 477q-2 92 -3 160q-1 45 -1 80q1 17 1 32z" />
<glyph unicode="v" horiz-adv-x="464" d="M31 1427q-1 23 27 25h5q28 0 42 -20q6 -8 6 -17q1 -52 2 -156t2 -155q4 -59 14.5 -257t20.5 -323.5t26 -242.5l4 24q55 286 99 580q27 174 73 522q3 19 24.5 24t41.5 -6q17 -10 16 -25q0 -115 -121 -835q-18 -107 -56 -309t-44 -233q-3 -17 -22 -23q-8 -3 -16 -3 q-11 0 -21 5q-18 8 -21 25q-43 309 -47 342q-9 64 -16 145t-9.5 122.5t-8.5 154t-7 129.5q0 8 -5.5 87t-6.5 119q0 50 -1 150.5t-1 150.5z" />
<glyph unicode="w" horiz-adv-x="712" d="M31 1407q-3 25 25 39q10 6 20 6q13 0 20 -13q4 -6 4 -16q3 -57 9.5 -171.5t9.5 -172.5q8 -151 15 -237q3 -105 30 -333t49 -308q19 101 70 317q4 19 20.5 29t32 5.5t16.5 -22.5q0 -2 1 -5t1 -5q3 -17 9.5 -50.5t9.5 -49.5q2 -9 11 -57t19.5 -95t22.5 -90q4 23 12.5 69 t12.5 70q34 177 98 580q36 229 74 520q2 13 13 23q8 7 16 7q3 0 7 -1q13 -4 19 -20q4 -11 5 -23q0 -4 -1 -8q-41 -301 -43 -312q-56 -387 -78 -516q-18 -106 -56 -306.5t-44 -235.5l-23 -29q-10 -7 -23 -3t-16 17q-8 27 -34.5 131.5t-34.5 145.5q-2 13 -7.5 40t-7.5 42 q-30 -128 -67 -344q-3 -13 -18 -25q-14 -11 -28 -11h-2q-16 1 -20 19q-44 195 -55 262q-9 74 -47 353q-5 37 -8.5 77.5t-6 93t-4.5 78.5q-20 352 -28 535z" />
<glyph unicode="x" horiz-adv-x="538" d="M31 1401q-1 3 -1 7q0 14 16 26t33 13q3 -1 6 -1q21 -2 24 -23q7 -39 21.5 -118.5t21.5 -118.5q15 -81 45.5 -243t44.5 -243q37 143 55 205q22 79 67 236.5t68 236.5q6 25 38 31q31 6 37 -14v-5q0 -6 -1 -12q-17 -61 -49.5 -174t-46.5 -162q-24 -83 -74.5 -253.5 t-73.5 -253.5q15 -58 26.5 -89t55.5 -133q20 -48 60 -142t61 -142q7 -17 -7 -30q-12 -12 -28 -12q-2 1 -4 1q-18 2 -25 18q-78 176 -135 311l-39 93q-17 -59 -118 -390q-8 -25 -40 -31q-31 -6 -37 14q-2 7 1 17q19 56 106 334q22 66 54 166q-33 156 -54 285 q-49 280 -108 596z" />
<glyph unicode="y" horiz-adv-x="466" d="M31 1012q0 64 4 190t4 191q0 14 11.5 28.5t29.5 14.5q13 0 19.5 -14t6.5 -29q3 -77 3 -150q0 -56 -2.5 -163.5t-2.5 -195t5 -161.5q4 -53 41 -127q2 -10 22 -49q16 72 45 208t41 191q68 310 109 479q5 26 35 33q8 2 15 2q15 0 19 -14v-5v-7q-6 -29 -19.5 -90t-19.5 -89 q-6 -29 -69.5 -321t-96.5 -445q-63 -285 -108 -479q-7 -26 -37 -31q-6 -1 -10 -1q-19 0 -25 16q-1 6 0 14q6 29 19.5 87.5t19.5 86.5q30 139 57 256q-5 9 -45.5 85t-56.5 116q-14 39 -14 373z" />
<glyph unicode="z" horiz-adv-x="534" d="M33 12q-2 7 -2.5 13.5t2.5 11.5q6 17 88 278q53 175 108 351l4 16q-9 0 -27.5 -1t-27.5 -1q-14 0 -20.5 13t-1.5 26q5 15 17.5 25t27.5 10q9 0 27.5 1t27.5 1q2 7 31.5 115.5t71 260.5t63.5 236l-236 -12q0 -13 -2 -19q-3 -24 -31 -35q-29 -12 -38 8q-3 7 -2 17 q4 19 8 57q1 14 14 27t27 14q49 3 152.5 8.5t156.5 8.5q13 0 24 -9q8 -7 8 -15q0 -3 -1 -7q-38 -144 -78 -285q-7 -26 -42 -161t-56 -207l49 2q14 0 19.5 -13t0.5 -26q-5 -15 -17.5 -25t-27.5 -10l-47 -2l-16 -53q-113 -368 -174 -561q147 0 219 2q0 5 1 16t1 16q0 26 29 38 q29 11 39 -9q4 -7 4 -18q-1 -13 -2.5 -37.5t-2.5 -36.5q0 -18 -15.5 -29.5t-33.5 -11.5q-100 -2 -299 -2q-15 0 -20 14z" />
<glyph unicode="{" horiz-adv-x="544" d="M29.5 769.5q1.5 13.5 11.5 23.5q113 117 156 157q0 156 4 234q0 16 1.5 33.5t3 31.5t5 33.5t6 30.5t8 33t8 30.5t9 32.5t8.5 31q12 37 55 37q45 2 84.5 2t87.5 2q33 0 32 -24t-27 -40q-14 -8 -27 -8q-40 -3 -64 -3t-63 -3q-24 -91 -32.5 -158.5t-8.5 -165.5v-41v-112 q-17 -18 -85.5 -85.5t-82.5 -82.5q6 -9 73.5 -92.5t81.5 -110.5q0 -319 7 -436v-47q9 -12 18 -16.5t29 -4.5q7 0 62.5 3t94.5 3q31 0 31 -22q-1 -23 -29 -39q-13 -8 -28 -8q-28 0 -63 -1t-50.5 -1t-38.5 2t-45 7t-53 15q-8 3 -13.5 11t-5.5 14q-9 249 0 502q-29 35 -84 112 q-3 4 -15.5 17t-21.5 23.5t-20 26t-16 28t-3.5 26z" />
<glyph unicode="|" horiz-adv-x="131" d="M31 1518q0 37 25 52q23 14 32 -11q4 -10 4 -25q8 -604 8 -1663q0 -36 -23 -51q-21 -13 -30 12q-4 11 -4 25q-3 225 -6 830t-6 831z" />
<glyph unicode="}" horiz-adv-x="544" d="M28 11q1 -24 27 -40q14 -8 27 -8q35 0 75.5 -3t59 -3t50 6.5t73.5 24.5q12 6 12 22q11 225 4 506q16 19 44 57.5t42 55.5q4 6 18 22t25.5 30.5t21.5 32t10 34t-13 28.5q-51 55 -154 158q-3 117 -6 231q0 41 -7 82t-21.5 99t-18.5 79q-9 33 -55 37q-46 2 -86.5 2t-87.5 2 q-33 2 -31.5 -22.5t27.5 -41.5q12 -8 24 -9q40 -2 65 -1t62 -1q31 -133 39 -235t8 -249q59 -59 90 -92q11 -12 24 -25t29 -28.5t25 -24.5q-75 -86 -162 -202q1 -13 2 -67t2 -62q0 -208 -4 -314q-2 -16 -2 -49l-52 -1q-6 -1 -19 -1q-99 -6 -134 -6q-33 0 -33 -24z" />
<glyph unicode="~" horiz-adv-x="428" d="M52 563q1 4 3 8q20 39 78 60q20 7 49 5t49 -13q2 -1 19.5 -10t25 -12t21 -3.5t22.5 6.5q20 13 46 -6q23 -17 8 -32q-2 -3 -6 -5q-29 -21 -63 -20.5t-66 18.5q-17 9 -36 14t-43.5 1t-37.5 -23q-16 -23 -46 -14q-25 7 -23 26z" />
<glyph unicode="&#xa1;" horiz-adv-x="260" d="M82 1083q0 22 22.5 31t46.5 0t27 -31l-2 -155q0 -23 -22.5 -32.5t-45 0t-22.5 32.5q1 30 -1.5 83t-2.5 72zM96 -262q0 818 2 1010q0 30 29 43q26 12 38 -9q5 -10 5 -22q4 -881 6 -1010q-1 -30 -33 -43q-30 -13 -42 9q-5 9 -5 22z" />
<glyph unicode="&#xa2;" horiz-adv-x="503" d="M35 -4q-11 264 0 704q4 298 8 449q1 31 6.5 67t11 61t16 68t15.5 64q8 30 53 35l80 4v45q0 41 33 61q30 18 46 -6q10 -13 9 -37v-59l57 3t56 3q33 2 33 -22q0 -25 -27 -42q-13 -7 -26 -8l-95 -6q-12 -912 -16 -1362h147q33 0 32 -25t-27 -41q-12 -7 -25 -7q-43 0 -129 -4 v-54q-1 -41 -34 -61q-30 -18 -47 6q-9 13 -9 37v72q-89 3 -154 30q-14 7 -14 25zM115 264q0 -180 6 -205q4 -18 8 -26t21 -15t49 -4h6q0 9 18 1362l-53 -4q-37 -154 -39 -258q-15 -715 -16 -850z" />
<glyph unicode="&#xa3;" horiz-adv-x="561" d="M32.5 616q-8.5 16 3 32t34.5 16h8h16q2 2 8 2h13q1 99 5 210.5t10 248t9 210.5q0 11 6 17q2 19 12.5 35.5t26.5 17.5q222 34 277 -74q42 -79 33 -250q-1 -22 -18 -32.5t-33 -1.5t-15 34l2 19q0 37 -2 53q-4 83 -20 119q-33 70 -187 57v-6q-3 -109 -11 -326t-11 -325 q41 3 84 6q29 3 42 -22t-9 -37q-7 -4 -17 -5q-18 -1 -51.5 -4t-50.5 -4q-1 -72 3.5 -164.5t13 -218t11.5 -180.5q174 0 260 -2q30 0 43 -26q12 -24 -9 -34q-7 -4 -19 -4q-153 3 -305 3q-16 0 -32.5 8t-17.5 22q-1 19 -10 139.5t-12 164.5t-6.5 130.5t-3.5 155.5h-47 q-25 0 -33.5 16z" />
<glyph unicode="&#xa4;" horiz-adv-x="587" d="M42 934q11 18 30 22.5t34 -8.5l54 -67q32 10 76 10.5t77 -2.5q74 0 111 -6q15 17 31.5 33.5l31.5 31.5q14 14 34 5.5t27.5 -26t-3.5 -34.5q-15 -16 -33 -32.5t-33 -33.5l-2 -2v-14q4 -58 4 -86q0 -180 -6 -319q-1 -18 0 -33.5t-0.5 -33.5t-5.5 -32l-6 -12q13 -17 53 -66 q13 -14 2 -32t-30 -23t-33 8q-19 21 -54 66q-29 -8 -90 -8q-10 0 -34 -2t-45 -2t-37 4l-60 -66q-13 -14 -32.5 -5t-26.5 26.5t4 33.5l53 60q-13 30 -18 123q-25 216 -19 325q1 10 0.5 29.5t0.5 34.5t5 28q-9 12 -59 72q-12 15 -1 33zM168 646.5q6 -136.5 16 -243.5 q2 -10 6.5 -38.5t9 -46t11.5 -23.5q15 -13 154 -6q30 3 36 20q3 9 3.5 20t-0.5 25.5t-1 18.5q0 77 3.5 182t3.5 195q0 63 -4 81h-11q-30 5 -33 5q-82 12 -159 4q-4 -1 -14 -2t-13 -2h-2v-2l-4 -8v-1q-8 -42 -2 -178.5z" />
<glyph unicode="&#xa5;" horiz-adv-x="684" d="M42 615q-2 25 23 38q11 6 23 6l78 3q-68 527 -94 714q-3 27 12.5 40.5t34 5t22.5 -35.5q16 -120 47.5 -360t47.5 -360l202 6v4q23 124 140 739q6 34 31 25q23 -9 32 -38q4 -12 2 -24q-69 -359 -133 -704l88 2q36 1 38 -25q3 -24 -22 -38q-11 -6 -24 -7l-215 -6 q-2 -59 -6 -129l229 6q28 1 31 -23q2 -26 -21 -40q-10 -5 -20 -6l-223 -7q-4 -80 -15 -389q-1 -30 -31 -46q-29 -16 -40 6q-3 8 -3 20q6 160 17 407l-215 -6q-29 -1 -30 25t22 40q8 5 18 5l207 6q4 83 8 129l-223 -8q-36 -1 -38 25z" />
<glyph unicode="&#xa6;" horiz-adv-x="139" d="M31 575q1 43 19 60t35.5 0t16.5 -60q0 -53 2 -159t2 -156q-1 -43 -18 -61t-33.5 0t-15.5 61q-8 106 -8 315zM35 1157q0 43 17.5 61t35.5 0t18 -61q-1 -60 1 -169t2 -148q0 -31 -10.5 -49t-23.5 -18t-23.5 18t-10.5 49q-10 132 -6 317z" />
<glyph unicode="&#xa7;" horiz-adv-x="395" d="M31 -78q1 15 2 44t2 44q0 14 9.5 30t21.5 19q14 3 23 -7t9 -25q-2 -18 -2 -58q57 2 166 2q0 61 -1 178t-1 175q-143 17 -192 22q-8 1 -13.5 12t-5.5 21v119q0 101 21 368q-13 10 -13 27v217q2 45 7.5 127.5t7.5 118.5q2 20 13 36t28 15q42 -4 116.5 -13.5t108.5 -13.5 q12 -1 19.5 -11t7.5 -21q-2 -35 -5.5 -102t-5.5 -99q-2 -14 -10.5 -28t-19.5 -17q-13 -3 -23 6.5t-10 24.5q4 56 8 172q-34 2 -168 16q-8 -125 -10 -193v-192q34 -3 96 -10.5t92 -10.5q11 -3 17.5 -12t5.5 -18q0 -12 -1 -35t-1 -31q-3 -69 -11.5 -209.5t-11.5 -210.5 q17 -17 17 -28q0 -289 2 -430q0 -17 -11.5 -32t-29.5 -15q-38 0 -114.5 -1.5t-113.5 -1.5q-12 0 -19 9.5t-7 21.5zM109 424q103 -13 135 -16q0 3 1 8.5t1 7.5q10 139 22 412q-22 2 -68.5 8t-70.5 8q-1 -8 -2 -23.5t-2 -23.5q-1 -40 -7.5 -113t-8.5 -104v-164z" />
<glyph unicode="&#xa8;" horiz-adv-x="509" d="M51 1448q0 25 25 49.5t57 24.5h23q19 0 45 -23q22 -22 22 -51q0 -46 -22 -68q-4 -5 -8.5 -8.5t-7.5 -4.5t-10 -4t-11 -5h-45q-7 2 -13 5t-10 5.5t-9 7t-7 7l-6 7.5t-6 7q-17 25 -17 51zM287 1444q0 25 25 49.5t57 24.5h22q19 0 45 -23q23 -23 23 -51q0 -45 -23 -68 q-4 -5 -8.5 -8.5t-7.5 -4.5t-10 -4t-11 -5h-45q-7 2 -13 5t-10 5.5t-9 7t-7 7l-6 7.5t-6 7q-16 24 -16 51z" />
<glyph unicode="&#xa9;" horiz-adv-x="512" d="M33 399q-3 153 0 310q0 51 1 155t1 156q-4 137 6 205q4 38 8.5 61t18.5 54t36 40q23 9 60 13q47 6 90 6q54 4 82 4q4 0 17.5 0.5t20 0t17 -2.5t19.5 -6q50 -24 51 -139v-24v-11q2 -24 3 -50.5t1.5 -59t1.5 -50.5q6 -92 10 -281q6 -125 4 -288.5t-20 -288.5 q-16 -120 -70 -133q-48 -15 -121 -7q-106 5 -127 9q-74 16 -96 118q-5 24 -8 54t-3.5 48.5t-1.5 56.5t-1 50zM90 485q0 -165 6 -221q9 -98 60 -114q15 -5 31 -7.5t43.5 -3t33.5 -0.5q77 -4 117 0q2 2 8 2l4 11q2 10 6 26q4 12 4 21q3 6 3 10v6q8 47 8 109q13 206 2 561 q-4 150 -8 227q0 12 -5 70v10v6v4v6q-1 8 -1.5 27.5t-1.5 35.5t-5 29q-5 16 -19 23t-27 7.5t-35 -1.5t-29 -2q-114 -4 -152 -12q-1 0 -7 -2t-9 -2v-2q-17 -49 -19 -76q-8 -59 -8 -180q1 -94 0 -284t0 -284zM129 469q0 70 1 212t1 214q0 107 2 160q0 33 6.5 96.5t7.5 81.5 q2 10 10 21t17 10l168 -21q18 -1 26.5 -14.5t6.5 -32.5l-6 -78q-2 -14 -12 -24.5t-21 -6.5q-25 6 -25 48q1 5 2 15.5t2 14.5q-20 2 -58 7.5t-56 7.5q0 -11 -1 -24t-2.5 -29t-2.5 -25q-6 -46 -7 -51q0 -155 -4 -455v-283q23 0 72 -1t74 -1v47q0 40 24 43q13 0 22 -12.5 t9 -26.5v-92q0 -41 -25 -41q-66 0 -202 4q-12 0 -19.5 11.5t-7.5 25.5q-2 68 -2 199zM395 143z" />
<glyph unicode="&#xaa;" horiz-adv-x="411" d="M32 1384q2 23 27 37q10 6 21 6q32 0 113.5 3.5t130.5 1.5q23 -4 26 -19q24 -95 30 -279t-15 -341q-1 -11 -18.5 -22t-33.5 -13q-3 0 -30 -3.5t-45.5 -5t-45 -2t-46.5 3.5t-33 13q-14 10 -23.5 18.5t-15 15t-9 17.5t-5 18t-4.5 26t-5 32q-9 48 -11.5 79t3.5 55.5t13 38.5 t24 40q18 26 39 29q62 12 182 24q-3 120 -22 211q-39 1 -110.5 -1.5t-111.5 -2.5q-27 0 -25 20zM105 981q1 -18 4 -41q6 -49 22 -86t45 -37l53 -2q55 0 68 8q13 118 13 168.5t-9 93.5q-111 -9 -156 -14q-2 -2 -10.5 -7.5t-11 -8t-8 -9.5t-7 -14.5t-3 -20t-0.5 -30.5z" />
<glyph unicode="&#xab;" horiz-adv-x="966" d="M31 500q7 24 48 71t95.5 101t65.5 67q88 102 159 164q26 22 44 18.5t42 -32.5q2 -5 -0.5 -13.5t-9 -19.5t-13.5 -21.5t-19 -25.5t-20.5 -25t-23 -26.5t-21.5 -24t-21.5 -23t-16.5 -18.5q-4 -7 -48.5 -54t-84.5 -92t-39 -50q87 -86 340 -303q35 -31 25 -70q-9 -31 -37 -30 q-21 0 -43 20q-175 139 -234 190q-95 88 -149 148q-4 4 -11.5 11t-10.5 10.5t-7.5 9t-6.5 9.5t-3 9zM432 500q7 24 48 71t95.5 101t65.5 67q85 99 160 164q26 22 44 18.5t42 -32.5q2 -5 -0.5 -13.5t-9 -19.5t-13.5 -21.5t-19 -25t-21 -25.5t-23 -26.5t-22 -24.5t-21 -23 t-17 -18q-4 -7 -48.5 -54t-84.5 -92t-39 -50q87 -86 340 -303q35 -31 25 -70q-9 -31 -37 -30q-21 0 -43 20q-161 128 -233 190q-101 94 -150 148q-4 4 -11.5 11t-10.5 10.5t-7.5 9t-6.5 9.5t-3 9z" />
<glyph unicode="&#xac;" horiz-adv-x="854" d="M51 655q7 21 27 21q51 3 69 4t28.5 1t43 -0.5t76.5 -0.5h434q15 15 51 0q9 -3 14.5 -8.5t7 -14.5t2 -15t0 -20.5t-0.5 -21.5v-367q0 -43 -25 -46q-25 -4 -42 31q-13 24 -13 56v320q-28 4 -42.5 2.5t-115 -6t-217.5 -4.5q-82 0 -133 -1t-111 -1q-24 0 -38.5 23.5 t-14.5 47.5z" />
<glyph unicode="&#xad;" horiz-adv-x="462" d="M103.5 542.5q-10.5 9.5 0.5 28.5q7 14 20 25.5t21 11.5h230q9 0 19 -13.5t3 -23.5q-8 -14 -20 -23.5t-22 -14t-27.5 -7t-26 -3t-29.5 0t-26 0.5q-68 0 -105 4q-27 5 -37.5 14.5z" />
<glyph unicode="&#xae;" horiz-adv-x="538" d="M31 1546q3 41 61 53q53 7 82 -22l2 -2l2 -2q17 -25 10 -62l-2 -9q-11 -50 -18 -58q-14 -17 -49 -17q-26 -3 -51 3q-11 3 -17.5 12.5t-8.5 16.5t-5 22q-8 37 -6 65zM72 1522q0 -17 5 -34.5t9 -21.5q17 -5 34.5 -1.5t18.5 14.5q5 12 6 34t-6 33q-21 21 -47 13 q-9 -3 -14 -11q-6 -6 -6 -26z" />
<glyph unicode="&#xaf;" horiz-adv-x="632" d="M31 1266q-2 24 24 38q20 11 45 5q311 0 461 16q37 0 42 -29q4 -28 -23 -45q-15 -10 -35 -10h-477q-35 0 -37 25z" />
<glyph unicode="&#xb0;" horiz-adv-x="299" d="M23 1366v12v13.5t0.5 12t2 12.5t4 11t6.5 10.5t10 7.5t13 7q29 10 107 10q82 0 100 -18q9 -10 11 -24t2 -60v-98q-1 -16 -2 -34t-1.5 -27.5t-1 -20.5t-1 -16.5t-1.5 -12t-1.5 -10t-1.5 -7t-3 -6.5q-4 -15 -13.5 -24t-26.5 -12t-28.5 -4t-31.5 -1q-4 0 -27 -1t-34 -0.5 t-26.5 6t-23.5 16.5q-15 19 -23.5 113.5t-8.5 144.5zM77.5 1336.5q0.5 -53.5 2.5 -76.5q2 -17 14 -86q1 -3 4 -12.5t6 -14.5q9 -11 59.5 -8t57.5 16q6 30 6 37q14 205 -12 217q-10 6 -72 6q-31 0 -43 -2l-18 -4q-4 -6 -4 -10q-1 -9 -0.5 -62.5z" />
<glyph unicode="&#xb1;" horiz-adv-x="841" d="M53 43q0 19 16.5 31t40 15t50 4t47.5 -1l448 -12q3 0 22.5 1.5t40 1.5t36.5 -3q20 -3 28.5 -12t8.5 -29q0 -18 -16.5 -28.5t-29.5 -10.5h-667q-9 0 -19.5 15.5t-5.5 27.5zM72 614q0 32 30 51q17 11 37 11q38 0 112 -1t111 -1v250q0 24 21 35.5t42.5 0t23.5 -44.5 q3 -39 -1 -121.5t-2 -119.5q45 0 135 -1t134 -1q50 0 33 -45q-14 -39 -74 -39q-147 0 -223 2v-281q1 -23 -23 -29q-30 -7 -50 24q-11 18 -13 44q-1 42 0.5 128.5t1.5 113.5q-44 0 -135 -1t-136 -1q-24 0 -24 26z" />
<glyph unicode="&#xb2;" horiz-adv-x="403" d="M30.5 1398.5q4.5 21.5 26.5 24.5q55 7 121 7l111 2q39 0 48 -7t9 -30q2 -40 -2.5 -127.5t-1.5 -225.5q0 -26 -39 -34.5t-85.5 -5t-84.5 -1.5v-221q70 6 209 6q21 0 28.5 -21.5t-1 -43t-27.5 -21.5q-53 -6 -264 -6q-5 0 -8.5 2t-5 7t-2.5 10t-1.5 13.5t-0.5 15t0.5 17 t0.5 17.5v273q0 17 23 28q19 10 94.5 12t97.5 7q-2 89 -0.5 151.5t2.5 65.5t-2 30h-63q-33 0 -75 -3t-62 -3q-22 0 -36 20t-9.5 41.5z" />
<glyph unicode="&#xb3;" horiz-adv-x="442" d="M38 711q-16 34 2 47q6 4 15 4q183 0 275 -6v250q-15 3 -91 1.5t-100 -1.5q-29 0 -42 28q-11 26 8 36q6 3 14 3q113 0 211 -4v53q0 49 2 129t2 111h-246q-25 0 -44 29q-18 29 2 40q7 3 17 3q182 0 297 4q19 0 34.5 -13.5t15.5 -33.5q4 -3 0 -118t-4 -169q0 -216 -11 -397 q-2 -19 -12 -29q-20 -7 -130.5 -1.5t-174.5 1.5q-25 0 -40 33z" />
<glyph unicode="&#xb4;" horiz-adv-x="253" d="M51 1361q-1 5 2 11q5 12 23.5 49.5t34 70.5t22.5 52q5 20 37 21q30 0 33 -19q1 -5 -2 -12l-80 -172q-7 -20 -39 -19q-30 0 -31 18z" />
<glyph unicode="&#xb5;" horiz-adv-x="514" d="M63 1130q0 48 4 103.5t5 95.5q1 28 28 40q26 11 36 -9q3 -8 3 -19q-1 -39 -4 -82.5t-4.5 -79.5t-1.5 -83q0 -342 8 -514q10 -240 15 -285q25 -218 43 -225q4 -2 14 -2h10h11t11 0.5t11.5 1t10 1.5t10 3t8 5t7.5 6.5t5 8.5q3 3 14 125l25 318q6 59 6 264q0 50 -0.5 131.5 t-1 128.5t1.5 116.5t6 137.5q1 15 6.5 24.5t11 13t15.5 5.5q13 3 24 -3.5t11 -19.5q1 -47 4 -109t4 -110q8 -317 14 -481l19 -598q0 -39 -29 -51q-13 -5 -25 0.5t-12 19.5q-2 45 -5 135.5t-5 135.5q0 17 -1 49t-1 49q-3 -35 -8.5 -104.5t-8.5 -104.5q0 -3 -1 -19.5 t-1.5 -23.5t-2 -22.5t-3.5 -25t-5.5 -21t-8.5 -19.5q-17 -26 -43 -32.5t-68 -4.5q-72 0 -86 12l4 -229q0 -29 -27 -44q-27 -13 -39 8q-5 9 -5 22q-6 366 -6 727v10q-3 129 -3 624z" />
<glyph unicode="&#xb6;" horiz-adv-x="458" d="M61 1040q0 23 2.5 66.5t2.5 64.5q0 14 13.5 22.5t26.5 8.5q175 0 261 -6q28 0 28 -25q0 -71 -2 -214t-2 -216q0 -89 3 -359.5t3 -311.5q0 -18 -27 -24q-30 -7 -39 11q-2 6 -1 13q0 43 0.5 77t0.5 45t-0.5 27t-2.5 43l-11 340h-55v-283q0 -42 4 -100.5t4 -142.5 q0 -15 -8.5 -24.5t-19.5 -6.5q-15 3 -27 15.5t-12 23.5v61q-9 227 -10 285t2 172q-22 2 -49.5 4t-49.5 4q-30 0 -30 25q0 141 -2.5 216t-2.5 189z" />
<glyph unicode="&#xb7;" horiz-adv-x="229" d="M29 578q0 25 25 49t57 24h22q20 0 45 -22q23 -23 23 -51q0 -45 -23 -68q-9 -11 -37 -23h-45q-7 2 -13 5t-10 5.5t-9 7t-7 7l-6 7.5t-6 7q-16 24 -16 52z" />
<glyph unicode="&#xb8;" horiz-adv-x="292" d="M50.5 -265q1.5 27 23.5 34q42 25 92 47q0 25 -8 39q-7 4 -32.5 24.5t-43.5 28.5q-11 5 -17 22.5t-6 30.5q3 14 7 46.5t8 53.5q5 36 35 28q26 -6 38 -33q5 -12 3 -23q0 -13 -4.5 -31.5t-4.5 -26.5q7 -5 23.5 -16.5t24.5 -18t19.5 -17.5t17 -22t7.5 -24q9 -35 9 -100 q0 -11 -6.5 -25t-16.5 -20q-18 -7 -57 -27t-58 -27q-21 -11 -38 9.5t-15.5 47.5z" />
<glyph unicode="&#xb9;" horiz-adv-x="499" d="M35.5 764.5q-9.5 23.5 0 47.5t32.5 24h168q0 398 -7 548q-8 -6 -127 -100q-25 -20 -43 2q-19 25 -1 58q6 10 14 18q10 8 33.5 30t40.5 36.5t46 30.5t60 22q19 5 39 -9.5t20 -33.5q0 -250 3 -371t3 -231h121q20 0 27.5 -23t-2 -45.5t-31.5 -22.5q-311 0 -364 -4 q-23 0 -32.5 23.5z" />
<glyph unicode="&#xba;" horiz-adv-x="518" d="M61 1272v15v16.5t0.5 15t1.5 16t3 14t5 14.5t7 12t9.5 12.5t13 9.5t16.5 8q49 16 168 16q123 0 153 -28q13 -19 16 -38.5t3 -92.5v-152q-1 -20 -2 -43.5t-2 -36.5t-1.5 -29.5t-1 -24.5t-1.5 -18.5t-1.5 -15.5t-1.5 -11.5t-2 -10.5t-2.5 -8t-3.5 -9q-6 -23 -21 -37.5 t-41.5 -20t-43 -6.5t-47.5 -1q-6 0 -42.5 -1.5t-53.5 -0.5t-41.5 9.5t-36.5 24.5q-23 29 -36.5 177.5t-13.5 224.5zM145 1208.5q2 -69.5 5 -100.5q21 -154 38 -176q13 -19 91 -14.5t90 26.5q7 31 13.5 118.5t1.5 177t-26 99.5q-18 9 -110 9q-46 0 -68 -5q-10 0 -16.5 -2 t-12.5 -14.5t-6 -36.5q-2 -12 0 -81.5z" />
<glyph unicode="&#xbb;" horiz-adv-x="974" d="M29 870q7 30 33 34q22 3 47 -19q119 -85 241 -183q53 -45 123.5 -110t71.5 -78q-11 -40 -142 -191t-210 -227q-24 -22 -42.5 -19t-44.5 32q-2 6 1.5 17.5t13.5 27t20.5 30.5t26.5 35t27 33t27.5 32t21.5 25q4 6 47 55.5t81 96t36 51.5q-34 31 -68 60.5t-73.5 62t-64 52.5 t-74.5 59.5t-71 56.5q-36 29 -28 67zM431 884q6 31 33 34q22 1 46 -19q185 -136 242 -180q3 -3 60 -53t95 -87.5t39 -48.5q-11 -42 -143.5 -193.5t-208.5 -223.5q-24 -24 -43 -20.5t-43 30.5q-2 7 1 18.5t14 28l20 30t27 36t26.5 33t27.5 33t21 24.5q4 6 46.5 55.5 t80.5 95.5t37 51q-111 101 -350 289q-36 29 -28 67z" />
<glyph unicode="&#xbc;" horiz-adv-x="1017" d="M35.5 764.5q-9.5 23.5 0 47.5t32.5 24h168q0 398 -7 548q-8 -6 -127 -100q-25 -20 -43 2q-19 25 -1 58q6 10 14 18q10 8 33.5 30t40.5 36.5t46 30.5t60 22q19 5 39 -9.5t20 -33.5q0 -250 3 -371t3 -231h121q20 0 27.5 -23t-2 -45.5t-31.5 -22.5q-311 0 -364 -4 q-23 0 -32.5 23.5zM226 -16q-1 6 1 12l283 778q29 81 108 293.5t138 378.5q10 22 46 22q35 0 39 -21q1 -6 -1 -13q-47 -125 -113.5 -307.5t-120.5 -327.5q-42 -118 -143.5 -392t-153.5 -421q-8 -23 -45 -22q-34 0 -38 20zM618 369q0 135 3.5 223.5t3.5 95.5q0 24 22 30 t44 -7t22 -35q0 -12 -3.5 -34.5t-6.5 -78t-3 -147.5l54 -6q22 0 76.5 3t78.5 3q0 120 -3 170t-3 166q0 26 29 28q31 3 47 -20q6 -10 6 -21q3 -45 3 -140t-1.5 -275t-1.5 -314q-3 -22 -22 -28.5t-36.5 5.5t-17.5 33v314q-21 0 -65.5 -3t-61.5 -3h-88h-22q-54 0 -54 41z" />
<glyph unicode="&#xbd;" horiz-adv-x="1028" d="M35.5 764.5q-9.5 23.5 0 47.5t32.5 24h168q0 398 -7 548q-8 -6 -127 -100q-25 -20 -43 2q-19 25 -1 58q6 10 14 18q10 8 33.5 30t40.5 36.5t46 30.5t60 22q19 5 39 -9.5t20 -33.5q0 -250 3 -371t3 -231h121q20 0 27.5 -23t-2 -45.5t-31.5 -22.5q-311 0 -364 -4 q-23 0 -32.5 23.5zM226 -16q-1 6 1 12l283 778q29 81 108 293.5t138 378.5q10 22 46 22q35 0 39 -21q1 -6 -1 -13q-47 -125 -113.5 -307.5t-120.5 -327.5q-42 -118 -143.5 -392t-153.5 -421q-8 -23 -45 -22q-34 0 -38 20zM622.5 710.5q4.5 21.5 26.5 24.5q47 6 154 6l110 2 q40 0 49 -6.5t9 -29.5q2 -40 -2.5 -127.5t-1.5 -225.5q0 -26 -39 -34.5t-85.5 -5t-84.5 -1.5v-221q70 6 209 6q21 0 28.5 -21.5t-1 -43t-27.5 -21.5q-53 -6 -265 -6q-7 0 -10.5 4t-5 13.5t-1.5 17.5t0.5 23.5t0.5 23.5v272q0 18 23 29q19 10 94.5 12t97.5 7 q-2 89 -0.5 151.5t2.5 65.5t-2 30h-63q-32 0 -91 -3t-79 -3q-22 0 -36 20t-9.5 41.5z" />
<glyph unicode="&#xbe;" horiz-adv-x="1030" d="M38 711q-16 34 2 47q6 4 15 4q183 0 275 -6v250q-15 3 -91 1.5t-100 -1.5q-29 0 -42 28q-11 26 8 36q6 3 14 3q113 0 211 -4v53q0 49 2 129t2 111h-246q-25 0 -44 29q-18 29 2 40q7 3 17 3q182 0 297 4q19 0 34.5 -13.5t15.5 -33.5q4 -3 0 -118t-4 -169q0 -216 -11 -397 q-2 -19 -12 -29q-20 -7 -130.5 -1.5t-174.5 1.5q-25 0 -40 33zM239 -16q-1 6 1 12l282 778q29 81 108 293.5t138 378.5q10 22 46 22q35 0 39 -21q1 -6 -1 -13q-47 -125 -113.5 -307.5t-120.5 -327.5q-41 -113 -142 -388.5t-154 -424.5q-8 -23 -45 -22q-34 0 -38 20zM631 369 q0 135 3 223.5t3 95.5q0 24 22 30t44 -7t22 -35q0 -12 -3 -34.5t-6 -78t-3 -147.5l53 -6q22 0 77 3t79 3q0 120 -3.5 170t-3.5 166q0 26 29 28q31 3 47 -20q6 -10 6 -21q3 -45 3 -140t-1.5 -275t-1.5 -314q-3 -22 -21.5 -28.5t-36 5.5t-17.5 33v314q-21 0 -65.5 -3t-61.5 -3 h-88h-23q-53 0 -53 41z" />
<glyph unicode="&#xbf;" horiz-adv-x="425" d="M41 729q-1 23 15 30.5t28 -1.5q20 3 81 4t81 4q1 62 5 181.5t5 230.5q2 27 19.5 34t34 -6t14.5 -35q0 -107 -4 -233.5t-5 -216.5q0 -21 -16 -27q-22 -13 -96.5 -14t-91.5 -6q-1 -117 0.5 -328.5t1.5 -279.5h63q49 2 164 2q28 1 41 -34q12 -34 -5 -49q-6 -5 -14 -5 l-155 -3q-78 0 -103 -4q-36 -1 -46.5 9t-10.5 34q-2 117 -3 355.5t-3 357.5zM250 1303v98q-1 14 15.5 19.5t33.5 0t18 -19.5q0 -17 -3 -50.5t-3 -47.5q0 -20 -30.5 -20t-30.5 20z" />
<glyph unicode="&#xc0;" horiz-adv-x="415" d="M27 39q14 208 34 641q-10 16 2 39q18 497 21 663q0 14 12 32t23 18q31 3 102.5 11.5t108.5 10.5q16 0 25.5 -13t9.5 -28q10 -450 22 -1380q0 -24 -16 -36.5t-33.5 -4t-20.5 36.5l-8 651q-6 -6 -16 -6q-58 0 -168 -4q-5 -119 -29 -625q0 -24 -17 -37t-34.5 -4.5 t-17.5 35.5zM101.5 1633q3.5 -15 13.5 -27q20 -20 55 -58t43 -47q9 -12 23.5 -11.5t23.5 13.5q7 14 3 30.5t-15 27.5q-17 18 -49 53t-47 51q-10 12 -25.5 11.5t-22.5 -13.5q-6 -15 -2.5 -30zM129 752q21 1 83 4t97 6q-2 194 -14 602q-137 -17 -143 -18z" />
<glyph unicode="&#xc1;" horiz-adv-x="415" d="M27 39q14 208 34 641q-10 16 2 39q18 497 21 663q0 14 12 32t23 18q31 3 102.5 11.5t108.5 10.5q16 0 25.5 -13t9.5 -28q10 -450 22 -1380q0 -24 -16 -36.5t-33.5 -4t-20.5 36.5l-8 651q-6 -6 -16 -6q-58 0 -168 -4q-5 -119 -29 -625q0 -24 -17 -37t-34.5 -4.5 t-17.5 35.5zM129 752q21 1 83 4t97 6q-2 194 -14 602q-137 -17 -143 -18zM171.5 1534.5q3.5 17.5 14.5 28.5q54 57 107 116q10 12 26 11.5t25 -13.5q8 -16 4 -33t-16 -30q-18 -19 -53.5 -58t-53.5 -59q-10 -11 -26 -10.5t-23 14.5q-8 16 -4.5 33.5z" />
<glyph unicode="&#xc2;" horiz-adv-x="417" d="M29 27q14 208 34 641q-9 15 3 39q16 442 20 663q0 14 11.5 31.5t23.5 17.5q32 3 103 12t108 11q16 0 25.5 -13t9.5 -28q10 -448 22 -1381q0 -24 -16 -36.5t-33.5 -4t-20.5 36.5l-8 652q-6 -6 -16 -6q-31 0 -168 -5q-4 -114 -29 -624q0 -24 -17 -36.5t-34.5 -4.5t-17.5 35 zM109 1485q-13 20 10 47q58 66 88 96q9 9 21 9.5t18 -7.5q58 -62 88 -92q17 -23 0 -47q-17 -26 -41 -2q-18 21 -74 82q-13 -14 -37 -46t-35 -44q-10 -9 -21 -8.5t-17 12.5zM131 739q18 1 81.5 4.5t98.5 6.5q-2 194 -14 602q-10 -1 -62.5 -9t-80.5 -10z" />
<glyph unicode="&#xc3;" horiz-adv-x="417" d="M29 39q14 208 34 641q-9 15 3 39q16 442 20 663q0 14 12 32t23 18q31 3 102.5 11.5t108.5 10.5q16 0 25.5 -13t9.5 -28q10 -450 22 -1380q0 -24 -16 -36.5t-33.5 -4t-20.5 36.5l-8 651q-6 -6 -16 -6q-58 0 -168 -4q-5 -119 -29 -625q0 -24 -17 -37t-34.5 -4.5t-17.5 35.5 zM90 1544q17 47 76 58q29 7 74 -9q6 -3 17.5 -10t18 -10.5t16.5 -3.5t19 6q19 13 44 -4q24 -16 10 -31q-3 -3 -7 -6q-50 -39 -112 -2q-74 38 -90 -8q-5 -16 -23.5 -17t-33 10t-9.5 27zM131 752q21 1 83 4t97 6q-2 194 -14 602q-137 -17 -143 -18z" />
<glyph unicode="&#xc4;" horiz-adv-x="417" d="M29 39q14 208 34 641q-9 15 3 39q16 442 20 663q0 14 12 32t23 18q31 3 102.5 11.5t108.5 10.5q16 0 25.5 -13t9.5 -28q10 -450 22 -1380q0 -24 -16 -36.5t-33.5 -4t-20.5 36.5l-8 651q-6 -6 -16 -6q-58 0 -168 -4q-5 -119 -29 -625q0 -24 -17 -37t-34.5 -4.5t-17.5 35.5 zM106 1556q5 16 19.5 28.5t30.5 12.5h4q16 0 22.5 -13t3.5 -28q-4 -20 -16.5 -30.5t-23.5 -11.5l-11 -1q-18 0 -25 13t-4 30zM131 752q21 1 83 4t97 6q-2 194 -14 602q-137 -17 -143 -18zM270 1548q2 19 17.5 33.5t34.5 13.5q17 -1 25 -12.5t5 -26.5q-9 -47 -51 -47 q-13 0 -22.5 11.5t-8.5 27.5z" />
<glyph unicode="&#xc5;" horiz-adv-x="417" d="M27 39q14 208 34 641q-10 16 2 39q19 523 21 637q0 14 11.5 31.5t23.5 17.5q31 3 102.5 11.5t108.5 10.5q16 0 25.5 -13t9.5 -28q11 -490 22 -1353q0 -24 -16 -36.5t-33.5 -4t-20.5 36.5l-8 651q-6 -6 -16 -6q-58 0 -168 -4q-5 -119 -29 -625q0 -24 -17 -37t-34.5 -4.5 t-17.5 35.5zM129 752q21 1 83 4t97 6q-2 154 -14 575q-137 -17 -143 -18zM145 1565q3 41 62 53q52 7 82 -23l2 -2l2 -2q17 -25 10 -61q-1 -6 -6 -41q-4 -19 -14 -27q-19 -16 -50 -16q-29 -4 -51 2q-11 3 -17.5 13t-8 15.5t-4.5 22.5q-9 40 -7 66zM186 1540q0 -17 5.5 -34 t9.5 -21q17 -5 34.5 -2t18.5 14q5 12 6 34.5t-6 33.5q-20 20 -47 12q-9 -3 -14 -10q-7 -7 -7 -27z" />
<glyph unicode="&#xc6;" horiz-adv-x="940" d="M29 23q13 205 34 649q-9 15 3 39q20 566 22 671q0 14 12 33t23 19q31 3 103.5 11.5t109.5 10.5q16 0 25.5 -13t9.5 -28q10 -454 22 -1399q0 -24 -16 -36.5t-33 -4t-20 36.5l-9 660q-6 -6 -16 -6q-60 0 -170 -4q-5 -130 -29 -633q0 -24 -18 -36.5t-35.5 -4.5t-17.5 35z M133 745q18 1 82.5 4.5t99.5 6.5q-2 196 -14 608q-133 -17 -145 -18zM457 719q-6 220 6 674q0 15 17.5 29t33.5 14q125 -6 369 -6q27 0 26 -23q-1 -25 -26 -41q-12 -8 -23 -8q-209 0 -315 6q-12 -419 0 -629q35 4 71 6t59.5 1.5t65.5 -1t68 -0.5q27 0 23 -30t-27 -44 q-10 -7 -21 -5q-136 0 -239 -7q10 -317 10 -583q229 0 317 6q30 4 32 -26t-21 -48q-8 -7 -17 -8q-98 -10 -321 -10q-18 0 -41 -1q-19 -1 -24 0t-5 7q0 358 -18 727z" />
<glyph unicode="&#xc7;" d="M35 43q-10 289 0 674q1 71 4 213.5t4 214.5q1 30 6 65t10 57t16 66.5t15 61.5q8 28 51 32q46 2 136 7.5t133 7.5q32 1 31 -22t-27 -40q-13 -7 -25 -8q-145 -8 -223 -14q-37 -148 -39 -246q-12 -545 -14 -813q0 -12 2 -111t2 -114q1 0 10.5 -4.5t26.5 -8.5t39 -2 q11 1 33 2t32 2h168q31 0 31 -23q-1 -24 -27 -39q-12 -7 -24 -7q-37 0 -111 -4q-1 -5 -2 -15t-2 -14q68 -39 74 -76q2 -14 2.5 -42.5t1.5 -37.5q0 -19 -10.5 -32t-22 -19t-38 -16.5t-40.5 -16.5q-18 -9 -32.5 9t-13.5 42t19 33q10 5 21.5 11t25 12.5t19.5 9.5q0 14 -1.5 23 t-8 15.5t-10.5 9t-18 9t-21 9.5q-10 6 -17.5 21.5t-5.5 27.5q1 6 3 18.5t3 18.5q-105 0 -172 28q-14 7 -14 25z" />
<glyph unicode="&#xc8;" horiz-adv-x="509" d="M29 719q-6 220 6 674q0 15 17.5 29t33.5 14q125 -6 369 -6q27 0 26 -23q-1 -25 -26 -41q-12 -8 -23 -8q-209 0 -315 6q-12 -419 0 -629q35 4 71 6t59.5 1.5t65.5 -1t68 -0.5q27 0 23 -30t-27 -44q-11 -6 -21 -5q-136 0 -239 -7q10 -317 10 -583q229 0 317 6q30 4 32 -26 t-21 -48q-8 -7 -17 -8q-98 -10 -321 -10q-18 0 -41 -1q-19 -1 -24 0t-5 7q0 358 -18 727zM157 1644q4 -17 15 -30q37 -37 107 -115q10 -12 26 -11.5t25 13.5q17 29 -13 64q-19 20 -54 58t-52 56q-10 12 -26 11.5t-25 -13.5q-7 -16 -3 -33z" />
<glyph unicode="&#xc9;" horiz-adv-x="509" d="M29 719q-6 220 6 674q0 15 17.5 29t33.5 14q125 -6 369 -6q27 0 26 -23q-1 -25 -26 -41q-12 -8 -23 -8q-209 0 -315 6q-12 -419 0 -629q35 4 71 6t59.5 1.5t65.5 -1t68 -0.5q27 0 23 -30t-27 -44q-11 -6 -21 -5q-136 0 -239 -7q10 -317 10 -583q229 0 317 6q30 4 32 -26 t-21 -48q-8 -7 -17 -8q-98 -10 -321 -10q-18 0 -41 -1q-19 -1 -24 0t-5 7q0 358 -18 727zM171.5 1534.5q3.5 17.5 14.5 28.5q54 57 107 116q10 12 26 11.5t25 -13.5q8 -16 4 -33t-16 -30q-18 -19 -53.5 -58t-53.5 -59q-10 -11 -26 -10.5t-23 14.5q-8 16 -4.5 33.5z" />
<glyph unicode="&#xca;" horiz-adv-x="516" d="M33 719q-6 220 6 674q0 15 17.5 29t33.5 14q125 -6 369 -6q27 0 26 -23q-1 -25 -26 -41q-12 -8 -23 -8q-209 0 -315 6q-12 -419 0 -629q35 4 71 6t59.5 1.5t65.5 -1t68 -0.5q27 0 23 -30t-27 -44q-11 -6 -21 -5q-136 0 -239 -7q10 -317 10 -583q230 0 318 6 q30 4 31.5 -26t-21.5 -48q-8 -7 -17 -8q-98 -10 -321 -10q-18 0 -41 -1q-19 -1 -24 0t-5 7q0 358 -18 727zM150 1493q-13 20 10 47q58 66 88 96q9 9 21 9.5t18 -7.5q58 -62 88 -92q17 -23 0 -47q-17 -26 -41 -2q-18 21 -74 82q-13 -14 -37 -46t-35 -44q-10 -9 -21 -8.5 t-17 12.5z" />
<glyph unicode="&#xcb;" horiz-adv-x="509" d="M29 719q-6 220 6 674q0 15 17.5 29t33.5 14q125 -6 369 -6q27 0 26 -23q-1 -25 -26 -41q-12 -8 -23 -8q-209 0 -315 6q-12 -419 0 -629q35 4 71 6t59.5 1.5t65.5 -1t68 -0.5q27 0 23 -30t-27 -44q-11 -6 -21 -5q-136 0 -239 -7q10 -317 10 -583q229 0 317 6q30 4 32 -26 t-21 -48q-8 -7 -17 -8q-98 -10 -321 -10q-18 0 -41 -1q-19 -1 -24 0t-5 7q0 358 -18 727zM139 1552q5 16 19 28.5t30 12.5h5q16 0 22.5 -13t3.5 -28q-4 -20 -16.5 -31t-23.5 -11l-11 -1q-18 0 -25 13t-4 30zM303 1544q2 19 17.5 33.5t33.5 13.5q17 -1 25.5 -12.5t5.5 -26.5 q-9 -47 -51 -47q-13 0 -22.5 11.5t-8.5 27.5z" />
<glyph unicode="&#xcc;" horiz-adv-x="428" d="M43 44q4 34 26 48q7 4 13 4q19 0 55.5 3t44.5 3q8 120 6 586.5t-12 652.5v17h-104q-20 0 -21.5 21.5t8.5 43t17 21.5h272q16 -2 23 -17t4.5 -31.5t-11 -30t-20.5 -13.5h-98q8 -275 11 -655t-5 -595q12 0 51 3.5t64 3.5q23 0 20 -33q-4 -37 -28 -51q-7 -5 -15 -5 q-45 -4 -127 -4q-17 -10 -33 0q-12 0 -53 -3t-65 -3q-27 0 -23 34zM73 1615.5q4 -17.5 15 -30.5q37 -37 107 -115q10 -12 26 -11t25 14q17 29 -13 63q-19 20 -54 58.5t-52 56.5q-10 12 -26 11.5t-25 -13.5q-7 -16 -3 -33.5z" />
<glyph unicode="&#xcd;" horiz-adv-x="430" d="M43 44q4 34 26 48q7 4 13 4q19 0 55.5 3t44.5 3q8 120 6 586.5t-12 652.5v17h-104q-20 0 -21.5 21.5t8.5 43t17 21.5h272q16 -2 23 -17t4.5 -31.5t-11 -30t-20.5 -13.5h-98q8 -275 11 -655t-5 -595q12 0 51 3.5t64 3.5q23 0 20 -33q-4 -37 -28 -51q-7 -5 -15 -5 q-45 -4 -127 -4q-17 -10 -33 0q-12 0 -53 -3t-65 -3q-27 0 -23 34zM159.5 1510q3.5 17 14.5 28q37 39 107 117q10 12 26 11.5t25 -13.5q17 -29 -13 -64q-18 -20 -53.5 -58.5t-52.5 -57.5q-10 -11 -26 -10.5t-23 14.5q-8 16 -4.5 33z" />
<glyph unicode="&#xce;" horiz-adv-x="428" d="M43 44q4 34 26 48q7 4 13 4q19 0 55.5 3t44.5 3q8 120 6 586.5t-12 652.5v17h-104q-20 0 -21.5 21.5t8.5 43t17 21.5h272q16 -2 23 -17t4.5 -31.5t-11 -30t-20.5 -13.5h-98q8 -275 11 -655t-5 -595q12 0 51 3.5t64 3.5q23 0 20 -33q-4 -37 -28 -51q-7 -5 -15 -5 q-45 -4 -127 -4q-17 -10 -33 0q-12 0 -53 -3t-65 -3q-27 0 -23 34zM98 1491q-13 19 11 47q58 66 88 96q9 9 21 9.5t18 -7.5q58 -62 88 -92q17 -23 0 -47q-17 -26 -41 -2q-18 21 -74 82q-13 -14 -37 -46t-35 -44q-10 -9 -21.5 -8.5t-17.5 12.5z" />
<glyph unicode="&#xcf;" horiz-adv-x="428" d="M43 44q4 34 26 48q7 4 13 4q19 0 55.5 3t44.5 3q8 120 6 586.5t-12 652.5v17h-104q-20 0 -21.5 21.5t8.5 43t17 21.5h272q16 -2 23 -17t4.5 -31.5t-11 -30t-20.5 -13.5h-98q8 -275 11 -655t-5 -595q12 0 51 3.5t64 3.5q23 0 20 -33q-4 -37 -28 -51q-7 -5 -15 -5 q-45 -4 -127 -4q-17 -10 -33 0q-12 0 -53 -3t-65 -3q-27 0 -23 34zM76 1556q5 16 19 28.5t30 12.5h4q16 0 23 -13t4 -28q-4 -20 -17 -31t-24 -11l-11 -1q-17 0 -24 13t-4 30zM240 1548q2 19 17.5 33.5t33.5 13.5q17 -1 25.5 -12.5t5.5 -26.5q-9 -47 -52 -47q-13 0 -22 11 t-8 28z" />
<glyph unicode="&#xd0;" horiz-adv-x="468" d="M-25.5 542.5q-10.5 9.5 0.5 28.5q7 14 20 25.5t21 11.5h230q9 0 19 -13.5t3 -23.5q-8 -14 -20 -23.5t-22 -14t-27.5 -7t-26 -3t-29.5 0t-26 0.5q-68 0 -105 4q-27 5 -37.5 14.5zM31 14v703q0 123 3 368.5t3 368.5q4 21 32.5 26.5t43.5 -1.5q69 -40 202 -103 q29 -13 56 -168q49 -306 53 -452q14 -243 14 -305q7 -60 -170 -392q-7 -18 -35.5 -30.5t-69.5 -22t-50 -12.5q-31 -16 -56.5 -12t-25.5 32zM119 70l74 22l10 29q81 166 121 244l24 59v68q-3 85 -6 149.5t-5 104t-8 100.5t-9 85t-14.5 114t-16.5 133q-2 23 -10.5 63.5 t-10.5 56.5q-39 30 -62 44t-83 42q-15 -241 -4 -684v-630z" />
<glyph unicode="&#xd1;" horiz-adv-x="460" d="M29 -12q21 1042 16 1411q0 12 12 24q7 11 33 11q25 0 31 -17q23 -101 41 -203q71 -313 153 -702q11 -52 17 -76l12 -47h2q4 0 4 6v547q0 79 2 237t2 238q0 17 15 29t34 12q10 0 19.5 -6t9.5 -18q0 -81 -3 -241.5t-3 -236.5q0 -639 6 -956q0 -13 -12 -25q-3 -1 -18.5 -8.5 t-22.5 -7.5q-25 0 -25 16q-176 794 -204 924l-17 98l-6 7q-3 0 -4.5 -2t-1.5 -4v-1q0 -196 -9 -566.5t-10 -424.5q0 -17 -15.5 -26t-35.5 -9q-12 0 -18 4q-4 0 -4 13zM78 1535q0 4 2 7q20 39 78 60q21 7 49 4.5t49 -13.5q4 -2 16 -8.5t19 -9t17.5 -6t19 -2t16.5 7.5 q19 13 44 -5q24 -17 10 -33l-7 -5q-29 -21 -63 -20.5t-66 18.5q-17 9 -36 14t-43.5 1t-37.5 -23q-17 -24 -46 -14q-25 8 -21 27z" />
<glyph unicode="&#xd2;" horiz-adv-x="450" d="M29.5 435.5q-2.5 221.5 6.5 509.5t9 421q0 17 15 31t32 14q23 0 76.5 1.5t80.5 1t69 -6.5t79 -18q9 0 17 -7t8 -16q-9 -153 -9 -335t4 -334.5t-5.5 -334.5t-36.5 -335q0 -17 -14.5 -26t-30.5 -9q-27 -6 -76 -6h-6h-12q-103 0 -144 6q-35 0 -35 22q-25 200 -27.5 421.5z M110 460q2 -212 23 -401q41 -6 131 -6h39q23 146 30.5 317.5t3.5 316.5t-5 318t4 322q-76 19 -211 19q0 -131 -8.5 -402.5t-6.5 -483.5zM138.5 1615.5q4.5 -17.5 15.5 -30.5q27 -27 106 -115q10 -12 26 -11t25 14q8 16 4 33t-16 30q-19 20 -54 58.5t-52 56.5 q-10 12 -26.5 11.5t-25.5 -13.5q-7 -16 -2.5 -33.5z" />
<glyph unicode="&#xd3;" horiz-adv-x="450" d="M29.5 435.5q-2.5 221.5 6.5 509.5t9 421q0 17 15 31t32 14q23 0 76.5 1.5t80.5 1t69 -6.5t79 -18q9 0 17 -7t8 -16q-9 -153 -9 -335t4 -334.5t-5.5 -334.5t-36.5 -335q0 -17 -14.5 -26t-30.5 -9q-27 -6 -76 -6h-6h-12q-103 0 -144 6q-35 0 -35 22q-25 200 -27.5 421.5z M110 460q2 -212 23 -401q41 -6 131 -6h39q23 146 30.5 317.5t3.5 316.5t-5 318t4 322q-76 19 -211 19q0 -131 -8.5 -402.5t-6.5 -483.5zM182 1534.5q4 17.5 15 28.5q35 37 106 116q10 12 26 11.5t25 -13.5q8 -16 4 -33t-16 -30q-17 -19 -53 -58.5t-53 -58.5 q-10 -11 -26.5 -10.5t-23.5 14.5q-8 16 -4 33.5z" />
<glyph unicode="&#xd4;" horiz-adv-x="450" d="M29.5 435.5q-2.5 221.5 6.5 509.5t9 421q0 17 15 31t32 14q23 0 76.5 1.5t80.5 1t69 -6.5t79 -18q9 0 17 -7t8 -16q-9 -153 -9 -335t4 -334.5t-5.5 -334.5t-36.5 -335q0 -17 -14.5 -26t-30.5 -9q-27 -6 -76 -6h-6h-12q-103 0 -144 6q-35 0 -35 22q-25 200 -27.5 421.5z M110 460q2 -212 23 -401q41 -6 131 -6h39q23 146 30.5 317.5t3.5 316.5t-5 318t4 322q-76 19 -211 19q0 -131 -8.5 -402.5t-6.5 -483.5zM127 1483q-13 20 10 47q58 66 88 96q9 9 21 9.5t18 -7.5q58 -62 88 -92q17 -23 0 -47q-17 -26 -41 -2q-30 36 -73 82q-13 -14 -37 -46 t-35 -44q-10 -9 -21.5 -8.5t-17.5 12.5z" />
<glyph unicode="&#xd5;" horiz-adv-x="450" d="M29.5 435.5q-2.5 221.5 6.5 509.5t9 421q0 17 15 31t32 14q23 0 76.5 1.5t80.5 1t69 -6.5t79 -18q9 0 17 -7t8 -16q-9 -153 -9 -335t4 -334.5t-5.5 -334.5t-36.5 -335q0 -17 -14.5 -26t-30.5 -9q-27 -6 -76 -6h-6h-12q-103 0 -144 6q-35 0 -35 22q-25 200 -27.5 421.5z M96 1532q17 48 78 59q31 7 74 -8q6 -3 18 -10.5t19 -11t17.5 -3.5t19.5 7q19 13 44 -5q24 -17 10 -33l-7 -5q-49 -39 -115 -2q-11 6 -18.5 9.5t-20 7t-21.5 2.5t-18 -8t-14 -20q-5 -16 -23.5 -17t-33 10.5t-9.5 27.5zM110 460q2 -212 23 -401q41 -6 131 -6h39 q23 146 30.5 317.5t3.5 316.5t-5 318t4 322q-76 19 -211 19q0 -131 -8.5 -402.5t-6.5 -483.5z" />
<glyph unicode="&#xd6;" horiz-adv-x="452" d="M29.5 435.5q-2.5 221.5 6.5 509.5t9 421q0 17 15 31t32 14q23 0 76.5 1.5t80.5 1t69 -6.5t79 -18q9 0 17 -7t8 -16q-9 -153 -9 -335t4 -334.5t-5.5 -334.5t-36.5 -335q0 -17 -14.5 -26t-30.5 -9q-27 -6 -76 -6h-6h-12q-103 0 -144 6q-35 0 -35 22q-25 200 -27.5 421.5z M110 460q2 -212 23 -401q41 -6 131 -6h39q23 146 30.5 317.5t3.5 316.5t-5 318t4 322q-76 19 -211 19q0 -131 -8.5 -402.5t-6.5 -483.5zM127 1556q5 16 19 28.5t30 12.5h4q16 0 23 -13t4 -28q-4 -20 -16.5 -30.5t-23.5 -11.5l-11 -1q-18 0 -25 13t-4 30zM291 1548 q2 19 17.5 33.5t33.5 13.5q17 -1 25.5 -12.5t5.5 -26.5q-9 -47 -51 -47q-13 0 -22.5 11.5t-8.5 27.5z" />
<glyph unicode="&#xd7;" horiz-adv-x="608" d="M41 846q26 16 68 -1q17 -6 30 -18q84 -77 164 -155q135 125 199 182q34 34 49 6q14 -28 -4 -69q-7 -16 -19 -27q-27 -25 -81 -75.5t-82 -76.5q106 -94 194 -180q35 -32 8 -49q-27 -16 -69 0q-17 6 -29 18q-54 49 -166 156q-33 -30 -98.5 -93t-98.5 -93q-36 -33 -51 -4 q-15 28 3 68q7 17 20 28q27 25 83 75t83 76q-55 49 -195 183q-36 32 -8 49z" />
<glyph unicode="&#xd8;" horiz-adv-x="462" d="M31 446.5q-3 227.5 6.5 522t9.5 432.5q0 17 15 31t32 14h46h48t42.5 -0.5t46 -2t41.5 -4t46.5 -6.5t43.5 -10q9 0 16.5 -6.5t7.5 -15.5q-7 -247 -2.5 -451.5t-5 -461t-39.5 -461.5q0 -25 -58 -35.5t-122 -8.5t-111 9q-35 0 -35 22q-25 205 -28 432.5zM113 472 q2 -217 24 -411q41 -6 133 -6h41q26 194 32 433.5t0 432.5t1 439q-74 18 -215 18q0 -135 -9 -412t-7 -494zM123 -131l98 821q65 532 109 912q4 23 38 30q36 8 44 -12q3 -5 2 -12q-19 -145 -53.5 -436.5t-53.5 -436.5l-51 -429l-51 -429q-2 -23 -36 -31q-33 -8 -44 10 q-3 5 -2 13z" />
<glyph unicode="&#xd9;" horiz-adv-x="411" d="M29 1405q0 26 26 28q28 3 43 -20q6 -9 6 -20q3 -155 8.5 -614t14.5 -713h12h162q1 30 4 124.5t6 147.5q5 53 1 459t-11 589q0 33 26 48q25 13 37 -10q4 -8 5 -19q7 -143 8.5 -391t3.5 -330q6 -215 -19 -664q-15 -40 -38 -40h-191q-51 0 -68 9t-14 31q-6 233 -11 693 t-11 692zM83 1619.5q4 -17.5 15 -30.5q46 -46 107 -114q10 -12 26 -11.5t25 13.5q8 16 4 33t-16 30q-19 20 -54.5 58.5t-52.5 56.5q-10 12 -26 11.5t-25 -13.5q-7 -16 -3 -33.5z" />
<glyph unicode="&#xda;" horiz-adv-x="411" d="M29 1405q0 26 26 28q28 3 43 -20q6 -9 6 -20q3 -155 8.5 -614t14.5 -713h12h162q1 30 4 124.5t6 147.5q5 53 1 459t-11 589q0 33 26 48q25 13 37 -10q4 -8 5 -19q7 -143 8.5 -391t3.5 -330q6 -215 -19 -664q-15 -40 -38 -40h-191q-51 0 -68 9t-14 31q-6 233 -11 693 t-11 692zM137 1546.5q4 17.5 15 28.5q18 19 106 117q10 12 26 11.5t25 -13.5q8 -16 4 -33.5t-16 -30.5q-18 -20 -53.5 -59t-53.5 -58q-10 -11 -26 -10.5t-23 14.5q-8 16 -4 33.5z" />
<glyph unicode="&#xdb;" horiz-adv-x="411" d="M29 1405q0 26 26 28q28 3 43 -20q6 -9 6 -20q3 -155 8.5 -614t14.5 -713h12h162q1 30 4 124.5t6 147.5q5 53 1 459t-11 589q0 33 26 48q25 13 37 -10q4 -8 5 -19q7 -143 8.5 -391t3.5 -330q6 -215 -19 -664q-15 -40 -38 -40h-191q-51 0 -68 9t-14 31q-6 233 -11 693 t-11 692zM90 1485q-13 20 10 47q58 66 88 96q9 9 21 9.5t18 -7.5q58 -62 88 -92q17 -23 0 -47q-17 -26 -41 -2q-31 36 -73 82q-13 -14 -37 -46t-35 -44q-10 -9 -21.5 -8.5t-17.5 12.5z" />
<glyph unicode="&#xdc;" horiz-adv-x="411" d="M29 1405q0 26 26 28q28 3 43 -20q6 -9 6 -20q3 -155 8.5 -614t14.5 -713h12h162q1 30 4 124.5t6 147.5q5 53 1 459t-11 589q0 33 26 48q25 13 37 -10q4 -8 5 -19q7 -143 8.5 -391t3.5 -330q6 -215 -19 -664q-15 -40 -38 -40h-191q-51 0 -68 9t-14 31q-6 233 -11 693 t-11 692zM94 1556q5 16 19 28.5t30 12.5h4q16 0 23 -13t4 -28q-4 -20 -16.5 -30.5t-23.5 -11.5l-11 -1q-18 0 -25 13t-4 30zM258 1548q2 19 17.5 33.5t33.5 13.5q17 -1 25.5 -12.5t5.5 -26.5q-9 -47 -51 -47q-13 0 -22.5 11.5t-8.5 27.5z" />
<glyph unicode="&#xdd;" d="M32 18q7 28 34 42q10 6 20 6q149 0 223 2q26 527 29 589q-33 -2 -100 -2h-88q-76 0 -76 41q0 123 4 365.5t4 365.5q0 34 25 34q24 0 37 -24q6 -10 6 -22q-3 -131 -6.5 -371.5t-4.5 -298.5q13 1 37.5 -0.5t32.5 -1.5q23 0 70.5 3t62.5 4q4 110 12.5 332t12.5 333 q4 26 36 38q35 13 48 -9q4 -7 4 -17q-11 -228 -32.5 -689t-33.5 -695q0 -22 -16 -34.5t-35 -12.5q-47 0 -141.5 -3t-141.5 -3q-29 0 -23 28zM204.5 1518q3.5 17 14.5 28q37 39 107 117q10 12 26 11.5t25 -13.5q8 -16 4 -33.5t-16 -30.5q-17 -19 -53.5 -58t-53.5 -58 q-10 -11 -26 -10.5t-23 14.5q-8 16 -4.5 33z" />
<glyph unicode="&#xde;" horiz-adv-x="454" d="M31 1430q0 19 20.5 27.5t41.5 1t22 -28.5q1 -45 2 -135.5t2 -135.5q182 0 274 2q29 0 29 -45q2 -51 2 -158q1 -38 0 -81t-3 -95.5t-3 -81.5q-1 -56 -1 -76t2 -75.5t3 -75.5q2 -14 -8 -27t-25 -14l-268 -10v-4q2 -23 2 -70q4 -101 8 -303q1 -19 -19 -30.5t-41 -7t-22 23.5 q-1 58 -4 172.5t-4 171.5q-3 80 -3.5 166t0.5 204.5t1 165.5q0 175 -8 519zM119 1075q5 -236 2 -530v-41q163 8 237 10l-4 119q-1 59 8 256q1 36 -0.5 101.5t-1.5 86.5q-80 -2 -241 -2z" />
<glyph unicode="&#xdf;" horiz-adv-x="690" d="M31 1348q6 24 18 36l41 23h344q18 0 25 -12q41 -68 103.5 -196.5t86.5 -172.5q9 -17 10 -32.5t-2 -24.5t-10 -25t-10 -24q-16 -26 -30 -58t-30.5 -75t-23.5 -58q12 -12 22 -28t16 -31.5t10.5 -41t6.5 -41.5t3 -48.5t1 -48v-53.5v-52v-346q0 -26 -19 -36.5t-40 -10.5h-238 q-27 0 -26 24q0 26 25 41q11 6 24 6q113 0 192 11v274q0 186 -6.5 234t-42.5 92h-10q-32 -5 -65.5 -5.5t-86.5 0.5t-75 1t-17 33q5 35 28 47q6 4 13 4q143 0 213 10q69 134 97 215q-50 91 -179 356h-297q0 -824 11 -1308q0 -23 -29 -35q-30 -13 -40 8q-3 6 -3 14 q-10 440 -10 1334z" />
<glyph unicode="&#xe0;" horiz-adv-x="432" d="M32 1390q4 26 30 40q11 7 22 6q46 -3 114 2t115 2q24 -4 27 -21q42 -179 53 -340q3 -59 8 -358v-73v-78t-0.5 -72t-1 -78t-1.5 -72t-3 -78t-5 -72t-6.5 -78t-8.5 -73q-2 -16 -14 -29t-29 -14q-5 0 -23.5 -2.5t-33.5 -4t-37 -3t-40 -1.5t-35 1.5t-29 6t-17 11.5 q-4 6 -13.5 20.5t-12 18.5t-9.5 16.5t-8.5 20.5t-6 23t-6.5 32.5t-4.5 41.5t-5.5 55q-21 261 31 450q3 11 15.5 21.5t25.5 13.5q76 16 196 27q-1 26 -1.5 90.5t-1.5 110.5t-5 91q-7 134 -47 322q-33 1 -96 -3t-109 -1q-31 1 -27 28zM91 1632q4 -17 15 -30q50 -50 105 -115 q10 -11 26 -10.5t25 12.5q8 16 4 33t-16 30q-19 20 -53.5 58.5t-51.5 56.5q-10 12 -26 11.5t-25 -13.5q-7 -16 -3 -33zM129 297q1 -14 4 -49.5t4 -47t4 -33t7.5 -35t11.5 -26.5l24 -32l58 -2q44 0 57 10q20 197 20 588q-34 -2 -167 -17q-39 -151 -23 -356z" />
<glyph unicode="&#xe1;" horiz-adv-x="432" d="M32 1390q4 26 30 40q11 7 22 6q46 -3 114 2t115 2q24 -4 27 -21q42 -179 53 -340q3 -59 8 -358v-73v-78t-0.5 -72t-1 -78t-1.5 -72t-3 -78t-5 -72t-6.5 -78t-8.5 -73q-2 -16 -14 -29t-29 -14q-5 0 -23.5 -2.5t-33.5 -4t-37 -3t-40 -1.5t-35 1.5t-29 6t-17 11.5 q-4 6 -13.5 20.5t-12 18.5t-9.5 16.5t-8.5 20.5t-6 23t-6.5 32.5t-4.5 41.5t-5.5 55q-21 261 31 450q3 11 15.5 21.5t25.5 13.5q76 16 196 27q-1 26 -1.5 90.5t-1.5 110.5t-5 91q-7 134 -47 322q-33 1 -96 -3t-109 -1q-31 1 -27 28zM129 297q1 -14 4 -49.5t4 -47t4 -33 t7.5 -35t11.5 -26.5l24 -32l58 -2q44 0 57 10q20 197 20 588q-34 -2 -167 -17q-39 -151 -23 -356zM171.5 1534.5q3.5 17.5 14.5 28.5q54 57 107 116q10 12 26 11.5t25 -13.5q8 -16 4 -33t-16 -30q-18 -19 -53.5 -58t-53.5 -59q-10 -11 -26 -10.5t-23 14.5q-8 16 -4.5 33.5z " />
<glyph unicode="&#xe2;" horiz-adv-x="432" d="M32 1390q4 26 30 40q11 7 22 6q46 -3 114 2t115 2q24 -4 27 -21q42 -179 53 -340q3 -59 8 -358v-73v-78t-0.5 -72t-1 -78t-1.5 -72t-3 -78t-5 -72t-6.5 -78t-8.5 -73q-2 -16 -14 -29t-29 -14q-5 0 -23.5 -2.5t-33.5 -4t-37 -3t-40 -1.5t-35 1.5t-29 6t-17 11.5 q-4 6 -13.5 20.5t-12 18.5t-9.5 16.5t-8.5 20.5t-6 23t-6.5 32.5t-4.5 41.5t-5.5 55q-21 261 31 450q3 11 15.5 21.5t25.5 13.5q76 16 196 27q-1 26 -1.5 90.5t-1.5 110.5t-5 91q-7 134 -47 322q-33 1 -96 -3t-109 -1q-31 1 -27 28zM80 1485q-13 20 10 47q58 66 88 96 q9 9 21 9.5t18 -7.5q58 -62 88 -92q17 -23 0 -47q-17 -26 -41 -2q-18 21 -74 82q-13 -14 -36.5 -46t-34.5 -44q-10 -9 -21.5 -8.5t-17.5 12.5zM129 297q1 -14 4 -49.5t4 -47t4 -33t7.5 -35t11.5 -26.5l24 -32l58 -2q44 0 57 10q20 197 20 588q-34 -2 -167 -17 q-39 -151 -23 -356z" />
<glyph unicode="&#xe3;" horiz-adv-x="432" d="M27 1539q0 4 2 7q20 39 77 60q21 7 49.5 4.5t49.5 -13.5q4 -2 16 -8.5t19 -9t17.5 -6t19 -2t16.5 7.5q19 13 44 -5q24 -17 10 -33l-7 -5q-29 -21 -63 -20.5t-66 18.5q-17 9 -36 14t-43.5 1t-37.5 -23q-17 -24 -46 -14q-25 8 -21 27zM32 1390q4 26 30 40q11 7 22 6 q46 -3 114 2t115 2q24 -4 27 -21q42 -179 53 -340q3 -59 8 -358v-73v-78t-0.5 -72t-1 -78t-1.5 -72t-3 -78t-5 -72t-6.5 -78t-8.5 -73q-2 -16 -14 -29t-29 -14q-5 0 -23.5 -2.5t-33.5 -4t-37 -3t-40 -1.5t-35 1.5t-29 6t-17 11.5q-4 6 -13.5 20.5t-12 18.5t-9.5 16.5 t-8.5 20.5t-6 23t-6.5 32.5t-4.5 41.5t-5.5 55q-21 261 31 450q3 11 15.5 21.5t25.5 13.5q76 16 196 27q-1 26 -1.5 90.5t-1.5 110.5t-5 91q-7 134 -47 322q-33 1 -96 -3t-109 -1q-31 1 -27 28zM129 297q1 -14 4 -49.5t4 -47t4 -33t7.5 -35t11.5 -26.5l24 -32l58 -2 q44 0 57 10q20 197 20 588q-34 -2 -167 -17q-39 -151 -23 -356z" />
<glyph unicode="&#xe4;" horiz-adv-x="432" d="M32 1390q4 26 30 40q11 7 22 6q46 -3 114 2t115 2q24 -4 27 -21q42 -179 53 -340q3 -59 8 -358v-73v-78t-0.5 -72t-1 -78t-1.5 -72t-3 -78t-5 -72t-6.5 -78t-8.5 -73q-2 -16 -14 -29t-29 -14q-5 0 -23.5 -2.5t-33.5 -4t-37 -3t-40 -1.5t-35 1.5t-29 6t-17 11.5 q-4 6 -13.5 20.5t-12 18.5t-9.5 16.5t-8.5 20.5t-6 23t-6.5 32.5t-4.5 41.5t-5.5 55q-21 261 31 450q3 11 15.5 21.5t25.5 13.5q76 16 196 27q-1 26 -1.5 90.5t-1.5 110.5t-5 91q-7 134 -47 322q-33 1 -96 -3t-109 -1q-31 1 -27 28zM106 1556q5 16 19.5 28.5t30.5 12.5h4 q16 0 22.5 -13t3.5 -28q-4 -20 -16.5 -30.5t-23.5 -11.5l-11 -1q-18 0 -25 13t-4 30zM129 297q1 -14 4 -49.5t4 -47t4 -33t7.5 -35t11.5 -26.5l24 -32l58 -2q44 0 57 10q20 197 20 588q-34 -2 -167 -17q-39 -151 -23 -356zM270 1548q2 19 17.5 33.5t34.5 13.5 q17 -1 25 -12.5t5 -26.5q-9 -47 -51 -47q-13 0 -22.5 11.5t-8.5 27.5z" />
<glyph unicode="&#xe5;" horiz-adv-x="432" d="M32 1390q4 26 30 40q11 7 22 6q46 -3 114 2t115 2q24 -4 27 -21q42 -179 53 -340q3 -59 8 -358v-73v-78t-0.5 -72t-1 -78t-1.5 -72t-3 -78t-5 -72t-6.5 -78t-8.5 -73q-2 -16 -14 -29t-29 -14q-5 0 -23.5 -2.5t-33.5 -4t-37 -3t-40 -1.5t-35 1.5t-29 6t-17 11.5 q-4 6 -13.5 20.5t-12 18.5t-9.5 16.5t-8.5 20.5t-6 23t-6.5 32.5t-4.5 41.5t-5.5 55q-21 261 31 450q3 11 15.5 21.5t25.5 13.5q76 16 196 27q-1 26 -1.5 90.5t-1.5 110.5t-5 91q-7 134 -47 322q-33 1 -96 -3t-109 -1q-31 1 -27 28zM129 297q1 -14 4 -49.5t4 -47t4 -33 t7.5 -35t11.5 -26.5l24 -32l58 -2q44 0 57 10q20 197 20 588q-34 -2 -167 -17q-39 -151 -23 -356zM145 1546q3 41 62 53q53 7 82 -22l2 -2l2 -2q17 -25 10 -62q-1 -6 -6 -41q-4 -18 -14 -26q-20 -17 -50 -17q-26 -3 -51 3q-11 3 -17.5 13t-8 15.5t-4.5 22.5q-9 40 -7 65z M186 1522q0 -17 5.5 -34.5t9.5 -21.5q17 -5 34.5 -1.5t18.5 14.5q5 12 6 34t-6 33q-21 21 -47 13q-9 -3 -14 -11q-7 -7 -7 -26z" />
<glyph unicode="&#xe6;" horiz-adv-x="909" d="M32 1390q4 26 30 40q11 7 22 6q46 -3 114 2t115 2q24 -4 27 -21q42 -179 53 -340q3 -59 8 -358v-73v-78t-0.5 -72t-1 -78t-1.5 -72t-3 -78t-5 -72t-6.5 -78t-8.5 -73q-2 -16 -14 -29t-29 -14q-5 0 -23.5 -2.5t-33.5 -4t-37 -3t-40 -1.5t-35 1.5t-29 6t-17 11.5 q-4 6 -13.5 20.5t-12 18.5t-9.5 16.5t-8.5 20.5t-6 23t-6.5 32.5t-4.5 41.5t-5.5 55q-21 261 31 450q3 11 15.5 21.5t25.5 13.5q76 16 196 27q-1 26 -1.5 90.5t-1.5 110.5t-5 91q-7 134 -47 322q-33 1 -96 -3t-109 -1q-31 1 -27 28zM129 297q1 -14 4 -49.5t4 -47t4 -33 t7.5 -35t11.5 -26.5l24 -32l58 -2q44 0 57 10q20 197 20 588q-34 -2 -167 -17q-39 -151 -23 -356zM463 721q-4 437 26 665q3 16 14.5 28.5t28.5 15.5q24 4 66 6.5t88 -1t57 -14.5q17 -15 36 -45.5t20 -52.5q2 -21 5 -63t5 -62q20 -260 -29 -446q-4 -12 -17.5 -21.5 t-25.5 -11.5q-87 -8 -192 -21q0 -199 6 -297q8 -124 47 -317h2q168 -12 250 -16q31 -2 28 -30q-4 -25 -29 -39q-12 -6 -24 -5q-46 3 -137.5 8t-136.5 8q-23 4 -29 21q-42 195 -49 336q-10 119 -10 354zM545 770q52 4 164 16q38 151 22 355q-8 92 -10 131q-5 49 -27 76 l-14 12q-9 4 -56.5 4t-58.5 -4q-24 -203 -20 -590z" />
<glyph unicode="&#xe7;" horiz-adv-x="487" d="M31 289q6 209 14 651l6 258q0 45 10 127t11 96q2 12 9.5 23t18.5 10q51 -4 156.5 -11t159.5 -11q20 -1 29.5 -17t7.5 -35q-6 -44 -9 -92q-4 -40 -38 -33q-14 3 -21.5 19t-5.5 31q4 28 4 41l-252 22q-8 -90 -14 -133l-2 -51q-9 -334 -15 -680q-4 -277 -2 -416h17 q48 0 138 -2t138 -2q0 25 2 45q-3 44 27 47q32 0 35 -43q2 -35 2 -90q0 -16 -7 -30.5t-22 -14.5h-145q-1 -4 -2 -13t-2 -12q20 -12 32 -20t25 -23.5t16 -31.5q2 -14 2.5 -36t1.5 -30q0 -19 -10.5 -32t-22 -19t-38 -16.5t-39.5 -16.5q-18 -8 -32.5 6t-13.5 35t19 29 q8 4 24 9.5t27 10.5t15 12q10 32 -60 66q-10 6 -17 21.5t-5 27.5l6 33q-24 0 -70.5 1t-68.5 1q-14 1 -24.5 14t-10.5 27q-7 140 -4 248z" />
<glyph unicode="&#xe8;" horiz-adv-x="477" d="M31 721q-4 437 26 665q3 16 14.5 28.5t28.5 15.5q24 4 66 6.5t88 -1t57 -14.5q17 -15 36 -45.5t20 -52.5q2 -21 5 -63t5 -62q20 -260 -29 -446q-4 -12 -17.5 -21.5t-25.5 -11.5q-87 -8 -192 -21q0 -199 6 -297q8 -124 47 -317h2q168 -12 250 -16q31 -2 28 -30 q-4 -25 -29 -39q-12 -6 -24 -5q-46 3 -137.5 8t-136.5 8q-23 4 -29 21q-42 195 -49 336q-10 119 -10 354zM91 1632q4 -17 15 -30q50 -50 105 -115q10 -11 26 -10.5t25 12.5q8 16 4 33t-16 30q-19 20 -53.5 58.5t-51.5 56.5q-10 12 -26 11.5t-25 -13.5q-7 -16 -3 -33z M113 770q49 4 163 16q39 154 23 355q-8 92 -10 131q-5 49 -27 76l-14 12q-9 4 -56.5 4t-58.5 -4q-24 -203 -20 -590z" />
<glyph unicode="&#xe9;" horiz-adv-x="477" d="M31 721q-4 437 26 665q3 16 14.5 28.5t28.5 15.5q24 4 66 6.5t88 -1t57 -14.5q17 -15 36 -45.5t20 -52.5q2 -21 5 -63t5 -62q20 -260 -29 -446q-4 -12 -17.5 -21.5t-25.5 -11.5q-87 -8 -192 -21q0 -199 6 -297q8 -124 47 -317h2q168 -12 250 -16q31 -2 28 -30 q-4 -25 -29 -39q-12 -6 -24 -5q-46 3 -137.5 8t-136.5 8q-23 4 -29 21q-42 195 -49 336q-10 119 -10 354zM113 770q49 4 163 16q39 154 23 355q-8 92 -10 131q-5 49 -27 76l-14 12q-9 4 -56.5 4t-58.5 -4q-24 -203 -20 -590zM171.5 1534.5q3.5 17.5 14.5 28.5q54 57 107 116 q10 12 26 11.5t25 -13.5q8 -16 4 -33t-16 -30q-18 -19 -53.5 -58t-53.5 -59q-10 -11 -26 -10.5t-23 14.5q-8 16 -4.5 33.5z" />
<glyph unicode="&#xea;" horiz-adv-x="477" d="M31 721q-4 437 26 665q3 16 14.5 28.5t28.5 15.5q24 4 66 6.5t88 -1t57 -14.5q17 -15 36 -45.5t20 -52.5q2 -21 5 -63t5 -62q20 -260 -29 -446q-4 -12 -17.5 -21.5t-25.5 -11.5q-87 -8 -192 -21q0 -199 6 -297q8 -124 47 -317h2q168 -12 250 -16q31 -2 28 -30 q-4 -25 -29 -39q-12 -6 -24 -5q-46 3 -137.5 8t-136.5 8q-23 4 -29 21q-42 195 -49 336q-10 119 -10 354zM86 1477q-13 20 10 47q58 66 88 96q9 9 21 9.5t18 -7.5q58 -62 88 -92q17 -23 0 -47q-17 -26 -41 -2q-30 36 -73 82q-13 -14 -37 -46t-35 -44q-10 -9 -21.5 -8.5 t-17.5 12.5zM113 770q49 4 163 16q39 154 23 355q-8 92 -10 131q-5 49 -27 76l-14 12q-9 4 -56.5 4t-58.5 -4q-24 -203 -20 -590z" />
<glyph unicode="&#xeb;" horiz-adv-x="477" d="M31 721q-4 437 26 665q3 16 14.5 28.5t28.5 15.5q24 4 66 6.5t88 -1t57 -14.5q17 -15 36 -45.5t20 -52.5q2 -21 5 -63t5 -62q20 -260 -29 -446q-4 -12 -17.5 -21.5t-25.5 -11.5q-87 -8 -192 -21q0 -199 6 -297q8 -124 47 -317h2q168 -12 250 -16q31 -2 28 -30 q-4 -25 -29 -39q-12 -6 -24 -5q-46 3 -137.5 8t-136.5 8q-23 4 -29 21q-42 195 -49 336q-10 119 -10 354zM78 1548q5 16 19 28.5t30 12.5h4q16 0 23 -13t4 -28q-4 -20 -17 -31t-24 -11l-11 -1q-17 0 -24 13t-4 30zM113 770q49 4 163 16q39 154 23 355q-8 92 -10 131 q-5 49 -27 76l-14 12q-9 4 -56.5 4t-58.5 -4q-24 -203 -20 -590zM242 1540q2 19 17.5 33.5t33.5 13.5q17 -1 25.5 -12.5t5.5 -26.5q-9 -47 -52 -47q-13 0 -22 11t-8 28z" />
<glyph unicode="&#xec;" horiz-adv-x="268" d="M32 1513q4 -17 15 -30q37 -37 107 -115q10 -12 26 -11.5t25 13.5q8 16 4 33.5t-16 30.5q-20 21 -55.5 59t-51.5 55q-10 12 -26 11.5t-25 -13.5q-7 -16 -3 -33zM127 1206q0 30 29 44q26 12 38 -9q5 -10 5 -22q5 -872 8 -1190q0 -30 -29 -44q-26 -14 -38 7q-5 10 -5 22 q-3 319 -8 1192z" />
<glyph unicode="&#xed;" horiz-adv-x="294" d="M51 1206q0 30 29 44q26 12 38 -9q5 -9 5 -22q5 -872 8 -1190q0 -30 -29 -44q-26 -14 -38 7q-5 9 -5 22q-3 319 -8 1192zM71.5 1405.5q3.5 17.5 14.5 28.5q54 56 107 116q10 12 26 11.5t25 -13.5q17 -29 -13 -63q-17 -20 -53 -58.5t-53 -58.5q-10 -11 -26 -10.5t-23 14.5 q-8 16 -4.5 33.5z" />
<glyph unicode="&#xee;" horiz-adv-x="342" d="M57 1368q-13 19 11 47q58 66 88 96q9 9 21 9.5t18 -7.5q58 -62 88 -92q17 -23 0 -47q-17 -26 -41 -2q-18 21 -74 82q-13 -14 -37 -46t-35 -44q-10 -9 -21.5 -8.5t-17.5 12.5zM133 1206q0 30 29 44q26 12 38 -9q5 -10 5 -22q5 -872 8 -1190q0 -30 -29 -44q-26 -14 -38 7 q-5 10 -5 22q-3 319 -8 1192z" />
<glyph unicode="&#xef;" horiz-adv-x="348" d="M51 1481q5 16 19 28.5t30 12.5h4q16 0 23 -13t4 -28q-4 -20 -16.5 -30.5t-23.5 -11.5l-11 -1q-18 0 -25 13t-4 30zM131 1266q0 30 29 43q26 12 38 -9q5 -10 5 -22q5 -990 8 -1249q0 -30 -29 -44q-26 -14 -38 7q-5 10 -5 22q-3 259 -8 1252zM215 1473q2 19 17.5 33.5 t33.5 13.5q17 -1 25.5 -12.5t5.5 -26.5q-9 -47 -51 -47q-13 0 -22.5 11.5t-8.5 27.5z" />
<glyph unicode="&#xf0;" horiz-adv-x="552" d="M20 43v102q7 146 7 381q0 76 6 103q2 8 7.5 33t8 33.5t8.5 22.5t13 23q27 35 51 35q41 -3 116.5 -8.5t108.5 -7.5v51v219h-131q-12 0 -20 10.5t-5 26.5q2 11 10.5 17.5t24.5 8t30 1.5t36 -1t33 -1h22v69q0 36 -2.5 73.5t-7 86t-6.5 74.5q0 19 20.5 29t42 5t25.5 -24 q10 -230 10 -260v-47h82q21 0 33.5 -10t9.5 -25q-5 -33 -49 -33h-76v-282q23 -14 16 -31q0 -13 -16 -23v-112v-557q0 -19 -15.5 -28t-35.5 -9q-121 0 -182 4q-54 0 -114.5 15.5t-60.5 35.5zM104 72q34 -17 107 -17h129q6 78 6 238v395q-140 12 -201 12q-15 -23 -26 -86 q-7 -360 -15 -542z" />
<glyph unicode="&#xf1;" horiz-adv-x="509" d="M51 1415q-1 22 15.5 31t34.5 0t20 -29q1 -34 9.5 -108.5t8.5 -106.5q0 60 13 93.5t47 50.5q31 14 90 37.5t96 41.5q13 8 38.5 1t29.5 -27q4 -21 4.5 -76t-0.5 -133t0 -117q3 -232 0 -465q0 -98 -1 -290.5t-1 -290.5q0 -20 -21 -27.5t-42 0t-21 25.5q0 40 1 120t1 119 q0 108 1 318.5t1 314.5q0 31 1 96t1 107t-1 90t-5.5 74.5t-12.5 29.5q-10 10 -47 -3.5t-71 -37.5q-82 -65 -82 -125q0 -780 -15 -1114q-1 -17 -18.5 -22.5t-35 3t-17.5 25.5q1 53 2 159.5t2 160.5q0 58 1.5 238.5t0.5 277.5q-1 99 -13 286.5t-14 272.5zM87 1534q1 4 3 8 q20 39 78 60q21 7 49 4.5t49 -13.5q4 -2 16 -8.5t19 -9t17.5 -6t19 -2t16.5 7.5q19 13 44 -5q24 -17 10 -33l-7 -5q-29 -21 -63 -20.5t-66 18.5q-17 9 -36 14t-43 1t-37 -23q-16 -23 -46 -14q-25 7 -23 26z" />
<glyph unicode="&#xf2;" d="M31 1051v186q0 106 39 152q21 25 88 37.5t133 9t88 -18.5q16 -11 26.5 -32t13 -32.5t7.5 -39.5q10 -87 23 -518v-19q10 -181 0 -405q0 -31 -2.5 -64.5t-8 -78t-6.5 -60.5q-4 -33 -7 -50t-13.5 -43.5t-26.5 -45.5q-20 -24 -71.5 -31.5t-100 -2.5t-84.5 15q-19 6 -34 18.5 t-24.5 25t-16.5 35t-10 35.5t-5 41.5t-2.5 38.5t0 40.5t0.5 34.5q0 516 -6 772zM100 725q0 -51 3 -157t3 -162v-152q0 -6 -0.5 -24.5t0 -29t1.5 -26t5 -28.5t11 -25q6 -9 13.5 -16t18 -11.5t19.5 -8t23.5 -6t23.5 -3.5t26.5 -1.5t25 -0.5h26h23.5q22 9 30.5 27t16.5 67 q1 17 4 69t6 82q2 35 3 73t1.5 69t0.5 75v69.5t-1.5 75t-2 69.5t-2.5 75t-2.5 69.5t-3.5 75t-3 70.5q0 48 -4.5 145.5t-8.5 121.5q-2 9 -4.5 15.5t-7 11.5t-7.5 8.5t-9.5 6t-10 3.5t-12.5 1.5t-12.5 0.5h-14h-14.5q-36 0 -87 -5.5t-58 -13.5q-19 -16 -19 -63v-225v-322z M103 1635q4 -15 14 -25q45 -47 92 -101q9 -11 22.5 -10.5t20.5 12.5q15 27 -10 56q-17 17 -47 50t-45 48q-9 11 -23 10.5t-23 -12.5q-5 -13 -1 -28z" />
<glyph unicode="&#xf3;" d="M31 1051v186q0 106 39 152q21 25 88 37.5t133 9t88 -18.5q16 -11 26.5 -32t13 -32.5t7.5 -39.5q10 -87 23 -518v-19q10 -181 0 -405q0 -31 -2.5 -64.5t-8 -78t-6.5 -60.5q-4 -33 -7 -50t-13.5 -43.5t-26.5 -45.5q-20 -24 -71.5 -31.5t-100 -2.5t-84.5 15q-19 6 -34 18.5 t-24.5 25t-16.5 35t-10 35.5t-5 41.5t-2.5 38.5t0 40.5t0.5 34.5q0 516 -6 772zM100 725q0 -51 3 -157t3 -162v-152q0 -6 -0.5 -24.5t0 -29t1.5 -26t5 -28.5t11 -25q6 -9 13.5 -16t18 -11.5t19.5 -8t23.5 -6t23.5 -3.5t26.5 -1.5t25 -0.5h26h23.5q22 9 30.5 27t16.5 67 q1 17 4 69t6 82q2 35 3 73t1.5 69t0.5 75v69.5t-1.5 75t-2 69.5t-2.5 75t-2.5 69.5t-3.5 75t-3 70.5q0 48 -4.5 145.5t-8.5 121.5q-2 9 -4.5 15.5t-7 11.5t-7.5 8.5t-9.5 6t-10 3.5t-12.5 1.5t-12.5 0.5h-14h-14.5q-36 0 -87 -5.5t-58 -13.5q-19 -16 -19 -63v-225v-322z M171.5 1534.5q3.5 17.5 14.5 28.5q54 57 107 116q10 12 26 11.5t25 -13.5q8 -16 4 -33t-16 -30q-18 -19 -53.5 -58t-53.5 -59q-10 -11 -26 -10.5t-23 14.5q-8 16 -4.5 33.5z" />
<glyph unicode="&#xf4;" d="M31 1051v186q0 106 39 152q21 25 88 37.5t133 9t88 -18.5q16 -11 26.5 -32t13 -32.5t7.5 -39.5q10 -87 23 -518v-19q10 -181 0 -405q0 -31 -2.5 -64.5t-8 -78t-6.5 -60.5q-4 -33 -7 -50t-13.5 -43.5t-26.5 -45.5q-20 -24 -71.5 -31.5t-100 -2.5t-84.5 15q-19 6 -34 18.5 t-24.5 25t-16.5 35t-10 35.5t-5 41.5t-2.5 38.5t0 40.5t0.5 34.5q0 516 -6 772zM100 725q0 -51 3 -157t3 -162v-152q0 -6 -0.5 -24.5t0 -29t1.5 -26t5 -28.5t11 -25q6 -9 13.5 -16t18 -11.5t19.5 -8t23.5 -6t23.5 -3.5t26.5 -1.5t25 -0.5h26h23.5q22 9 30.5 27t16.5 67 q1 17 4 69t6 82q2 35 3 73t1.5 69t0.5 75v69.5t-1.5 75t-2 69.5t-2.5 75t-2.5 69.5t-3.5 75t-3 70.5q0 48 -4.5 145.5t-8.5 121.5q-2 9 -4.5 15.5t-7 11.5t-7.5 8.5t-9.5 6t-10 3.5t-12.5 1.5t-12.5 0.5h-14h-14.5q-36 0 -87 -5.5t-58 -13.5q-19 -16 -19 -63v-225v-322z M109 1485q-13 20 10 47q58 66 88 96q9 9 21 9.5t18 -7.5q58 -62 88 -92q17 -23 0 -47q-17 -26 -41 -2q-18 21 -74 82q-13 -14 -37 -46t-35 -44q-10 -9 -21 -8.5t-17 12.5z" />
<glyph unicode="&#xf5;" d="M31 1051v186q0 106 39 152q21 25 88 37.5t133 9t88 -18.5q16 -11 26.5 -32t13 -32.5t7.5 -39.5q10 -87 23 -518v-19q10 -181 0 -405q0 -31 -2.5 -64.5t-8 -78t-6.5 -60.5q-4 -33 -7 -50t-13.5 -43.5t-26.5 -45.5q-20 -24 -71.5 -31.5t-100 -2.5t-84.5 15q-19 6 -34 18.5 t-24.5 25t-16.5 35t-10 35.5t-5 41.5t-2.5 38.5t0 40.5t0.5 34.5q0 516 -6 772zM78 1535q0 4 2 7q20 39 78 60q21 7 49 4.5t49 -13.5q4 -2 16 -8.5t19 -9t17.5 -6t19 -2t16.5 7.5q19 13 44 -5q24 -17 10 -33l-7 -5q-29 -21 -63 -20.5t-66 18.5q-17 9 -36 14t-43.5 1 t-37.5 -23q-17 -24 -46 -14q-25 8 -21 27zM100 725q0 -51 3 -157t3 -162v-152q0 -6 -0.5 -24.5t0 -29t1.5 -26t5 -28.5t11 -25q6 -9 13.5 -16t18 -11.5t19.5 -8t23.5 -6t23.5 -3.5t26.5 -1.5t25 -0.5h26h23.5q22 9 30.5 27t16.5 67q1 17 4 69t6 82q2 35 3 73t1.5 69t0.5 75 v69.5t-1.5 75t-2 69.5t-2.5 75t-2.5 69.5t-3.5 75t-3 70.5q0 48 -4.5 145.5t-8.5 121.5q-2 9 -4.5 15.5t-7 11.5t-7.5 8.5t-9.5 6t-10 3.5t-12.5 1.5t-12.5 0.5h-14h-14.5q-36 0 -87 -5.5t-58 -13.5q-19 -16 -19 -63v-225v-322z" />
<glyph unicode="&#xf6;" d="M31 1051v186q0 106 39 152q21 25 88 37.5t133 9t88 -18.5q16 -11 26.5 -32t13 -32.5t7.5 -39.5q10 -87 23 -518v-19q10 -181 0 -405q0 -31 -2.5 -64.5t-8 -78t-6.5 -60.5q-4 -33 -7 -50t-13.5 -43.5t-26.5 -45.5q-20 -24 -71.5 -31.5t-100 -2.5t-84.5 15q-19 6 -34 18.5 t-24.5 25t-16.5 35t-10 35.5t-5 41.5t-2.5 38.5t0 40.5t0.5 34.5q0 516 -6 772zM100 725q0 -51 3 -157t3 -162v-152q0 -6 -0.5 -24.5t0 -29t1.5 -26t5 -28.5t11 -25q6 -9 13.5 -16t18 -11.5t19.5 -8t23.5 -6t23.5 -3.5t26.5 -1.5t25 -0.5h26h23.5q22 9 30.5 27t16.5 67 q1 17 4 69t6 82q2 35 3 73t1.5 69t0.5 75v69.5t-1.5 75t-2 69.5t-2.5 75t-2.5 69.5t-3.5 75t-3 70.5q0 48 -4.5 145.5t-8.5 121.5q-2 9 -4.5 15.5t-7 11.5t-7.5 8.5t-9.5 6t-10 3.5t-12.5 1.5t-12.5 0.5h-14h-14.5q-36 0 -87 -5.5t-58 -13.5q-19 -16 -19 -63v-225v-322z M106 1556q5 16 19.5 28.5t30.5 12.5h4q16 0 22.5 -13t3.5 -28q-4 -20 -16.5 -30.5t-23.5 -11.5l-11 -1q-18 0 -25 13t-4 30zM270 1548q2 19 17.5 33.5t34.5 13.5q17 -1 25 -12.5t5 -26.5q-9 -47 -51 -47q-13 0 -22.5 11.5t-8.5 27.5z" />
<glyph unicode="&#xf7;" horiz-adv-x="747" d="M51 567q9 16 22.5 25t31 12t31 3t36 -1.5t33.5 -1.5h100q1 0 56 1t113.5 1.5t115 0t69.5 -2.5q20 -3 28.5 -12t8.5 -29q0 -18 -16 -28.5t-29 -10.5h-575q-8 0 -19 15.5t-6 27.5zM291 360q0 25 25 49.5t57 24.5h22q20 0 45 -22q23 -23 23 -52q0 -44 -23 -67 q-9 -11 -37 -23h-45q-7 2 -13 5t-10 5.5t-9 7t-7 7l-6 7.5t-6 7q-16 24 -16 51zM291 809q0 25 25 49.5t57 24.5h22q19 0 45 -23q23 -23 23 -51q0 -45 -23 -68q-4 -5 -8.5 -8.5t-7.5 -4.5t-10 -4t-11 -5h-45q-7 2 -13 5t-10 5.5t-9 7t-7 7l-6 7.5t-6 7q-16 24 -16 51z" />
<glyph unicode="&#xf8;" d="M31 1051v186q0 106 39 152q21 25 88 37.5t133 9t88 -18.5q16 -11 26.5 -32t13 -32.5t7.5 -39.5q10 -87 23 -518v-19q10 -181 0 -405q0 -31 -2.5 -64.5t-8 -78t-6.5 -60.5q-4 -33 -7 -50t-13.5 -43.5t-26.5 -45.5q-20 -24 -71.5 -31.5t-100 -2.5t-84.5 15q-19 6 -34 18.5 t-24.5 25t-16.5 35t-10 35.5t-5 41.5t-2.5 38.5t0 40.5t0.5 34.5q0 516 -6 772zM100 725q0 -51 3 -157t3 -162v-152q0 -6 -0.5 -24.5t0 -29t1.5 -26t5 -28.5t11 -25q6 -9 13.5 -16t18 -11.5t19.5 -8t23.5 -6t23.5 -3.5t26.5 -1.5t25 -0.5h26h23.5q22 9 30.5 27t16.5 67 q1 17 4 69t6 82q2 35 3 73t1.5 69t0.5 75v69.5t-1.5 75t-2 69.5t-2.5 75t-2.5 69.5t-3.5 75t-3 70.5q0 48 -4.5 145.5t-8.5 121.5q-2 9 -4.5 15.5t-7 11.5t-7.5 8.5t-9.5 6t-10 3.5t-12.5 1.5t-12.5 0.5h-14h-14.5q-36 0 -87 -5.5t-58 -13.5q-19 -16 -19 -63v-225v-322z M123 -131l98 821q65 532 109 912q4 23 38 30q36 8 44 -12q3 -5 2 -12q-19 -145 -53.5 -436.5t-53.5 -436.5l-51 -429l-51 -429q-2 -23 -36 -31q-33 -8 -44 10q-3 5 -2 13z" />
<glyph unicode="&#xf9;" horiz-adv-x="452" d="M31.5 778.5q0.5 44.5 1 144.5t0.5 207q0 51 3.5 146t4.5 125q1 27 30 35q26 7 36 -11q2 -5 2 -12q-4 -62 -7 -176.5t-4 -140.5q-5 -228 8 -514q10 -240 15 -285q25 -218 43 -225q4 -2 14 -2h10h11t11 0.5t11.5 1t10 1.5t10 3t8 5t7.5 6.5t5 8.5q3 3 14 125l25 318 q6 59 6 264q0 48 -0.5 142.5t-1 153.5t1.5 140.5t6 149.5q1 15 6.5 24.5t11 13t15.5 5.5q13 3 24 -3.5t11 -19.5q1 -46 4 -144t4 -147q8 -317 14 -481l19 -598q0 -39 -29 -51q-13 -5 -25 0.5t-12 19.5q-2 45 -5 135.5t-5 135.5q0 17 -1 49t-1 49q-3 -35 -8 -104.5t-8 -104.5 q-5 -100 -23 -131q-17 -26 -42.5 -32.5t-67.5 -4.5q-52 0 -71 4.5t-26 24.5q-55 147 -63 477q-2 92 -3 160t-0.5 112.5zM104 1647q-15 -27 11 -58q16 -16 32 -33t35.5 -38t30.5 -33q9 -12 23.5 -11.5t23.5 13.5q7 14 3 30t-15 27q-17 18 -49 53.5t-47 51.5 q-10 12 -25.5 11.5t-22.5 -13.5z" />
<glyph unicode="&#xfa;" horiz-adv-x="452" d="M31.5 778.5q0.5 44.5 1 144.5t0.5 207q0 51 3.5 146t4.5 125q1 27 28 39.5t37 -9.5q3 -7 3 -18q-2 -53 -5.5 -158.5t-5.5 -158.5q-5 -228 8 -514q10 -240 15 -285q25 -218 43 -225q4 -2 14 -2h10h11t11 0.5t11.5 1t10 1.5t10 3t8 5t7.5 6.5t5 8.5q3 3 14 125l25 318 q6 59 6 264q0 48 -0.5 142.5t-1 153.5t1.5 140.5t6 149.5q1 15 6.5 24.5t11 13t15.5 5.5q13 3 24 -3.5t11 -19.5q1 -46 4 -144t4 -147q8 -317 14 -481l19 -598q0 -39 -29 -51q-13 -5 -25 0.5t-12 19.5q-2 45 -5 135.5t-5 135.5q0 17 -1 49t-1 49q-3 -35 -8 -104.5t-8 -104.5 q-5 -100 -23 -131q-17 -26 -42.5 -32.5t-67.5 -4.5q-52 0 -71 4.5t-26 24.5q-55 147 -63 477q-2 92 -3 160t-0.5 112.5zM184 1516q3 14 13 24q15 15 43.5 46.5t42.5 47.5q9 11 22.5 10.5t20.5 -12.5q10 -21 -11 -51q-15 -15 -44.5 -46.5t-43.5 -47.5q-8 -9 -20.5 -9 t-18.5 11q-7 13 -4 27z" />
<glyph unicode="&#xfb;" horiz-adv-x="452" d="M31.5 778.5q0.5 44.5 1 144.5t0.5 207q0 51 3.5 146t4.5 125q1 27 28 39.5t37 -9.5q3 -7 3 -18q-2 -53 -5.5 -158.5t-5.5 -158.5q-5 -228 8 -514q10 -240 15 -285q25 -218 43 -225q4 -2 14 -2h10h11t11 0.5t11.5 1t10 1.5t10 3t8 5t7.5 6.5t5 8.5q3 3 14 125l25 318 q6 59 6 264q0 48 -0.5 142.5t-1 153.5t1.5 140.5t6 149.5q1 15 6.5 24.5t11 13t15.5 5.5q13 3 24 -3.5t11 -19.5q1 -46 4 -144t4 -147q8 -317 14 -481l19 -598q0 -39 -29 -51q-13 -5 -25 0.5t-12 19.5q-2 45 -5 135.5t-5 135.5q0 17 -1 49t-1 49q-3 -35 -8 -104.5t-8 -104.5 q-5 -100 -23 -131q-17 -26 -42.5 -32.5t-67.5 -4.5q-52 0 -71 4.5t-26 24.5q-55 147 -63 477q-2 92 -3 160t-0.5 112.5zM109 1485q-13 20 10 47q58 66 88 96q9 9 21 9.5t18 -7.5q58 -62 88 -92q17 -23 0 -47q-17 -26 -41 -2q-18 21 -74 82q-13 -14 -37 -46t-35 -44 q-10 -9 -21 -8.5t-17 12.5z" />
<glyph unicode="&#xfc;" horiz-adv-x="452" d="M31.5 778.5q0.5 44.5 1 144.5t0.5 207q0 51 3.5 146t4.5 125q1 27 28 39.5t37 -9.5q3 -7 3 -18q-2 -53 -5.5 -158.5t-5.5 -158.5q-5 -228 8 -514q10 -240 15 -285q25 -218 43 -225q4 -2 14 -2h10h11t11 0.5t11.5 1t10 1.5t10 3t8 5t7.5 6.5t5 8.5q3 3 14 125l25 318 q6 59 6 264q0 48 -0.5 142.5t-1 153.5t1.5 140.5t6 149.5q1 15 6.5 24.5t11 13t15.5 5.5q13 3 24 -3.5t11 -19.5q1 -46 4 -144t4 -147q8 -317 14 -481l19 -598q0 -39 -29 -51q-13 -5 -25 0.5t-12 19.5q-2 45 -5 135.5t-5 135.5q0 17 -1 49t-1 49q-3 -35 -8 -104.5t-8 -104.5 q-5 -100 -23 -131q-17 -26 -42.5 -32.5t-67.5 -4.5q-52 0 -71 4.5t-26 24.5q-55 147 -63 477q-2 92 -3 160t-0.5 112.5zM98 1556q5 16 19 28.5t30 12.5h5q16 0 22.5 -13t3.5 -28q-4 -20 -16.5 -30.5t-23.5 -11.5l-11 -1q-18 0 -25 13t-4 30zM262 1548q2 19 17.5 33.5 t33.5 13.5q17 -1 25.5 -12.5t5.5 -26.5q-9 -47 -51 -47q-13 0 -22.5 11.5t-8.5 27.5z" />
<glyph unicode="&#xfd;" horiz-adv-x="466" d="M31 1012q0 64 4 190t4 191q0 14 11.5 28.5t29.5 14.5q13 0 19.5 -14t6.5 -29q3 -77 3 -150q0 -56 -2.5 -163.5t-2.5 -195t5 -161.5q4 -53 41 -127q2 -10 22 -49q16 72 45 208t41 191q68 310 109 479q5 26 35 33q29 8 34 -12q1 -5 0 -12q-6 -29 -19.5 -90t-19.5 -89 q-6 -29 -69.5 -321t-96.5 -445q-63 -285 -108 -479q-7 -26 -37 -31q-28 -5 -35 15q-1 6 0 14q6 29 19.5 87.5t19.5 86.5q30 139 57 256q-5 9 -45.5 85t-56.5 116q-14 39 -14 373zM171.5 1514q3.5 17 14.5 28q37 39 107 117q10 12 26 11.5t25 -13.5q8 -16 4 -33.5t-16 -30.5 q-18 -20 -53.5 -58t-53.5 -58q-10 -11 -26 -10.5t-23 14.5q-8 16 -4.5 33z" />
<glyph unicode="&#xfe;" horiz-adv-x="450" d="M31 1401q-1 20 19 27t40.5 -1.5t20.5 -27.5q1 -55 3 -162t3 -162v-35q90 -8 133 -8q84 0 112 -6q35 -9 46 -22q5 -7 7.5 -18.5t3 -18t0 -23.5t-0.5 -18q0 -15 1.5 -59.5t0.5 -67.5q0 -3 -6 -162q-2 -80 -2 -242q1 -11 -6.5 -19.5t-18.5 -10.5q-48 -4 -137.5 -12.5 t-128.5 -12.5q4 -202 8 -305q0 -21 -20 -28.5t-40.5 1t-21.5 27.5q-1 57 -4 169t-4 169q-4 59 -2.5 261t0.5 259q0 76 -1 160.5t-2.5 187.5t-2.5 160zM117 979q2 -152 2 -453v-123q36 3 106.5 10.5t106.5 10.5v127q-1 53 8 244q0 17 -1 49t-1 49q0 2 -2 31.5t-2 44.5h-6 q-9 0 -26 -0.5t-30.5 -0.5t-25.5 1q-43 2 -129 10z" />
<glyph unicode="&#xff;" horiz-adv-x="466" d="M31 1012q0 64 4 190t4 191q0 14 11.5 28.5t29.5 14.5q13 0 19.5 -14t6.5 -29q3 -77 3 -150q0 -56 -2.5 -163.5t-2.5 -195t5 -161.5q4 -53 41 -127q2 -10 22 -49q16 72 45 208t41 191q68 310 109 479q5 26 35 33q29 8 34 -12q1 -5 0 -12q-6 -29 -19.5 -90t-19.5 -89 q-6 -29 -69.5 -321t-96.5 -445q-63 -285 -108 -479q-7 -26 -37 -31q-28 -5 -35 15q-1 6 0 14q6 29 19.5 87.5t19.5 86.5q30 139 57 256q-5 9 -45.5 85t-56.5 116q-14 39 -14 373zM106 1556q5 16 19.5 28.5t30.5 12.5h4q16 0 22.5 -13t3.5 -28q-4 -20 -16.5 -30.5 t-23.5 -11.5l-11 -1q-18 0 -25 13t-4 30zM270 1548q2 19 17.5 33.5t34.5 13.5q17 -1 25 -12.5t5 -26.5q-9 -47 -51 -47q-13 0 -22.5 11.5t-8.5 27.5z" />
<glyph unicode="&#x152;" horiz-adv-x="978" d="M31 446.5q-3 227.5 6.5 522t9.5 432.5q0 17 15 31t32 14h46h48t42.5 -0.5t46 -2t41.5 -4t46.5 -6.5t43.5 -10q9 0 16.5 -6.5t7.5 -15.5q-7 -247 -2.5 -451.5t-5 -461t-39.5 -461.5q0 -25 -58 -35.5t-122 -8.5t-111 9q-35 0 -35 22q-25 205 -28 432.5zM113 472 q2 -217 24 -411q41 -6 133 -6h41q26 194 32 433.5t0 432.5t1 439q-74 18 -215 18q0 -135 -9 -412t-7 -494zM496 719q-6 220 6 674q0 15 17.5 29t33.5 14q125 -6 369 -6q27 0 26 -23q-1 -25 -26 -41q-12 -8 -23 -8q-209 0 -315 6q-12 -419 0 -629q35 4 71 6t59.5 1.5t65.5 -1 t68 -0.5q27 0 23 -30t-27 -44q-10 -7 -21 -5q-136 0 -239 -7q10 -317 10 -583q229 0 317 6q30 4 32 -26t-21 -48q-8 -7 -17 -8q-98 -10 -321 -10q-18 0 -41 -1q-19 -1 -24 0t-5 7q0 358 -18 727z" />
<glyph unicode="&#x153;" horiz-adv-x="962" d="M31 1051v186q0 106 39 152q21 25 88 37.5t133 9t88 -18.5q16 -11 26.5 -32t13 -32.5t7.5 -39.5q10 -87 23 -518v-19q10 -181 0 -405q0 -31 -2.5 -64.5t-8 -78t-6.5 -60.5q-4 -33 -7 -50t-13.5 -43.5t-26.5 -45.5q-20 -24 -71.5 -31.5t-100 -2.5t-84.5 15q-19 6 -34 18.5 t-24.5 25t-16.5 35t-10 35.5t-5 41.5t-2.5 38.5t0 40.5t0.5 34.5q0 516 -6 772zM100 725q0 -51 3 -157t3 -162v-152q0 -6 -0.5 -24.5t0 -29t1.5 -26t5 -28.5t11 -25q6 -9 13.5 -16t18 -11.5t19.5 -8t23.5 -6t23.5 -3.5t26.5 -1.5t25 -0.5h26h23.5q22 9 30.5 27t16.5 67 q1 17 4 69t6 82q2 35 3 73t1.5 69t0.5 75v69.5t-1.5 75t-2 69.5t-2.5 75t-2.5 69.5t-3.5 75t-3 70.5q0 48 -4.5 145.5t-8.5 121.5q-2 9 -4.5 15.5t-7 11.5t-7.5 8.5t-9.5 6t-10 3.5t-12.5 1.5t-12.5 0.5h-14h-14.5q-36 0 -87 -5.5t-58 -13.5q-19 -16 -19 -63v-225v-322z M516 721q-4 430 27 665q3 16 14.5 28.5t28.5 15.5q24 4 66 6.5t88 -1t57 -14.5q16 -14 35 -45t20 -53q2 -21 5 -63t5 -62q21 -263 -28 -446q-4 -12 -17.5 -21.5t-25.5 -11.5q-92 -9 -193 -21q0 -199 6 -297q8 -124 47 -317h2q168 -12 250 -16q31 -2 28 -30q-3 -26 -29 -39 q-11 -6 -23 -5q-46 3 -138 8t-137 8q-23 4 -29 21q-42 195 -49 336q-10 119 -10 354zM598 770q52 4 164 16q38 151 22 355q-8 92 -10 131q-5 51 -26 76l-15 12q-9 4 -56.5 4t-58.5 -4q-24 -203 -20 -590z" />
<glyph unicode="&#x178;" d="M32 18q7 28 34 42q10 6 20 6q149 0 223 2q26 527 29 589q-33 -2 -100 -2h-88q-76 0 -76 41q0 123 4 351.5t4 351.5q0 34 25 34q24 0 37 -25q6 -11 6 -22q-4 -132 -7 -363.5t-4 -277.5q13 1 37.5 -0.5t32.5 -1.5q23 0 70.5 3t62.5 4q4 110 12.5 318t12.5 318q4 26 36 38 q35 13 48 -8q4 -7 4 -17q-11 -224 -32.5 -671.5t-33.5 -684.5q0 -22 -16 -34.5t-35 -12.5q-47 0 -141.5 -3t-141.5 -3q-29 0 -23 28zM164 1554q5 16 19 28.5t30 12.5h4q16 0 23 -13t4 -28q-4 -20 -16.5 -31t-23.5 -11l-11 -1q-18 0 -25 13t-4 30zM328 1546q2 19 17.5 33.5 t33.5 13.5q17 -1 25.5 -12.5t5.5 -26.5q-9 -47 -52 -47q-13 0 -22 11t-8 28z" />
<glyph unicode="&#x2c6;" horiz-adv-x="507" d="M51 1358q0 22 19 41q56 68 69.5 82t65.5 59q31 31 47 33q66 -19 188 -166q19 -23 15.5 -40t-29.5 -40q-14 -4 -30 2t-25 13t-11 10q-6 4 -29.5 28.5t-45 45.5t-25.5 20q-18 -19 -28 -29.5t-12.5 -12.5t-5 -4.5t-7 -6.5t-17 -18.5t-36.5 -41.5q-29 -31 -68 -16 q-33 12 -35 41z" />
<glyph unicode="&#x2dc;" horiz-adv-x="385" d="M31 1535q0 4 2 7q20 39 78 60q21 7 49 4.5t49 -13.5q4 -2 16 -8.5t19 -9t17.5 -6t19 -2t16.5 7.5q19 13 44 -5q24 -17 10 -33l-7 -5q-29 -21 -63 -20.5t-66 18.5q-17 9 -36 14t-43.5 1t-37.5 -23q-17 -24 -46 -14q-25 8 -21 27z" />
<glyph unicode="&#x2000;" horiz-adv-x="851" />
<glyph unicode="&#x2001;" horiz-adv-x="1703" />
<glyph unicode="&#x2002;" horiz-adv-x="851" />
<glyph unicode="&#x2003;" horiz-adv-x="1703" />
<glyph unicode="&#x2004;" horiz-adv-x="567" />
<glyph unicode="&#x2005;" horiz-adv-x="425" />
<glyph unicode="&#x2006;" horiz-adv-x="283" />
<glyph unicode="&#x2007;" horiz-adv-x="283" />
<glyph unicode="&#x2008;" horiz-adv-x="212" />
<glyph unicode="&#x2009;" horiz-adv-x="340" />
<glyph unicode="&#x200a;" horiz-adv-x="94" />
<glyph unicode="&#x2010;" horiz-adv-x="462" d="M103.5 542.5q-10.5 9.5 0.5 28.5q7 14 20 25.5t21 11.5h230q9 0 19 -13.5t3 -23.5q-8 -14 -20 -23.5t-22 -14t-27.5 -7t-26 -3t-29.5 0t-26 0.5q-68 0 -105 4q-27 5 -37.5 14.5z" />
<glyph unicode="&#x2011;" horiz-adv-x="462" d="M103.5 542.5q-10.5 9.5 0.5 28.5q7 14 20 25.5t21 11.5h230q9 0 19 -13.5t3 -23.5q-8 -14 -20 -23.5t-22 -14t-27.5 -7t-26 -3t-29.5 0t-26 0.5q-68 0 -105 4q-27 5 -37.5 14.5z" />
<glyph unicode="&#x2012;" horiz-adv-x="462" d="M103.5 542.5q-10.5 9.5 0.5 28.5q7 14 20 25.5t21 11.5h230q9 0 19 -13.5t3 -23.5q-8 -14 -20 -23.5t-22 -14t-27.5 -7t-26 -3t-29.5 0t-26 0.5q-68 0 -105 4q-27 5 -37.5 14.5z" />
<glyph unicode="&#x2013;" horiz-adv-x="473" d="M43 543q0 16 10 25t29.5 12t36 3t42.5 -1.5t36 -1.5h100q3 0 22 1.5t39.5 1.5t36.5 -3q20 -3 28.5 -12t8.5 -29q0 -18 -16 -28.5t-29 -10.5h-319q-9 0 -19.5 15.5t-5.5 27.5z" />
<glyph unicode="&#x2014;" horiz-adv-x="985" d="M33 551q0 19 16 31t39.5 15t50 4t47.5 -1l633 -12q3 0 22.5 1.5t40 1.5t36.5 -3q20 -3 28 -12t8 -29q0 -18 -16 -28.5t-29 -10.5h-852q-9 0 -19 15.5t-5 27.5z" />
<glyph unicode="&#x2018;" horiz-adv-x="253" d="M41.5 1345.5q-1.5 32.5 15.5 57.5q11 31 72 170q7 20 39 21q31 0 33 -18q0 -5 -2 -11l-58 -131q72 -11 72 -91q0 -25 -25 -49t-57 -24l-22 2q-21 -3 -46 22q-20 19 -21.5 51.5z" />
<glyph unicode="&#x2019;" horiz-adv-x="212" d="M20 1524q-2 25 23 48.5t57 22.5l23 2q18 0 45 -20q19 -20 23 -50.5t-9 -53.5q-21 -64 -76 -177q-5 -22 -35 -24q-28 -1 -32 18q-1 6 2 13q2 5 53 131h-4q-76 11 -70 90z" />
<glyph unicode="&#x201a;" horiz-adv-x="198" d="M42 -80q-1 5 1 12q39 109 45 127q5 20 36 22q30 2 33 -16q1 -5 -1 -12q-6 -16 -14 -41t-15.5 -45.5t-15.5 -40.5q-5 -20 -36 -22q-30 -2 -33 16z" />
<glyph unicode="&#x201c;" horiz-adv-x="454" d="M41.5 1345.5q-1.5 32.5 15.5 57.5q11 31 72 170q7 20 39 21q31 0 33 -18q0 -5 -2 -11l-58 -131q72 -11 72 -91q0 -25 -25 -49t-57 -24l-22 2q-21 -3 -46 22q-20 19 -21.5 51.5zM242 1342.5q-3 30.5 12 52.5q26 84 78 176q5 21 35 22q28 2 32 -17q1 -6 -2 -13 q-4 -11 -25 -57.5t-32 -73.5h6q74 -11 68 -91q0 -25 -25 -48.5t-57 -22.5h-23q-18 0 -45 20q-19 22 -22 52.5z" />
<glyph unicode="&#x201d;" horiz-adv-x="452" d="M41 1516q-2 25 23 48.5t57 22.5l22 2q18 0 45 -20q19 -21 23.5 -51t-8.5 -54q-20 -61 -76 -176q-5 -21 -35 -24q-29 -2 -32 17q-2 6 1 13q4 11 12.5 32t21.5 51t20 48h-4q-76 11 -70 91zM242 1518q-2 25 23 49t57 24h22q20 3 45 -22q20 -19 22.5 -51.5t-14.5 -57.5 q-10 -26 -35 -89t-32 -83t-39 -21q-31 0 -33 18q0 5 2 11q4 12 13 33.5t22 52t20 48.5q-73 8 -73 88z" />
<glyph unicode="&#x201e;" horiz-adv-x="454" d="M41 100q0 25 25 49.5t57 24.5h22q20 0 45 -22q23 -23 23 -52q0 -17 -8 -45q-23 -66 -68 -164q-5 -21 -36 -22q-29 -1 -32 17q-2 5 1 12q22 56 47 112h-8q-24 4 -39 14t-20.5 25.5t-7 25.5t-1.5 25zM242 100q0 25 25 49.5t57 24.5h22q20 0 45 -22q23 -23 23 -52 q0 -17 -8 -45q-23 -66 -68 -164q-5 -20 -36 -22q-30 -2 -33 17q-1 5 1 12q6 18 47 112q-39 4 -57 29t-18 61z" />
<glyph unicode="&#x2022;" horiz-adv-x="403" d="M70 600q0 38 38.5 75.5t86.5 37.5h32q29 0 70 -35q14 -14 24.5 -38t10.5 -40q0 -25 -10 -55t-25 -47q-29 -34 -50.5 -39t-74.5 4q-10 3 -19.5 8t-15.5 9t-13.5 10.5t-10.5 10t-10 11.5t-9 10q-24 43 -24 78z" />
<glyph unicode="&#x2026;" horiz-adv-x="352" d="M27 100q0 25 25 49.5t57 24.5h22q20 0 45 -22q23 -23 23 -52q0 -44 -23 -67q-9 -11 -37 -23h-45q-7 2 -13 5t-10 5.5t-9 7t-7 7l-6 7.5t-6 7q-16 24 -16 51zM27 100q0 25 25 49.5t57 24.5h22q20 0 45 -22q23 -23 23 -52q0 -44 -23 -67q-9 -11 -37 -23h-45q-7 2 -13 5 t-10 5.5t-9 7t-7 7l-6 7.5t-6 7q-16 24 -16 51zM27 100q0 25 25 49.5t57 24.5h22q20 0 45 -22q23 -23 23 -52q0 -44 -23 -67q-9 -11 -37 -23h-45q-7 2 -13 5t-10 5.5t-9 7t-7 7l-6 7.5t-6 7q-16 24 -16 51z" />
<glyph unicode="&#x202f;" horiz-adv-x="340" />
<glyph unicode="&#x2039;" horiz-adv-x="438" d="M41 500q12 40 93.5 126.5t162.5 159.5q26 22 44 18.5t42 -32.5q6 -21 -44 -82.5t-60 -66.5q-5 -7 -31 -33t-48.5 -49.5t-21.5 -28.5q138 -123 195 -172q34 -30 20 -72q-11 -35 -41 -39q-24 -3 -47 19q-138 109 -225 203q-4 4 -11.5 11t-10.5 10.5t-7.5 9t-6.5 9.5t-3 9z " />
<glyph unicode="&#x203a;" horiz-adv-x="440" d="M42 742q4 36 30 47t61 -13q133 -105 227 -201q4 -4 11.5 -11t10.5 -10.5t7.5 -9t6.5 -9.5t3 -9q-12 -41 -91.5 -132.5t-149.5 -155.5q-23 -27 -44.5 -25.5t-52.5 37.5q-5 15 20 52.5t52 67t31 31.5q5 7 30.5 33t47 49.5t20.5 28.5q-120 107 -196 170q-28 24 -24 60z" />
<glyph unicode="&#x205f;" horiz-adv-x="425" />
<glyph unicode="&#x20ac;" horiz-adv-x="677" d="M36.5 656q0.5 22 12.5 22l139 4v12l2 56q-21 0 -60 -1t-58 -1q-10 0 -18 21.5t-7.5 43.5t12.5 23l134 4q1 50 3 151.5t3 151.5q0 31 5.5 67t11.5 61t16.5 67t15.5 63q8 32 53 37q47 2 142.5 7t142.5 7q32 2 32 -22q-1 -25 -27 -42q-13 -7 -26 -8q-40 -3 -119.5 -7 t-119.5 -7q-37 -154 -39 -260l-6 -264q45 1 134 2t134 2q10 0 17.5 -22t6.5 -44t-14 -22l-280 -6q0 -34 -3 -68l263 4q10 0 17.5 -22t6.5 -44t-14 -22l-275 -4q-4 -226 -4 -338q0 -55 2 -82q0 -39 4 -125v-28l5 -3q15 -5 29 -12q10 -4 29 -2q9 1 15 2q12 0 35 1t35 1 q24 1 88.5 7t95.5 6q33 0 32.5 -25.5t-27.5 -41.5q-12 -7 -25 -7q-33 0 -120.5 -7t-149.5 -3t-115 26q-11 5 -15 23q-6 202 -2 606l-125 -4q-10 0 -17.5 22t-7 44z" />
<glyph unicode="&#x2122;" horiz-adv-x="733" d="M30 1593.5q6 22.5 27 30.5q6 2 11 2q246 -6 251 -6q11 0 9 -23q-8 -30 -29 -34q-31 2 -90 2q-3 -48 -3 -147t-3 -148v-246q1 -22 -26 -38q-26 -15 -34 2l-2 11l-2 261q3 50 3 152t3 153v4q-65 0 -98 2q-23 0 -17 22.5zM352 1581v8q0 15 16 26t33 8.5t19 -19.5 q0 -15 2.5 -28.5t10 -37t9.5 -31.5q5 -22 20.5 -86.5t22.5 -99.5q22 -73 41 -160q24 83 37 148q16 55 51 194l19 78q1 17 18 27.5t34 5.5t17 -25v-6q0 -78 -3 -234.5t-3 -353.5q0 -21 -27 -30q-29 -9 -37 10q-2 5 -1 12q5 111 5 155t-2 82.5t-3 82.5q-6 -12 -6 -21 q-9 -39 -27.5 -106t-22.5 -82q-2 -6 -6.5 -24.5t-9 -30.5t-12.5 -23q-10 -14 -32 -16.5t-26 16.5q-14 52 -37 146.5t-30 121.5q-1 -30 -2.5 -66t-1 -73.5t5.5 -138.5q0 -22 -28.5 -35t-36.5 4q-1 4 -1 8q0 189 -3 352t-3 242z" />
<glyph unicode="&#x25fc;" horiz-adv-x="1443" d="M0 0v1444h1444v-1444h-1444z" />
<glyph unicode="&#xfb01;" horiz-adv-x="520" d="M31 924v209q0 110 4 167q0 30 22 103q8 31 54 31q64 0 182 -8.5t164 -10.5q10 0 21 -9t11 -20v-75q0 -19 -21.5 -30t-43 -5.5t-21.5 24.5v43q-178 13 -270 13q-13 -26 -14.5 -32t-1.5 -36v-207v-284q28 0 104.5 2t106.5 2q23 0 35.5 -19t5 -38.5t-34.5 -20.5l-217 -10 q5 -143 6 -176v-519q0 -19 -22 -29t-44 -4t-22 27v330q0 88 -2 284.5t-2 297.5zM406 1163q0 29 27 43t39 -8q5 -9 5 -22q4 -754 8 -1131q0 -29 -27 -44q-27 -13 -39 8q-5 9 -5 22q-4 380 -8 1132z" />
<glyph unicode="&#xfb02;" horiz-adv-x="761" d="M31 924v209q0 110 4 167q0 30 22 103q8 31 54 31q64 0 182 -8.5t164 -10.5q10 0 21 -9t11 -20v-75q0 -19 -21.5 -30t-43 -5.5t-21.5 24.5v43q-178 13 -270 13q-13 -26 -14.5 -32t-1.5 -36v-207v-284q28 0 75.5 2t77.5 2q23 0 35.5 -18.5t5 -38t-34.5 -21.5l-159 -10 q5 -143 6 -176v-519q0 -19 -22 -29t-44 -4t-22 27v330q0 88 -2 284.5t-2 297.5zM403 848l5 364q0 13 15 24t28 11q10 0 16.5 -3t8.5 -10t3 -10t1 -14l-1 -10q0 -125 -2 -205q0 -626 15 -915q59 -2 178 -2q2 47 7.5 59.5t27.5 12.5q10 -1 15.5 -6t7.5 -13.5t2.5 -13.5 t0.5 -15l-2 -73q0 -10 -7 -21.5t-17 -11.5q-40 0 -118 1t-118 1q-14 0 -27.5 12t-15.5 25q-8 190 -10 278q-2 50 -5 149.5t-5 149.5q-3 117 -3 236z" />
</font>
</defs>
</svg>
